<svg xmlns="http://www.w3.org/2000/svg" version="1.1" width="600px" height="600px" viewBox="0 0 200 200" style="overflow:hidden!important;"><g id="svga-group-wrapper"><g id="svga-group-backs-single"><path id="SvgjsPath14393" d="M0 0h200v200H0V0z" fill="#ffb3e8" stroke-width="none" opacity="1" stroke="none"></path></g><g id="svga-group-humanwrap-move" transform="matrix(1,0,0,1,0,0)"><g id="svga-group-humanwrap" transform="matrix(0.8999996000000001,0,0,0.8999996000000001,10.000039999999984,12.780049899291981)"><g id="svga-group-hair-back-move" transform="matrix(1,0,0,1,0,0)"><g id="svga-group-hair-back"><path id="SvgjsPath14136" d="m85.2 45-21 15.4-8 74.7 4.8 29.8 16.2 3.7 49.5.5.5-17.6 1.3 17.3 12-3.2 5.3-4-2.9-76.6-4.2-18.9s-14.6-21-15.4-20.7-38.1-.4-38.1-.4z" fill="#413530" stroke-width="none" opacity="1"></path></g></g><g id="svga-group-humanbody-back"><path id="SvgjsPath12973" d="m168.2 200-4.6-14.2-34.9-13.4-10.8-9.7-1.4-50.5h-33l-1.4 50.5-10.8 9.7-34.9 13.4-4.6 14.2-3 20h142.4z" fill="#fbd5c0" stroke-width="none" opacity="1" stroke="none"></path><path id="SvgjsPath12974" d="m83.5 112.2-1.4 50.5-10.8 9.7-34.9 13.4-4.6 14.2-3 20H39v-20l1.7-13.3 32.1-12.9 14.1-9.5 2-52.1z" fill="#dc9f7d" stroke-width="none" opacity="1" stroke="none"></path></g><g id="svga-group-chinshadow-single"><path id="SvgjsPath13595" d="m106.1 156 11.3-8.6-.9-35.2h-33l-1.1 39.3 6 4.5 3.2 4.7 5.6-.6 5.7.6z" fill="#cd865f" stroke-width="none" opacity="1"></path></g><g id="svga-group-humanbody-front"></g><g id="svga-group-clothes-single"><path id="SvgjsPath14373" d="m170.3 199.6-4.7-15.1-32.8-12-2-4.2-3.4-1.2.3-1.3-1.2-7.3-2.5-2.4.3-3.2-3.5-5.4h-3.4l-1 2.2-6.4 5.1-10 1.3-10-1.3-6.4-5.1-1-2.2h-3.4l-3.5 5.4.3 3.2-2.5 2.4-1.2 7.3.3 1.3-3.4 1.2-2 4.2-32.8 12-4.7 15.1-2.9 20.4h146.4z" fill="#fbfbfb" stroke-width="none" opacity="1"></path><path id="SvgjsPath14374" d="m124.3 152.9-3.5 5.9-.4-5.5-3-1.9 2.6 2.6v6.2l-.4.7-3.6 3.5 4.3-2.6 2.9 5.3 1 8.5-.3-9.2-2.7-5.6 2.7-4.7.4-3.2zm-18.9 34H93.8l-13-4.2-1.7-2.4h3.7l2.4.7 1.6 3.3s-.5-1.8-.8-3l5.7 1.7 11.5.2-8-1-.8-7.4.6-3.9 9.2-.4-9.1-.8.3-2.3.6-8.1s-1.6 8.4-1.4 8.7c0 .1-.1.7-.2 1.6h-.3l-5.8-3.2.9-1.8.6-8.3-1.2 8-.9 1.8-1.1-.6-.8-2.5 1-3.9 3-2.7 9.6 1.5 11.7-1.7 8.4-7.9s-.1-.3-.2-.7h-1.8l-1 2.2-6.4 5.1-10 1.4-10-1.4-6.4-5.1-1-2.2h-3.3l-3.6 5.4.3 3.2-2.5 2.4-1.2 7.3.3 1.4-3.4 1.2-2 4.2-32.8 12-4.7 15-3 20.3h8l3.8-24.3 1.8-3.6c2.8 3.2 7.1 8.4 7.1 8.4l4 13.7.3 5.9H54c-.2-3.4-.4-7.2-.4-7.5 0-.5-5.1-13.2-5.1-13.2l-7.9-7.5.3-.6 32.6-9.6 3.9 1.2 14.9 5.2 13 .2 10.7-3 8.3-7.1-8.3 5.9-10.6 2.8zM92.6 171l1.7-.1c-.3 1.8-.7 3.9-.6 4.1.1.3 1.1 5.2 1.5 7.2l-3.1-.4-6.2-2.8c.2-2.7.6-8.8.6-8.8l.6-1.3 5.5 2.1zm-8.5-3.2 2.2.9-.8 1.7-.4 8.4-2.1-.9-1.3-5.6 2.4-4.5zm63.6 44.7c0 .3-.2 4.1-.4 7.5h2.1l.3-5.9 4-13.7s6.6-7.9 8.8-10.3l-9.7 9.2s-5.1 12.7-5.1 13.2zm14.8-22.4.7-.6c-.1 0-.4.3-.7.6zm-47.9-25.3-.8-3.5h.3-.3l-1.1-4.4.8 4.4-11.4-1-7.6-1.7s7.1 2.9 7.6 2.9h1.9l1.3 5.4.2 7.1 1.4 6.7 1.3 4.7-.6-4.5s-1.1-6.1-1.3-6.6c-.2-.4-.6-7.4-.6-7.4l-1.8-5.5c2.8 0 7.7-.1 9.4-.1l.7 4 1.4 4.7-.8 5 1.3 5.4.7 2.7-.3-3.6-1.1-4.4 1-5.8-1.6-4.5z" fill="#ececec" stroke-width="none" opacity="1"></path></g><g id="svga-group-head" transform="matrix(1,0,0,1,0,0)"><g id="svga-group-ears-left-move" transform="matrix(1,0,0,1,0,0)"><g id="svga-group-ears-left"><path id="SvgjsPath12923" d="M64.1 91.8s-6-.7-10.6-3.7c0 0-3.5 9.4-4 14.4 0 0 6.7 13 10 18.5 0 0 5.2-.7 6.3-1.4l1.4-8.4-3.1-19.4z" fill="#fbd5c0" stroke-width="none" opacity="1" stroke="none"></path><path id="SvgjsPath12924" d="M54.3 90c-.2-.4-.8-1.9-.8-1.9 5.2.4 10.7 1.4 10.7 1.4l3 21.7-1.4 8.4c-1.1.7-6.3 1.4-6.3 1.4-.6-1-1.3-2.4-2.1-3.7l2.6 1 3-1.6s.7-11.2.5-11.5c-.1-.3-9-14.8-9.2-15.2z" fill="#ecb99d" stroke-width="none" opacity="1" stroke="none"></path><path id="SvgjsPath12925" d="m51.3 100.9 2.8-5.5 5.2 6.8 2.2 9.5-1.4 1.9-4.3-7.6 1-4.7-2.6-4z" fill="#dc9f7d" stroke-width="none" opacity="1" stroke="none"></path></g></g><g id="svga-group-ears-right-move" transform="matrix(1,0,0,1,0,0)"><g id="svga-group-ears-right"><path id="SvgjsPath12926" d="M135.9 91.8s6-.7 10.6-3.7c0 0 3.5 9.4 4 14.4 0 0-6.7 13-10 18.5 0 0-5.2-.7-6.3-1.4l-1.4-8.4 3.1-19.4z" fill="#fbd5c0" stroke-width="none" opacity="1" stroke="none"></path><path id="SvgjsPath12927" d="M145.7 90c.2-.4.8-1.9.8-1.9-5.2.4-10.7 1.4-10.7 1.4l-3 21.73 1.4 8.37c1.1.7 6.3 1.4 6.3 1.4.6-1 1.3-2.4 2.1-3.7l-2.6 1-3-1.6s-.7-11.2-.5-11.5c.1-.3 9-14.8 9.2-15.2z" fill="#ecb99d" stroke-width="none" opacity="1" stroke="none"></path><path id="SvgjsPath12928" d="m148.7 100.9-2.8-5.5-5.2 6.8-2.2 9.5 1.4 1.9 4.3-7.6-1-4.7 2.6-4z" fill="#dc9f7d" stroke-width="none" opacity="1" stroke="none"></path></g></g><g id="svga-group-faceshape-wrap"><g id="svga-group-faceshape-single"><path id="SvgjsPath13583" d="M142 85c-.2-9.9-5.2-23.9-5.2-23.9-6.7-11.2-19-18.9-19-18.9-7-1.5-17.8-2.2-17.8-2.2s-10.8.8-17.8 2.2c0 0-12.4 7.6-19 18.9 0 0-5 14-5.2 23.9-.2 3.5 2.6 27.1 2.6 27.1 1.3 6.9 11.3 22.5 11.3 22.5l19.3 14.5 3.1 4.7 5.7-.6 5.7.6 3.1-4.7 19.3-14.5s10-15.6 11.3-22.5c0 0 2.8-23.6 2.6-27.1z" fill="#fbd5c0" stroke-width="none" opacity="1"></path><path id="SvgjsPath13584" d="M99.7 149.3v-3l2.3-.7z" fill="#f3c7ae" stroke-width="none" opacity="1"></path><path id="SvgjsPath13585" d="m83.2 44.4 16.8-3 17.8.8c-7-1.5-17.8-2.2-17.8-2.2s-10.8.8-17.8 2.2c0 0-12.4 7.6-19 18.9 0 0-5 14-5.2 23.9-.2 3.5 2.6 27.1 2.6 27.1 1.3 6.9 11.3 22.5 11.3 22.5l19.3 14.5 3.1 4.7 5.7-.6 5.7.6 3.1-4.7-3.8 3.7-5.1-.5-4.8.2-3-5.1-18.2-15-9.7-20.5c-1.4-5.3-2.8-27.7-2.8-27.7.5-6.7 4.6-21.9 4.6-21.9 2.5-4.1 17.2-17.9 17.2-17.9z" fill="#dc9f7d" stroke-width="none" opacity="1"></path></g></g><g id="svga-group-mouth-single-move" transform="matrix(1,0,0,1,0,0)"><g id="svga-group-mouth-single"><path id="SvgjsPath12908" d="m87.06 129.72 8.35 5.42 10.61.06 7.84-5.34-12.92-.14-8.99-.19z" fill="#da7c87" stroke-width="none" opacity="1" transform="translate(0 3)" stroke="none"></path><path id="SvgjsPath12909" d="m85.79 129.82 10.42.48 4.25 2.03 3.67-2.22 11.01-.15-11.22-2.66-3.72 1.74-4.26-1.59z" fill="#cb5f6c" stroke-width="none" opacity="1" transform="translate(0 3)" stroke="none"></path><path id="SvgjsPath12910" d="m111.64 130.62-5.86 4.08-4.6.03 4.43-.38z" fill="#f9bfc6" stroke-width="none" opacity="1" transform="translate(0 3)" stroke="none"></path><path id="SvgjsPath12911" d="M100.51 129.4s3.35-1.68 3.47-1.68 5.44 1.41 5.44 1.41l-5.4-1.03-3.51 1.3z" fill="#e28c96" stroke-width="none" opacity="1" transform="translate(0 3)" stroke="none"></path></g></g><g id="svga-group-eyes-left-move" transform="matrix(1,0,0,1,0,0)"><g id="svga-group-eyes-left"><g id="svga-group-eyesback-left"><path id="SvgjsPath13033" d="m91.9 100.1-5.1-4.5-8.8.1-6.8 3.8s5.7 4.2 7 4.8l8.6-.4 5.1-3.8z" fill="#ffffff" stroke-width="none" opacity="1"></path></g><g id="svga-group-eyesiriswrapper-left" transform="matrix(1,0,0,1,0,0)"><g id="svga-group-eyesiriscontrol-left" transform="matrix(1,0,0,1,0,0)"><g id="svga-group-eyesiris-left"><path id="SvgjsPath12989" d="m77.8 102.6-.9-5 3.9-3.2 4.7 1.7.8 5-3.8 3.2z" fill="#86a498" stroke-width="none" opacity="1"></path><path id="SvgjsPath12990" d="m80.8 94.7 4.5 1.6.8 4.7-3.6 3-4.5-1.6-.8-4.7 3.6-3m-.1-.6-4.1 3.4.9 5.2 5 1.8 4.1-3.4-.9-5.2-5-1.8z" fill="#528571" stroke-width="none" opacity="1"></path><path id="SvgjsPath12991" d="m78.9 100.2.6-2.8 2.7-.8 2.1 1.9-.5 2.7-2.7.9z" fill="#000000" stroke-width="none" opacity="1"></path><path id="SvgjsPath12992" d="M79.9 97h1.6v1.6h-1.6V97zm2.1 4h.9v.9H82v-.9z" fill="#ffffff" stroke-width="none" opacity="1"></path></g></g></g><g id="svga-group-eyesfront-left"><path id="SvgjsPath13041" d="M67.97 94.46v11.11l7.69 7.86h10.87l7.69-7.86V94.46l-7.69-7.86H75.66l-7.69 7.86zm3.25 4.89 6.84-3.78 8.83-.05 5.05 4.54-5.05 3.78-8.62.36c-1.34-.66-7.05-4.85-7.05-4.85z" fill="#fbd5c0" stroke-width="none" opacity="1" stroke="none"></path><path id="SvgjsPath13042" d="m91.94 100.07-5.06-4.54-8.82.05-6.84 3.77-1.53.02-1.72-.76 3.63-.89 6.18-3.06 9.49.07 4.08 3.94z" fill="#dc9f7d" stroke-width="none" opacity="1" stroke="none"></path><path id="SvgjsPath13043" d="m72.17 100.51-1.61-1.16-1.86-1.34 2.64.92 1.57-.84a24 24 0 0 0-.61-.22l-1.15-1.38 1.95.99.63.16 1.62-.87-.64-.36-.73-1.15 1.38.99.6.19 1.37-.74-.55-.33-.46-.77.84.65.6.21.09-.05 9.11-.19 4.98 4.83-5.24-4.2h-8.66l-6.38 3.66 6.6 4.67 8.52-.52 3.96-2.69-3.77 3.08-8.76.39-.54-.35-.81.76.21-.42.39-.47-1-.65-.45.32-.71.54.35-.52.6-.49-.99-.64-.85.48-.89.64.66-.79.75-.53-1.12-.73-1.01.47-.85.5.58-.71.89-.5-.86-.56-.04-.03-.75.2-1.33.6.89-.71.84-.34z" fill="#000000" stroke-width="none" opacity="1" stroke="none"></path></g></g></g><g id="svga-group-eyes-right-move" transform="matrix(1,0,0,1,0,0)"><g id="svga-group-eyes-right"><g id="svga-group-eyesback-right"><path id="SvgjsPath13034" d="m108.1 100.1 5.1-4.5 8.8.1 6.8 3.8s-5.7 4.2-7 4.8l-8.6-.4-5.1-3.8z" fill="#ffffff" stroke-width="none" opacity="1"></path></g><g id="svga-group-eyesiriswrapper-right" transform="matrix(1,0,0,1,0,0)"><g id="svga-group-eyesiriscontrol-right" transform="matrix(1,0,0,1,0,0)"><g id="svga-group-eyesiris-right"><path id="SvgjsPath12993" d="m114.5 102.6-.8-5 3.8-3.2 4.7 1.7.9 5-3.9 3.2z" fill="#86a498" stroke-width="none" opacity="1"></path><path id="SvgjsPath12994" d="m117.5 94.7 4.5 1.6.8 4.7-3.6 3-4.5-1.6-.8-4.7 3.6-3m-.1-.6-4.1 3.4.9 5.2 5 1.8 4.1-3.4-.9-5.2-5-1.8z" fill="#528571" stroke-width="none" opacity="1"></path><path id="SvgjsPath12995" d="m115.7 100.2.5-2.8 2.7-.8 2.2 1.9-.6 2.7-2.7.9z" fill="#000000" stroke-width="none" opacity="1"></path><path id="SvgjsPath12996" d="M116.6 97h1.6v1.6h-1.6V97zm2.1 4h.9v.9h-.9v-.9z" fill="#ffffff" stroke-width="none" opacity="1"></path></g></g></g><g id="svga-group-eyesfront-right"><path id="SvgjsPath13044" d="M124.34 86.6h-10.87l-7.69 7.86v11.11l7.69 7.86h10.87l7.69-7.86V94.46l-7.69-7.86zm-2.6 17.6-8.62-.36-5.05-3.78 5.05-4.54 8.83.05 6.84 3.78c-.01 0-5.72 4.19-7.05 4.85z" fill="#fbd5c0" stroke-width="none" opacity="1" stroke="none"></path><path id="SvgjsPath13047" d="m108.06 100.07 5.06-4.54 8.82.05 6.84 3.77 1.53.02 1.72-.76-3.63-.89-6.18-3.06-9.49.07-4.08 3.94z" fill="#dc9f7d" stroke-width="none" opacity="1" stroke="none"></path><path id="SvgjsPath13048" d="m127.83 100.51 1.61-1.16 1.86-1.34-2.64.92-1.57-.84a24 24 0 0 1 .61-.22l1.15-1.38-1.95.99-.63.16-1.62-.87.64-.36.73-1.15-1.38.99-.6.19-1.37-.74.55-.33.46-.77-.84.65-.6.21-.09-.05-9.11-.19-4.98 4.83 5.24-4.2h8.66l6.38 3.66-6.6 4.67-8.52-.52-3.96-2.69 3.77 3.08 8.76.39.54-.35.81.76-.21-.42-.39-.47 1-.65.45.32.71.54-.35-.52-.6-.49.99-.64.86.46.89.64-.66-.79-.75-.53 1.12-.73 1.01.47.85.5-.58-.71-.89-.5.86-.56.04-.03.75.2 1.33.6-.89-.71-.85-.32z" fill="#000000" stroke-width="none" opacity="1" stroke="none"></path></g></g></g><g id="svga-group-facehighlight-single"></g><g id="svga-group-eyebrows-left-move" transform="matrix(1,0,0,1,0,1)"><g id="svga-group-eyebrows-left-rotate" transform="matrix(1,1.7453292519943295e-9,-1.7453292519943295e-9,1,1.531526407916317e-7,-1.3892820049932197e-7)"><g id="svga-group-eyebrows-left"><path id="SvgjsPath13089" d="m91.7 88.1.1 1.9-1.7 1.7-1.8-.7s-5.5-2.8-5.8-2.8S76 88 76 88l-7.3 2.9-1.3-1.1 6.1-5.1 6.6-.9 7.9 2.1 3.7 2.2z" fill="#543c32" stroke-width="none" opacity="1"></path><path id="SvgjsPath13090" d="m80.1 83.8 1 .3 1.7 3.6-3-3.8.3-.1zm-10.8 4.4 4.1-.6-5.5 1.8 1.4-1.2zm20.3 2.1 1-2.9.9.5-1.9 2.4zm-.4-3.8-.6 3-.4-3.6 1 .6zM73.1 85l2.3.5-3.2.2.9-.7zm4-.8 2 2-3.1-1.9 1.1-.1z" fill="#634e45" stroke-width="none" opacity="1"></path></g></g></g><g id="svga-group-eyebrows-right-move" transform="matrix(1,0,0,1,0,1)"><g id="svga-group-eyebrows-right-rotate" transform="matrix(1,1.7453292519943295e-9,-1.7453292519943295e-9,1,1.531526407916317e-7,-2.1022492546762805e-7)"><g id="svga-group-eyebrows-right"><path id="SvgjsPath13091" d="m108.3 88.1-.1 1.9 1.7 1.7 1.8-.7s5.5-2.8 5.8-2.8 6.5-.2 6.5-.2l7.4 2.9 1.3-1.1-6.1-5.1-6.6-.9-7.9 2.1-3.8 2.2z" fill="#543c32" stroke-width="none" opacity="1"></path><path id="SvgjsPath13092" d="m119.9 83.8-1 .3-1.7 3.6 3-3.8-.3-.1zm10.8 4.4-4.1-.6 5.5 1.8-1.4-1.2zm-20.3 2.1-1-2.9-.9.5 1.9 2.4zm.4-3.8.6 3 .4-3.6-1 .6zm16.1-1.5-2.3.5 3.2.2-.9-.7zm-4-.8-2 2 3.2-1.8-1.2-.2z" fill="#634e45" stroke-width="none" opacity="1"></path></g></g></g><g id="svga-group-nose-single-move" transform="matrix(1,0,0,1,0,0)"><g id="svga-group-nose-single"><path id="SvgjsPath13077" d="m105.55 110.57 3.31 6.99-1.46 2.7-2.53-.2.19-.4 2.63-.9-3.21.2-2.53 3.5H98.06l-2.52-3.5-3.21-.2 2.62.9.2.4-2.53.2-1.46-2.7 3.31-6.99-4.09 7.09 1.95 3.5 3.69-.5 1.85 2.5h4.28l1.84-2.5 3.7.5 1.94-3.5z" fill="#dc9f7d" stroke-width="none" opacity="1" transform="translate(0 2)" stroke="none"></path><path id="SvgjsPath13078" d="m93.56 113.36 2.55 4.19 6.9.11-6.96.45z" fill="#dc9f7d" stroke-width="none" opacity="1" transform="translate(0 2)" stroke="none"></path><path id="SvgjsPath13079" d="m95.6 111.94 1.93 4.42 5.56.17 1.51-4.81z" fill="#ffe1d0" stroke-width="none" opacity="1" transform="translate(0 2)" stroke="none"></path></g></g><g id="svga-group-hair-front"><path id="SvgjsPath14132" d="m147.9 115.1-3.5-46.3-10.3-19.7-14.1-11-10.3-2.1-9.9 2.8-9.8-2.9L76.7 38 61.2 55.2l-7.6 25.2-1.8 49.7 2.9 30.6 2.1 2.7-2.8-26.1 4.4 26.9 8.5 2.9-4.5-25.2 6.6 25.3 8 1.3-7.1-37.5-3-45.2 10.2-29.5 9.1-3.4 14.9 5.1 13.6-5.3 9 5.4 8.9 27.4.4 41.2-2.6 42.3 3.2-1.6 5.1-15.9-2.7 16.2 5.3-2.6 1.4-22.6 1.3 22 5.1-5z" fill="#493e39" stroke-width="none" opacity="1"></path><path id="SvgjsPath14133" d="m81.3 49.2-6.9 6.4L65.6 85l3.2 29-2-28.1 10.1-29.5 9-3.5 14.9 5.1-7.1-4.2-12.4-4.6zm43.8 5.6-12.6-6.4-7 6.1-4.7 3.5 13.6-5.3 9 5.3 9 27.4.3 22.6 1.6-25.8-9.2-27.4zm-25.9-2.5-18.9-7.8L68.2 55l-5.5 31.5 4.4 57.9 3.7 19.1-5.1-20.2-5.3-58.6 6.4-31.3 13.8-10.8 18.6 9.7zm-.6-2.3 9.4-7.6 17.5 5 12.9 20.9 1.8 22.1-.5 46.7-1.2 12v-13.8l-.7-49.2-2.1-18.4-11.5-19.1L108 44l-9.4 6zM54.7 86.1l2.3 46 5.7 26.9-7.3-28.3-.7-44.6zm89.6 6.2 2.1 47.4-.4 18.4 2.1-19.3-3.8-46.5z" fill="#58514e" stroke-width="none" opacity="1"></path><path id="SvgjsPath14134" d="m99 53.4 9-8 16.3 4.1 11 19.1 2.5 17.5-3 50.1.7-51.5-2.5-16.1-11-17.9-13.6-3.2-9.4 5.9zm-3.7-.9-14-6.2-11.5 9.2-7.1 31 5.1 43-3.2-43.4L72.2 56l10.3-7.1 12.8 3.6z" fill="#413530" stroke-width="none" opacity="1"></path><path id="SvgjsPath14135" d="m98.1 44.9-17-5.1-12.2 9.4 12.9-7.6 16.3 3.3zm1.8-.7 10.1-5.5 13.6 4.8-13.8-2.3-9.9 3zm-.9-3.4-8.7-3-4.6.7L99 40.8zM59 71.3l-2.5 11 2.8 48L62 141l-.9-12.4-2.5-47.1.4-10.2zm81.9 9.2 1.6 31.7-.7 25.3 2.3-26.2-3.2-30.8z" fill="#514743" stroke-width="none" opacity="1"></path></g><g id="svga-group-glasses-single-move" transform="matrix(1,0,0,1,0,0)"><g id="svga-group-glasses-single"></g></g></g></g></g><rect id="svga-credit-rect" width="200" height="15" x="0" y="185" fill="#ecf0f1" opacity="0.5" style="display: none;"></rect><text id="svga-credit-text" font-family="Avenir Next, Roboto, Helvetica, Arial, sans-serif" font-size="10px" text-anchor="start" font-weight="400" size="10px" anchor="start" weight="400" fill="#333333" x="33.402061462402344" y="182.71133995056152" style="display: none;"><tspan id="SvgjsTspan12902" dy="13" x="33.402061462402344">Created on AvatarMaker.com</tspan></text></g><defs id="SvgjsDefs12854"></defs></svg>