<svg xmlns="http://www.w3.org/2000/svg" xmlns:xlink="http://www.w3.org/1999/xlink" width="500" zoomAndPan="magnify" viewBox="0 0 375 374.999991" height="500" preserveAspectRatio="xMidYMid meet" version="1.0"><defs><g/></defs><g fill="#ffffff" fill-opacity="1"><g transform="translate(67.980469, 251.296169)"><g><path d="M 0.71875 -72 C 2.664062 -70.054688 3.238281 -67.609375 3.238281 -63.503906 L 3.238281 -8.496094 C 3.238281 -4.390625 2.664062 -1.945312 0.71875 0 L 31.320312 0 C 45.433594 0 53.785156 -5.542969 53.785156 -26.929688 C 53.785156 -45.070312 44.785156 -72 22.824219 -72 Z M 27.71875 -67.894531 C 34.34375 -67.894531 34.921875 -49.753906 34.921875 -35.855469 C 34.921875 -14.6875 32.761719 -3.671875 27.289062 -3.671875 C 23.257812 -3.671875 21.960938 -8.929688 21.960938 -21.601562 C 21.960938 -22.753906 21.960938 -34.847656 21.960938 -36 C 21.960938 -37.152344 21.960938 -49.246094 21.960938 -50.398438 C 21.960938 -63.070312 23.257812 -67.894531 27.71875 -67.894531 Z M 27.71875 -67.894531 "/></g></g></g><g fill="#ffffff" fill-opacity="1"><g transform="translate(123.564442, 251.296169)"><g><path d="M 1.800781 -11.230469 C 1.800781 -4.320312 7.632812 1.078125 14.617188 1.078125 C 24.910156 1.078125 27 -5.617188 30.023438 -5.617188 C 31.105469 -5.617188 31.679688 -4.320312 31.894531 -3.097656 C 32.257812 -1.152344 33.480469 0 35.640625 0 L 53.28125 0 C 51.335938 -1.945312 50.761719 -4.390625 50.761719 -8.496094 L 50.761719 -29.878906 C 50.761719 -40.175781 42.984375 -51.480469 26.425781 -51.480469 C 18.792969 -51.480469 11.230469 -50.398438 6.335938 -45.71875 C 4.464844 -43.992188 4.894531 -41.398438 4.894531 -38.953125 L 4.894531 -34.992188 C 4.894531 -33.769531 5.976562 -32.6875 7.128906 -32.6875 C 11.59375 -32.6875 16.273438 -47.375 25.34375 -47.519531 C 30.671875 -47.59375 31.609375 -43.414062 31.609375 -40.246094 C 31.609375 -38.953125 31.105469 -37.511719 29.015625 -37.078125 C 15.480469 -34.273438 1.800781 -26.566406 1.800781 -11.230469 Z M 29.015625 -32.398438 C 30.960938 -32.398438 31.609375 -31.175781 31.609375 -27.9375 C 31.609375 -23.472656 31.679688 -20.808594 31.679688 -16.273438 C 31.679688 -11.59375 29.734375 -8.0625 25.847656 -8.0625 C 20.519531 -8.0625 19.007812 -12.960938 19.007812 -18 C 19.007812 -26.855469 24.335938 -32.398438 29.015625 -32.398438 Z M 29.015625 -32.398438 "/></g></g></g><g fill="#ffffff" fill-opacity="1"><g transform="translate(177.204419, 251.296169)"><g><path d="M 6.121094 -36 C 8.566406 -27.792969 9.792969 -23.902344 11.519531 -17.136719 C 13.390625 -9.863281 15.480469 0 21.382812 0 L 37.152344 0 C 39.167969 0 41.257812 0.0703125 42.769531 -4.320312 C 47.953125 -19.296875 54.144531 -35.28125 54.144531 -42.265625 C 54.144531 -46.945312 51.984375 -51.480469 46.296875 -51.480469 C 38.808594 -51.480469 29.59375 -46.222656 29.59375 -41.6875 C 29.59375 -38.015625 42.625 -39.527344 42.625 -21.167969 C 42.625 -13.105469 39.960938 -4.753906 37.441406 -4.753906 C 33.910156 -4.753906 29.59375 -23.542969 26.28125 -36 C 24.839844 -41.472656 23.472656 -46.367188 25.199219 -50.398438 L 0 -50.398438 C 3.023438 -47.734375 4.390625 -41.832031 6.121094 -36 Z M 6.121094 -36 "/></g></g></g><g fill="#ffffff" fill-opacity="1"><g transform="translate(233.148389, 251.296169)"><g><path d="M 0 -42.695312 C 0 -41.832031 0.863281 -41.761719 1.078125 -41.6875 C 3.816406 -40.753906 3.457031 -37.007812 3.457031 -36.144531 L 3.457031 -8.496094 C 3.457031 -4.390625 2.878906 -1.945312 0.9375 0 L 25.054688 0 C 23.113281 -1.945312 22.535156 -4.390625 22.535156 -8.496094 L 22.535156 -48.671875 C 22.535156 -50.113281 22.464844 -51.480469 20.375 -51.480469 C 16.128906 -51.480469 3.601562 -45 0.792969 -43.632812 C 0.648438 -43.558594 0 -43.414062 0 -42.695312 Z M 12.816406 -76.246094 C 6.480469 -76.246094 2.304688 -72.070312 2.304688 -65.734375 C 2.304688 -59.398438 6.480469 -55.222656 12.816406 -55.222656 C 19.152344 -55.222656 23.328125 -59.398438 23.328125 -65.734375 C 23.328125 -72.070312 19.152344 -76.246094 12.816406 -76.246094 Z M 12.816406 -76.246094 "/></g></g></g><g fill="#ffffff" fill-opacity="1"><g transform="translate(258.564376, 251.296169)"><g><path d="M 1.078125 -36 C 1.078125 -21.886719 16.273438 -17.28125 27.9375 -17.28125 C 33.40625 -17.28125 37.65625 -18.214844 40.320312 -18.214844 C 42.265625 -18.214844 43.34375 -17.710938 43.34375 -15.984375 C 43.34375 -12.238281 38.160156 -9.359375 33.191406 -9.359375 C 20.015625 -9.359375 12.671875 -18.863281 8.351562 -18.863281 C 5.398438 -18.863281 1.441406 -8.496094 1.441406 -5.398438 C 1.441406 -1.726562 15.769531 1.078125 25.632812 1.078125 C 33.769531 1.078125 47.230469 -3.023438 47.230469 -16.34375 C 47.230469 -30.238281 33.046875 -33.984375 20.304688 -36.214844 C 14.257812 -37.296875 9.433594 -38.734375 9.433594 -42.265625 C 9.433594 -45.863281 12.671875 -47.230469 15.191406 -47.230469 C 24.191406 -47.230469 31.105469 -33.046875 40.679688 -33.046875 C 43.273438 -33.046875 47.375 -38.015625 47.375 -42.839844 C 47.375 -47.015625 36.9375 -51.480469 24.265625 -51.480469 C 13.390625 -51.480469 1.078125 -48.023438 1.078125 -36 Z M 1.078125 -36 "/></g></g></g><g fill="#ffffff" fill-opacity="1"><g transform="translate(92.42578, 176.203803)"><g><path d="M 10.945312 1.078125 C 19.800781 1.078125 26.351562 -4.824219 26.351562 -17.0625 L 26.351562 -63.503906 C 26.351562 -67.609375 26.929688 -70.054688 28.871094 -72 L 4.753906 -72 C 6.695312 -70.054688 7.273438 -67.609375 7.273438 -63.503906 L 7.273438 -14.617188 C 7.273438 -12.527344 7.199219 -6.625 1.726562 -6.625 C 1.078125 -6.625 0.71875 -6.335938 0.71875 -5.398438 C 0.71875 -2.015625 5.257812 1.078125 10.945312 1.078125 Z M 10.945312 1.078125 "/></g></g></g><g fill="#ffffff" fill-opacity="1"><g transform="translate(122.017761, 176.203803)"><g><path d="M 1.800781 -11.230469 C 1.800781 -4.320312 7.632812 1.078125 14.617188 1.078125 C 24.910156 1.078125 27 -5.617188 30.023438 -5.617188 C 31.105469 -5.617188 31.679688 -4.320312 31.894531 -3.097656 C 32.257812 -1.152344 33.480469 0 35.640625 0 L 53.28125 0 C 51.335938 -1.945312 50.761719 -4.390625 50.761719 -8.496094 L 50.761719 -29.878906 C 50.761719 -40.175781 42.984375 -51.480469 26.425781 -51.480469 C 18.792969 -51.480469 11.230469 -50.398438 6.335938 -45.71875 C 4.464844 -43.992188 4.894531 -41.398438 4.894531 -38.953125 L 4.894531 -34.992188 C 4.894531 -33.769531 5.976562 -32.6875 7.128906 -32.6875 C 11.59375 -32.6875 16.273438 -47.375 25.34375 -47.519531 C 30.671875 -47.59375 31.609375 -43.414062 31.609375 -40.246094 C 31.609375 -38.953125 31.105469 -37.511719 29.015625 -37.078125 C 15.480469 -34.273438 1.800781 -26.566406 1.800781 -11.230469 Z M 29.015625 -32.398438 C 30.960938 -32.398438 31.609375 -31.175781 31.609375 -27.9375 C 31.609375 -23.472656 31.679688 -20.808594 31.679688 -16.273438 C 31.679688 -11.59375 29.734375 -8.0625 25.847656 -8.0625 C 20.519531 -8.0625 19.007812 -12.960938 19.007812 -18 C 19.007812 -26.855469 24.335938 -32.398438 29.015625 -32.398438 Z M 29.015625 -32.398438 "/></g></g></g><g fill="#ffffff" fill-opacity="1"><g transform="translate(175.657738, 176.203803)"><g><path d="M 22.175781 1.078125 C 25.921875 1.078125 30.3125 -0.144531 34.128906 -6.335938 C 34.632812 -7.128906 35.425781 -7.632812 35.425781 -6.625 L 35.425781 -5.902344 C 35.425781 -2.230469 36.289062 0 39.382812 0 L 57.023438 0 C 55.078125 -1.945312 54.503906 -4.390625 54.503906 -8.496094 L 54.503906 -70.273438 C 54.503906 -71.710938 54.433594 -73.078125 52.34375 -73.078125 C 48.097656 -73.078125 34.921875 -66.457031 32.039062 -65.230469 C 31.894531 -65.160156 31.246094 -65.015625 31.246094 -64.296875 C 31.246094 -63.433594 32.113281 -63.359375 32.328125 -63.289062 C 35.710938 -62.136719 35.425781 -58.609375 35.425781 -57.742188 L 35.425781 -47.664062 C 35.425781 -45.863281 34.558594 -45.792969 34.273438 -45.792969 C 32.832031 -45.792969 30.167969 -51.480469 22.175781 -51.480469 C 7.992188 -51.480469 1.800781 -37.152344 1.800781 -24.191406 C 1.800781 -10.222656 9.214844 1.078125 22.175781 1.078125 Z M 30.238281 -43.921875 C 34.703125 -43.921875 35.425781 -37.007812 35.425781 -33.335938 L 35.425781 -19.296875 C 35.425781 -15.335938 34.847656 -7.921875 29.089844 -7.921875 C 21.097656 -7.921875 20.808594 -17.855469 20.808594 -26.207031 C 20.808594 -34.054688 22.246094 -43.921875 30.238281 -43.921875 Z M 30.238281 -43.921875 "/></g></g></g><g fill="#ffffff" fill-opacity="1"><g transform="translate(233.041707, 176.203803)"><g><path d="M 1.800781 -23.832031 C 1.800781 -9.648438 14.328125 1.078125 28.152344 1.078125 C 41.976562 1.078125 48.097656 -8.710938 48.097656 -14.183594 C 48.097656 -15.40625 47.449219 -15.695312 46.945312 -15.695312 C 45.503906 -15.695312 44.425781 -11.953125 37.585938 -11.953125 C 29.304688 -11.953125 17.710938 -19.367188 17.710938 -21.960938 C 17.710938 -23.183594 18.648438 -23.113281 19.367188 -23.113281 C 32.039062 -23.113281 47.734375 -20.304688 47.734375 -32.257812 C 47.734375 -42.191406 40.464844 -51.480469 27.648438 -51.480469 C 10.800781 -51.480469 1.800781 -39.601562 1.800781 -23.832031 Z M 9.863281 -37.007812 C 9.863281 -41.113281 14.113281 -43.632812 18.144531 -43.632812 C 24.191406 -43.632812 32.832031 -39.457031 32.832031 -31.96875 C 32.832031 -27.144531 24.839844 -26.566406 18.070312 -26.566406 C 12.238281 -26.566406 9.863281 -31.894531 9.863281 -37.007812 Z M 9.863281 -37.007812 "/></g></g></g></svg>