<svg xmlns="http://www.w3.org/2000/svg" xmlns:xlink="http://www.w3.org/1999/xlink" width="500" zoomAndPan="magnify" viewBox="0 0 375 374.999991" height="500" preserveAspectRatio="xMidYMid meet" version="1.0"><defs><g/></defs><g fill="#ffffff" fill-opacity="1"><g transform="translate(2.627347, 208.33682)"><g><path d="M 37.488281 1.160156 C 48.105469 1.160156 56.898438 -1.660156 63.367188 -6.96875 C 69.007812 -11.613281 72.492188 -18.082031 72.492188 -26.375 L 72.492188 -92.894531 L 48.273438 -92.894531 L 48.273438 -12.605469 C 48.273438 -4.8125 43.460938 -0.664062 37.324219 -0.664062 C 31.351562 -0.664062 26.542969 -4.8125 26.542969 -12.605469 C 26.542969 -22.726562 33.507812 -24.550781 33.507812 -24.550781 C 33.507812 -28.699219 30.191406 -35.332031 23.390625 -35.332031 C 13.601562 -35.332031 8.292969 -28.199219 8.292969 -20.238281 C 8.292969 -8.292969 22.0625 1.160156 37.488281 1.160156 Z M 37.488281 1.160156 "/></g></g></g><g fill="#ffffff" fill-opacity="1"><g transform="translate(83.410362, 208.33682)"><g><path d="M 2.488281 0 L 4.3125 0 L 16.921875 -27.867188 L 52.253906 -27.867188 L 64.859375 0 L 92.398438 0 L 44.953125 -94.222656 Z M 17.75 -29.527344 L 34.671875 -66.6875 L 51.589844 -29.527344 Z M 17.75 -29.527344 "/></g></g></g><g fill="#ffffff" fill-opacity="1"><g transform="translate(178.293081, 208.33682)"><g><path d="M 8.292969 0 L 47.277344 0 C 74.480469 0 96.378906 -20.734375 96.378906 -46.449219 C 96.378906 -72.160156 74.480469 -92.894531 47.277344 -92.894531 L 8.292969 -92.894531 Z M 33.34375 -1.660156 L 33.34375 -91.238281 L 47.277344 -91.238281 C 65.191406 -91.238281 69.835938 -67.679688 69.835938 -46.449219 C 69.835938 -23.722656 65.855469 -1.660156 47.277344 -1.660156 Z M 33.34375 -1.660156 "/></g></g></g><g fill="#ffffff" fill-opacity="1"><g transform="translate(278.815699, 208.33682)"><g><path d="M 8.292969 0 L 82.445312 0 L 85.265625 -31.683594 L 83.605469 -31.683594 C 82.445312 -14.433594 64.199219 -1.660156 44.953125 -1.660156 L 33.34375 -1.660156 L 33.34375 -46.449219 L 35.664062 -46.449219 C 49.433594 -46.117188 58.390625 -38.816406 58.390625 -26.210938 L 60.382812 -26.210938 L 60.382812 -68.34375 L 58.390625 -68.34375 C 58.390625 -55.570312 49.433594 -48.273438 35.332031 -48.105469 L 33.34375 -48.105469 L 33.34375 -91.238281 L 44.953125 -91.238281 C 64.199219 -91.238281 77.632812 -79.292969 77.632812 -62.039062 L 79.292969 -62.039062 L 79.292969 -92.894531 L 8.292969 -92.894531 Z M 8.292969 0 "/></g></g></g></svg>