<svg xmlns="http://www.w3.org/2000/svg" xmlns:xlink="http://www.w3.org/1999/xlink" width="500" zoomAndPan="magnify" viewBox="0 0 375 374.999991" height="500" preserveAspectRatio="xMidYMid meet" version="1.0"><defs><g/></defs><g fill="#ffffff" fill-opacity="1"><g transform="translate(15.27695, 235.050779)"><g><path d="M 19.824219 1.957031 C 35.867188 1.957031 47.734375 -8.738281 47.734375 -30.910156 L 47.734375 -115.035156 C 47.734375 -122.46875 48.777344 -126.902344 52.300781 -130.425781 L 8.609375 -130.425781 C 12.128906 -126.902344 13.171875 -122.46875 13.171875 -115.035156 L 13.171875 -26.476562 C 13.171875 -22.695312 13.042969 -12 3.128906 -12 C 1.957031 -12 1.304688 -11.476562 1.304688 -9.78125 C 1.304688 -3.652344 9.519531 1.957031 19.824219 1.957031 Z M 19.824219 1.957031 "/></g></g></g><g fill="#ffffff" fill-opacity="1"><g transform="translate(68.881613, 235.050779)"><g><path d="M 3.261719 -20.347656 C 3.261719 -7.824219 13.824219 1.957031 26.476562 1.957031 C 45.128906 1.957031 48.910156 -10.171875 54.386719 -10.171875 C 56.34375 -10.171875 57.386719 -7.824219 57.777344 -5.609375 C 58.429688 -2.085938 60.648438 0 64.558594 0 L 96.515625 0 C 92.992188 -3.519531 91.949219 -7.957031 91.949219 -15.390625 L 91.949219 -54.125 C 91.949219 -72.777344 77.863281 -93.253906 47.867188 -93.253906 C 34.039062 -93.253906 20.347656 -91.296875 11.476562 -82.820312 C 8.085938 -79.691406 8.867188 -74.996094 8.867188 -70.558594 L 8.867188 -63.386719 C 8.867188 -61.167969 10.824219 -59.214844 12.910156 -59.214844 C 21 -59.214844 29.476562 -85.820312 45.910156 -86.082031 C 55.5625 -86.210938 57.257812 -78.644531 57.257812 -72.90625 C 57.257812 -70.558594 56.34375 -67.953125 52.5625 -67.167969 C 28.042969 -62.082031 3.261719 -48.125 3.261719 -20.347656 Z M 52.5625 -58.691406 C 56.082031 -58.691406 57.257812 -56.472656 57.257812 -50.605469 C 57.257812 -42.519531 57.386719 -37.691406 57.386719 -29.476562 C 57.386719 -21 53.867188 -14.609375 46.824219 -14.609375 C 37.171875 -14.609375 34.433594 -23.476562 34.433594 -32.605469 C 34.433594 -48.648438 44.082031 -58.691406 52.5625 -58.691406 Z M 52.5625 -58.691406 "/></g></g></g><g fill="#ffffff" fill-opacity="1"><g transform="translate(166.048234, 235.050779)"><g><path d="M 40.171875 1.957031 C 46.953125 1.957031 54.910156 -0.261719 61.820312 -11.476562 C 62.734375 -12.910156 64.167969 -13.824219 64.167969 -12 L 64.167969 -10.695312 C 64.167969 -4.042969 65.734375 0 71.34375 0 L 103.296875 0 C 99.773438 -3.519531 98.730469 -7.957031 98.730469 -15.390625 L 98.730469 -127.292969 C 98.730469 -129.902344 98.601562 -132.382812 94.820312 -132.382812 C 87.125 -132.382812 63.257812 -120.382812 58.039062 -118.164062 C 57.777344 -118.035156 56.605469 -117.773438 56.605469 -116.46875 C 56.605469 -114.90625 58.167969 -114.773438 58.5625 -114.644531 C 64.691406 -112.558594 64.167969 -106.164062 64.167969 -104.601562 L 64.167969 -86.339844 C 64.167969 -83.082031 62.605469 -82.949219 62.082031 -82.949219 C 59.472656 -82.949219 54.648438 -93.253906 40.171875 -93.253906 C 14.476562 -93.253906 3.261719 -67.300781 3.261719 -43.824219 C 3.261719 -18.519531 16.695312 1.957031 40.171875 1.957031 Z M 54.777344 -79.558594 C 62.863281 -79.558594 64.167969 -67.039062 64.167969 -60.386719 L 64.167969 -34.953125 C 64.167969 -27.78125 63.125 -14.347656 52.691406 -14.347656 C 38.214844 -14.347656 37.691406 -32.34375 37.691406 -47.476562 C 37.691406 -61.691406 40.300781 -79.558594 54.777344 -79.558594 Z M 54.777344 -79.558594 "/></g></g></g><g fill="#ffffff" fill-opacity="1"><g transform="translate(269.996943, 235.050779)"><g><path d="M 3.261719 -43.171875 C 3.261719 -17.476562 25.953125 1.957031 50.996094 1.957031 C 76.039062 1.957031 87.125 -15.78125 87.125 -25.695312 C 87.125 -27.910156 85.949219 -28.433594 85.039062 -28.433594 C 82.429688 -28.433594 80.472656 -21.652344 68.082031 -21.652344 C 53.082031 -21.652344 32.085938 -35.085938 32.085938 -39.78125 C 32.085938 -41.996094 33.78125 -41.867188 35.085938 -41.867188 C 58.039062 -41.867188 86.472656 -36.78125 86.472656 -58.429688 C 86.472656 -76.429688 73.300781 -93.253906 50.082031 -93.253906 C 19.5625 -93.253906 3.261719 -71.734375 3.261719 -43.171875 Z M 17.867188 -67.039062 C 17.867188 -74.472656 25.5625 -79.039062 32.867188 -79.039062 C 43.824219 -79.039062 59.472656 -71.472656 59.472656 -57.910156 C 59.472656 -49.171875 44.996094 -48.125 32.738281 -48.125 C 22.171875 -48.125 17.867188 -57.777344 17.867188 -67.039062 Z M 17.867188 -67.039062 "/></g></g></g></svg>