<svg xmlns="http://www.w3.org/2000/svg" xmlns:xlink="http://www.w3.org/1999/xlink" width="500" zoomAndPan="magnify" viewBox="0 0 375 374.999991" height="500" preserveAspectRatio="xMidYMid meet" version="1.0"><defs><g/></defs><g fill="#ffffff" fill-opacity="1"><g transform="translate(0.672063, 235.050779)"><g><path d="M 19.824219 1.957031 C 35.867188 1.957031 47.734375 -8.738281 47.734375 -30.910156 L 47.734375 -115.035156 C 47.734375 -122.46875 48.777344 -126.902344 52.300781 -130.425781 L 8.609375 -130.425781 C 12.128906 -126.902344 13.171875 -122.46875 13.171875 -115.035156 L 13.171875 -26.476562 C 13.171875 -22.695312 13.042969 -12 3.128906 -12 C 1.957031 -12 1.304688 -11.476562 1.304688 -9.78125 C 1.304688 -3.652344 9.519531 1.957031 19.824219 1.957031 Z M 19.824219 1.957031 "/></g></g></g><g fill="#ffffff" fill-opacity="1"><g transform="translate(54.276725, 235.050779)"><g><path d="M 0 0 L 44.082031 0 C 51.777344 0 53.605469 -7.695312 53.605469 -13.824219 C 53.605469 -24.648438 49.171875 -35.34375 44.605469 -46.300781 L 63.777344 -46.300781 C 66.386719 -31.433594 68.082031 -18.519531 68.082031 -14.214844 C 68.082031 -8.867188 66.386719 -3.390625 63.386719 0 L 117.253906 0 C 111.90625 -4.433594 109.035156 -14.476562 105.773438 -25.300781 C 95.210938 -60.648438 91.167969 -80.992188 84.644531 -117.253906 C 83.734375 -122.339844 84.644531 -127.6875 87.515625 -130.425781 L 29.738281 -130.425781 C 32.605469 -127.6875 33.519531 -122.339844 32.605469 -117.253906 C 26.085938 -80.992188 22.042969 -60.648438 11.476562 -25.300781 C 8.214844 -14.476562 5.347656 -4.433594 0 0 Z M 42.128906 -52.171875 C 37.953125 -62.472656 34.171875 -73.167969 34.171875 -84.644531 C 34.171875 -95.078125 36.386719 -104.863281 43.171875 -104.863281 C 50.472656 -104.863281 57.777344 -77.210938 62.605469 -52.171875 Z M 42.128906 -52.171875 "/></g></g></g><g fill="#ffffff" fill-opacity="1"><g transform="translate(171.528777, 235.050779)"><g><path d="M 1.304688 -130.425781 C 4.824219 -126.902344 5.867188 -122.46875 5.867188 -115.035156 L 5.867188 -15.390625 C 5.867188 -7.957031 4.824219 -3.519531 1.304688 0 L 56.734375 0 C 82.296875 0 97.425781 -10.042969 97.425781 -48.777344 C 97.425781 -81.644531 81.125 -130.425781 41.34375 -130.425781 Z M 50.214844 -122.992188 C 62.210938 -122.992188 63.257812 -90.125 63.257812 -64.953125 C 63.257812 -26.605469 59.34375 -6.652344 49.429688 -6.652344 C 42.128906 -6.652344 39.78125 -16.171875 39.78125 -39.128906 C 39.78125 -41.214844 39.78125 -63.125 39.78125 -65.210938 C 39.78125 -67.300781 39.78125 -89.210938 39.78125 -91.296875 C 39.78125 -114.253906 42.128906 -122.992188 50.214844 -122.992188 Z M 50.214844 -122.992188 "/></g></g></g><g fill="#ffffff" fill-opacity="1"><g transform="translate(272.216868, 235.050779)"><g><path d="M 3.261719 -65.210938 C 3.261719 -20.214844 26.867188 1.957031 56.082031 1.957031 C 83.863281 1.957031 99.515625 -23.085938 99.515625 -40.824219 C 99.515625 -46.824219 97.820312 -47.867188 96.253906 -47.867188 C 89.863281 -47.867188 89.210938 -28.5625 66.386719 -28.5625 C 48.257812 -28.5625 30.390625 -45.386719 22.5625 -69.386719 C 21.78125 -71.996094 21.128906 -76.691406 25.300781 -76.691406 C 36.128906 -76.691406 44.996094 -53.082031 64.300781 -53.082031 C 80.34375 -53.082031 86.601562 -66.257812 86.601562 -74.996094 C 86.601562 -79.167969 85.429688 -82.429688 83.339844 -82.429688 C 81.125 -82.429688 79.820312 -77.34375 73.820312 -77.34375 C 63.648438 -77.34375 52.171875 -88.035156 39.257812 -88.035156 C 27.648438 -88.035156 24.648438 -81.253906 20.738281 -81.253906 C 17.214844 -81.253906 18.257812 -93.644531 18.257812 -96.125 C 18.257812 -100.949219 20.214844 -111.90625 28.953125 -111.90625 C 45.910156 -111.90625 54.386719 -96.253906 77.601562 -96.253906 C 86.992188 -96.253906 93.253906 -107.339844 95.863281 -113.46875 C 99.515625 -121.949219 101.339844 -132.382812 96.253906 -132.382812 C 92.210938 -132.382812 89.601562 -127.164062 80.601562 -127.164062 C 68.734375 -127.164062 60.777344 -132.382812 50.605469 -132.382812 C 18.519531 -132.382812 3.261719 -97.558594 3.261719 -65.210938 Z M 3.261719 -65.210938 "/></g></g></g></svg>