<svg xmlns="http://www.w3.org/2000/svg" xmlns:xlink="http://www.w3.org/1999/xlink" width="1080" zoomAndPan="magnify" viewBox="0 0 810 809.999993" height="1080" preserveAspectRatio="xMidYMid meet" version="1.0"><defs><g/></defs><path stroke-linecap="butt" transform="matrix(1.017088, 0, 0, 1.017088, 80.999999, 196.497008)" fill="none" stroke-linejoin="miter" d="M 172.321064 96.68294 L 96.75297 96.68294 C 82.369838 96.970987 74.139383 108.346911 74.139383 119.227396 C 74.139383 128.886562 80.580108 137.973476 95.535493 137.973476 L 126.306563 137.973476 L 80.007855 274.016016 C 72.134578 296.844678 60.397635 304.214834 46.586755 304.214834 C 41.00633 304.214834 36.927589 298.062156 36.927589 295.412126 C 37.211795 294.194649 37.211795 292.765937 37.211795 291.54846 C 37.211795 280.168694 26.408123 273.086586 15.527639 273.086586 C 4.723967 273.086586 -6.440724 280.168694 -6.440724 297.128884 C -6.440724 324.10926 18.749921 345.505369 51.022674 345.505369 C 75.641067 345.505369 108.489913 331.767461 124.017551 286.897465 L 186.419991 105.128469 C 187.921674 101.049728 185.275485 96.68294 180.551519 96.68294 Z M 334.729481 242.9569 C 326.499026 242.9569 317.481244 247.895941 313.905624 259.060631 C 302.525859 295.12792 284.063985 307.149069 270.825358 307.149069 C 265.886317 307.149069 262.952081 304.50288 262.952081 299.778914 C 262.952081 297.416931 263.524334 294.482695 264.384634 291.260413 L 297.22964 196.297173 C 298.374145 192.790685 298.946398 189.572243 298.946398 186.638007 C 298.946398 173.756558 288.426932 167.027787 277.550289 167.027787 C 269.392806 167.027787 260.878145 170.822322 256.154179 178.123346 C 249.997661 174.328811 238.621736 169.962023 223.66251 169.962023 C 204.271206 169.962023 183.232274 180.485329 175.286025 203.025945 L 147.737238 281.889293 C 145.947508 287.181671 144.803002 292.47789 144.803002 297.774109 C 144.803002 322.035323 164.409381 341.998881 190.245251 341.998881 C 203.983159 341.998881 218.082085 335.846203 228.958729 326.183196 C 238.333689 339.636898 259.088415 341.998881 267.891122 341.998881 C 292.221468 341.998881 324.782268 329.689685 343.532188 282.173499 C 347.61093 270.793734 350.829372 263.423579 350.829372 258.200332 C 350.829372 248.180147 343.244142 242.9569 334.729481 242.9569 Z M 238.049483 240.022664 L 223.950557 283.675183 C 217.794038 302.71315 206.633189 307.149069 200.47667 307.149069 C 194.035946 307.149069 190.817504 302.997356 190.817504 296.272426 C 190.817504 292.47789 191.673963 288.971402 192.607234 286.325212 L 211.357155 227.35629 C 216.93758 209.539641 225.095062 207.177658 229.819028 207.177658 C 235.399453 207.177658 241.555972 212.758083 241.555972 222.705296 C 241.555972 227.072084 240.338494 232.652509 238.049483 240.022664 Z M 491.265585 243.529153 C 483.319336 243.529153 475.161854 247.607894 472.515664 256.982854 C 459.346169 292.193684 443.461353 307.149069 430.291857 307.149069 C 424.423386 307.149069 421.204944 302.997356 421.204944 298.346362 C 421.204944 296.556632 421.492991 294.839873 422.706627 291.260413 L 482.462878 118.655143 C 483.680355 115.148654 485.109067 110.136641 485.109067 106.9182 C 485.109067 94.320957 474.877647 87.596026 464.573257 87.596026 C 455.482502 87.596026 447.040813 94.320957 441.744595 109.564389 L 415.052266 185.205455 C 406.249559 175.473317 393.36811 169.962023 379.55723 169.962023 C 360.519263 169.962023 340.052584 180.485329 332.110176 202.737898 L 304.273342 281.889293 C 302.195565 287.469718 301.339106 293.33819 301.339106 298.634409 C 301.339106 324.397306 322.162963 341.998881 347.353608 341.998881 C 361.091516 341.998881 376.334948 337.278755 388.071891 325.89899 C 397.158804 335.846203 411.257731 341.998881 425.92891 341.998881 C 454.91025 341.998881 488.331349 321.175024 508.0107 263.711625 C 508.582953 261.70682 509.155206 259.632884 509.155206 257.843154 C 509.155206 248.7524 500.352499 243.529153 491.265585 243.529153 Z M 353.794332 296.844678 C 348.210067 295.412126 346.781355 290.976207 346.781355 286.325212 C 346.781355 282.530677 347.637814 278.955057 348.498114 276.305028 L 365.243229 227.35629 C 371.111701 210.111894 378.981137 207.177658 383.705103 207.177658 C 389.289368 207.177658 395.442046 212.758083 395.442046 222.705296 C 395.442046 227.072084 394.512615 232.652509 391.935557 240.022664 L 379.914408 273.72797 C 371.111701 295.412126 359.374757 298.062156 353.794332 296.844678 Z M 610.597576 259.344837 C 597.646996 293.33819 566.872085 307.149069 541.969487 307.149069 C 520.573378 307.149069 507.119676 296.844678 507.119676 283.390977 C 507.119676 280.740947 507.403882 278.094758 508.552228 275.160522 L 510.910371 269.580097 C 519.428872 274.872475 529.948338 278.382805 541.685281 278.382805 C 568.37761 278.382805 591.778524 261.70682 599.720932 235.298698 C 601.222616 229.718273 602.082915 224.137848 602.082915 219.198807 C 602.082915 191.361973 580.114553 169.962023 546.977659 169.962023 C 520.857584 169.962023 495.382733 185.205455 485.078342 214.474841 L 467.830105 264.641056 C 465.468122 271.654033 464.03941 278.667011 464.03941 285.395782 C 464.03941 320.314724 496.815285 341.998881 539.607504 341.998881 C 580.398759 341.998881 626.701307 322.035323 646.023481 266.073608 C 646.87994 263.711625 647.237118 261.70682 647.237118 259.91709 C 647.237118 250.830177 639.010504 245.891136 630.207796 245.891136 C 621.977341 245.891136 613.174634 250.257924 610.597576 259.344837 Z M 546.048229 204.527628 C 554.278683 204.527628 559.574902 211.256399 559.574902 219.77106 C 559.574902 222.133043 559.286855 224.495026 558.357425 226.784037 C 555.496161 236.447044 546.693453 240.022664 537.890746 240.022664 C 532.310321 240.022664 526.726055 238.805187 522.647314 236.447044 L 528.803832 218.91076 C 532.022274 209.823847 539.323298 204.527628 546.048229 204.527628 Z M 546.048229 204.527628 " stroke="#ffaed5" stroke-width="76.945313" stroke-opacity="1" stroke-miterlimit="4"/><g fill="#fff5f5" fill-opacity="1"><g transform="translate(80.999999, 544.340982)"><g><path d="M 175.300781 -249.535156 L 98.382812 -249.535156 C 83.773438 -249.234375 75.425781 -237.609375 75.425781 -226.578125 C 75.425781 -216.738281 81.984375 -207.496094 97.191406 -207.496094 L 128.492188 -207.496094 L 81.390625 -69.164062 C 73.339844 -45.910156 61.414062 -38.457031 47.402344 -38.457031 C 41.738281 -38.457031 37.5625 -44.71875 37.5625 -47.402344 C 37.863281 -48.59375 37.863281 -50.085938 37.863281 -51.277344 C 37.863281 -62.90625 26.832031 -70.058594 15.800781 -70.058594 C 4.769531 -70.058594 -6.558594 -62.90625 -6.558594 -45.613281 C -6.558594 -18.1875 19.082031 3.578125 51.875 3.578125 C 76.917969 3.578125 110.308594 -10.433594 126.109375 -56.046875 L 189.609375 -240.886719 C 191.101562 -245.0625 188.417969 -249.535156 183.648438 -249.535156 Z M 175.300781 -249.535156 "/></g></g></g><g fill="#fff5f5" fill-opacity="1"><g transform="translate(234.536034, 544.340982)"><g><path d="M 186.925781 -100.765625 C 178.578125 -100.765625 169.335938 -95.699219 165.757812 -84.371094 C 154.132812 -47.699219 135.351562 -35.476562 121.933594 -35.476562 C 116.867188 -35.476562 113.886719 -38.160156 113.886719 -42.929688 C 113.886719 -45.316406 114.480469 -48.296875 115.375 -51.578125 L 148.765625 -148.171875 C 149.957031 -151.746094 150.554688 -155.027344 150.554688 -158.007812 C 150.554688 -171.125 139.824219 -177.984375 128.792969 -177.984375 C 120.445312 -177.984375 111.796875 -174.105469 107.027344 -166.652344 C 100.765625 -170.53125 89.140625 -175 73.9375 -175 C 54.257812 -175 32.792969 -164.269531 24.746094 -141.3125 L -3.28125 -61.117188 C -5.066406 -55.75 -6.261719 -50.382812 -6.261719 -45.015625 C -6.261719 -20.273438 13.714844 0 39.949219 0 C 53.960938 0 68.269531 -6.261719 79.300781 -16.097656 C 88.84375 -2.386719 110.007812 0 118.953125 0 C 143.699219 0 176.789062 -12.519531 195.871094 -60.816406 C 200.042969 -72.445312 203.324219 -79.898438 203.324219 -85.265625 C 203.324219 -95.402344 195.574219 -100.765625 186.925781 -100.765625 Z M 88.542969 -103.75 L 74.234375 -59.328125 C 67.972656 -39.949219 56.644531 -35.476562 50.382812 -35.476562 C 43.824219 -35.476562 40.546875 -39.652344 40.546875 -46.507812 C 40.546875 -50.382812 41.441406 -53.960938 42.335938 -56.644531 L 61.414062 -116.566406 C 67.078125 -134.753906 75.425781 -137.140625 80.195312 -137.140625 C 85.859375 -137.140625 92.121094 -131.476562 92.121094 -121.339844 C 92.121094 -116.867188 90.929688 -111.203125 88.542969 -103.75 Z M 88.542969 -103.75 "/></g></g></g><g fill="#fff5f5" fill-opacity="1"><g transform="translate(391.05337, 544.340982)"><g><path d="M 189.609375 -100.171875 C 181.558594 -100.171875 173.210938 -95.996094 170.53125 -86.457031 C 157.113281 -50.683594 141.015625 -35.476562 127.597656 -35.476562 C 121.636719 -35.476562 118.355469 -39.652344 118.355469 -44.421875 C 118.355469 -46.210938 118.65625 -48 119.847656 -51.578125 L 180.667969 -227.175781 C 181.859375 -230.75 183.347656 -235.820312 183.347656 -239.097656 C 183.347656 -251.917969 172.914062 -258.777344 162.480469 -258.777344 C 153.238281 -258.777344 144.59375 -251.917969 139.226562 -236.417969 L 112.097656 -159.5 C 103.152344 -169.335938 90.035156 -175 76.023438 -175 C 56.644531 -175 35.777344 -164.269531 27.726562 -141.609375 L -0.597656 -61.117188 C -2.683594 -55.453125 -3.578125 -49.488281 -3.578125 -44.125 C -3.578125 -17.886719 17.589844 0 43.230469 0 C 57.242188 0 72.742188 -4.769531 84.667969 -16.398438 C 93.910156 -6.261719 108.222656 0 123.128906 0 C 152.640625 0 186.628906 -21.167969 206.601562 -79.601562 C 207.199219 -81.6875 207.796875 -83.773438 207.796875 -85.5625 C 207.796875 -94.804688 198.851562 -100.171875 189.609375 -100.171875 Z M 49.789062 -45.910156 C 44.125 -47.402344 42.632812 -51.875 42.632812 -56.644531 C 42.632812 -60.519531 43.527344 -64.097656 44.421875 -66.78125 L 61.414062 -116.566406 C 67.378906 -134.15625 75.425781 -137.140625 80.195312 -137.140625 C 85.859375 -137.140625 92.121094 -131.476562 92.121094 -121.339844 C 92.121094 -116.867188 91.226562 -111.203125 88.542969 -103.75 L 76.320312 -69.464844 C 67.378906 -47.402344 55.453125 -44.71875 49.789062 -45.910156 Z M 49.789062 -45.910156 "/></g></g></g><g fill="#fff5f5" fill-opacity="1"><g transform="translate(551.148204, 544.340982)"><g><path d="M 150.851562 -84.074219 C 137.734375 -49.488281 106.433594 -35.476562 81.089844 -35.476562 C 59.328125 -35.476562 45.613281 -45.910156 45.613281 -59.625 C 45.613281 -62.308594 45.910156 -64.992188 47.105469 -67.972656 L 49.488281 -73.636719 C 58.136719 -68.269531 68.867188 -64.695312 80.792969 -64.695312 C 107.921875 -64.695312 131.773438 -81.6875 139.824219 -108.519531 C 141.3125 -114.183594 142.207031 -119.847656 142.207031 -124.914062 C 142.207031 -153.238281 119.847656 -175 86.160156 -175 C 59.625 -175 33.6875 -159.5 23.253906 -129.6875 L 5.664062 -78.707031 C 3.28125 -71.550781 1.789062 -64.394531 1.789062 -57.539062 C 1.789062 -22.0625 35.179688 0 78.707031 0 C 120.144531 0 167.25 -20.273438 186.925781 -77.214844 C 187.820312 -79.601562 188.121094 -81.6875 188.121094 -83.476562 C 188.121094 -92.71875 179.773438 -97.785156 170.828125 -97.785156 C 162.480469 -97.785156 153.535156 -93.3125 150.851562 -84.074219 Z M 85.265625 -139.824219 C 93.613281 -139.824219 98.980469 -132.964844 98.980469 -124.320312 C 98.980469 -121.933594 98.679688 -119.550781 97.785156 -117.164062 C 94.804688 -107.328125 85.859375 -103.75 76.917969 -103.75 C 71.253906 -103.75 65.589844 -104.941406 61.414062 -107.328125 L 67.675781 -125.214844 C 70.953125 -134.457031 78.40625 -139.824219 85.265625 -139.824219 Z M 85.265625 -139.824219 "/></g></g></g></svg>