<svg xmlns="http://www.w3.org/2000/svg" xmlns:xlink="http://www.w3.org/1999/xlink" width="1920" zoomAndPan="magnify" viewBox="0 0 1440 809.999993" height="1080" preserveAspectRatio="xMidYMid meet" version="1.0"><defs><clipPath id="649eab37a6"><path d="M 323.957031 161.882812 L 1116.238281 161.882812 L 1116.238281 686 L 323.957031 686 Z M 323.957031 161.882812 " clip-rule="nonzero"/></clipPath><clipPath id="98d8cf2c7c"><path d="M 362.207031 161.882812 L 1077.792969 161.882812 C 1087.933594 161.882812 1097.664062 165.910156 1104.835938 173.085938 C 1112.011719 180.257812 1116.042969 189.988281 1116.042969 200.132812 L 1116.042969 647.652344 C 1116.042969 657.796875 1112.011719 667.527344 1104.835938 674.699219 C 1097.664062 681.875 1087.933594 685.902344 1077.792969 685.902344 L 362.207031 685.902344 C 352.0625 685.902344 342.335938 681.875 335.160156 674.699219 C 327.988281 667.527344 323.957031 657.796875 323.957031 647.652344 L 323.957031 200.132812 C 323.957031 189.988281 327.988281 180.257812 335.160156 173.085938 C 342.335938 165.910156 352.0625 161.882812 362.207031 161.882812 " clip-rule="nonzero"/></clipPath><clipPath id="db3c6f89a2"><path d="M 505.902344 209.792969 L 934.152344 209.792969 L 934.152344 638.042969 L 505.902344 638.042969 Z M 505.902344 209.792969 " clip-rule="nonzero"/></clipPath></defs><g clip-path="url(#649eab37a6)"><g clip-path="url(#98d8cf2c7c)"><path fill="#fff5f5" d="M 323.957031 161.882812 L 1116.238281 161.882812 L 1116.238281 685.851562 L 323.957031 685.851562 Z M 323.957031 161.882812 " fill-opacity="1" fill-rule="nonzero"/></g></g><g clip-path="url(#db3c6f89a2)"><path fill="#fff5f5" d="M 853.855469 638.042969 L 586.199219 638.042969 C 541.847656 638.042969 505.902344 602.097656 505.902344 557.746094 L 505.902344 290.089844 C 505.902344 245.738281 541.847656 209.792969 586.199219 209.792969 L 853.855469 209.792969 C 898.203125 209.792969 934.152344 245.738281 934.152344 290.089844 L 934.152344 557.746094 C 934.152344 602.097656 898.203125 638.042969 853.855469 638.042969 Z M 853.855469 638.042969 " fill-opacity="1" fill-rule="nonzero"/><path fill="#fff5f5" d="M 853.855469 638.042969 L 586.199219 638.042969 C 541.847656 638.042969 505.902344 602.097656 505.902344 557.746094 L 505.902344 290.089844 C 505.902344 245.738281 541.847656 209.792969 586.199219 209.792969 L 853.855469 209.792969 C 898.203125 209.792969 934.152344 245.738281 934.152344 290.089844 L 934.152344 557.746094 C 934.152344 602.097656 898.203125 638.042969 853.855469 638.042969 Z M 853.855469 638.042969 " fill-opacity="1" fill-rule="nonzero"/></g><path fill="#d783b2" d="M 620.269531 504.214844 L 782.925781 504.214844 C 787.996094 504.214844 793.054688 500.09375 794.207031 495.007812 L 826.847656 352.828125 C 828.023438 347.742188 824.851562 343.621094 819.78125 343.621094 L 657.125 343.621094 C 652.054688 343.621094 646.996094 347.742188 645.84375 352.828125 L 613.203125 495.007812 C 612.027344 500.09375 615.199219 504.214844 620.269531 504.214844 Z M 759.71875 465.898438 C 764.28125 465.898438 767.976562 469.582031 768.003906 474.117188 C 767.976562 478.652344 764.28125 482.335938 759.71875 482.335938 C 759.707031 482.335938 759.679688 482.335938 759.664062 482.335938 L 720.121094 482.335938 C 715.515625 482.335938 711.78125 478.652344 711.78125 474.117188 C 711.808594 469.582031 715.503906 465.898438 720.066406 465.898438 C 720.078125 465.898438 720.105469 465.898438 720.121094 465.898438 L 759.664062 465.898438 C 759.679688 465.898438 759.707031 465.898438 759.71875 465.898438 Z M 655.867188 468.628906 L 722.074219 420.828125 L 722.074219 419.851562 L 680.480469 375.726562 C 677.09375 372.125 677.441406 366.320312 681.269531 362.730469 C 685.097656 359.144531 690.957031 359.160156 694.34375 362.773438 L 744.261719 415.714844 C 747.085938 418.726562 747.300781 423.261719 745.066406 426.769531 C 744.382812 428.132812 742.976562 429.644531 740.476562 431.398438 L 667.058594 483.964844 C 663.054688 486.871094 657.300781 485.800781 654.210938 481.558594 C 651.117188 477.316406 651.855469 471.535156 655.867188 468.628906 Z M 655.867188 468.628906 " fill-opacity="1" fill-rule="nonzero"/></svg>