<svg xmlns="http://www.w3.org/2000/svg" xmlns:xlink="http://www.w3.org/1999/xlink" width="1080" zoomAndPan="magnify" viewBox="0 0 810 809.999993" height="1080" preserveAspectRatio="xMidYMid meet" version="1.0"><defs><g/><clipPath id="fd13468bd2"><path d="M 291.773438 40.65625 L 421 40.65625 L 421 174 L 291.773438 174 Z M 291.773438 40.65625 " clip-rule="nonzero"/></clipPath><clipPath id="693fbc0680"><path d="M 348 92 L 476.585938 92 L 476.585938 225.46875 L 348 225.46875 Z M 348 92 " clip-rule="nonzero"/></clipPath></defs><g clip-path="url(#fd13468bd2)"><path fill="#ffaed5" d="M 382.167969 40.65625 C 347.214844 40.65625 339.984375 58.734375 339.984375 69.179688 L 339.984375 88.867188 L 380.160156 88.867188 L 380.160156 92.882812 L 320.296875 92.882812 C 307.039062 92.882812 291.773438 103.332031 291.773438 133.0625 C 291.773438 162.792969 307.039062 173.238281 320.296875 173.238281 L 344 173.238281 L 344 149.132812 C 344 140.292969 351.234375 133.0625 360.070312 133.0625 L 408.285156 133.0625 C 415.113281 133.0625 420.335938 127.839844 420.335938 121.007812 L 420.335938 69.179688 C 420.335938 55.117188 407.078125 40.65625 382.167969 40.65625 Z M 364.089844 76.8125 C 359.671875 76.8125 356.054688 73.199219 356.054688 68.777344 C 356.054688 64.359375 359.671875 60.742188 364.089844 60.742188 C 368.507812 60.742188 372.125 64.359375 372.125 68.777344 C 372.125 73.199219 368.507812 76.8125 364.089844 76.8125 Z M 364.089844 76.8125 " fill-opacity="1" fill-rule="nonzero"/></g><g clip-path="url(#693fbc0680)"><path fill="#ffaed5" d="M 386.1875 225.46875 C 421.140625 225.46875 428.371094 207.386719 428.371094 196.941406 L 428.371094 177.253906 L 388.195312 177.253906 L 388.195312 173.238281 L 448.058594 173.238281 C 461.316406 173.238281 476.585938 162.792969 476.585938 133.0625 C 476.585938 103.332031 461.316406 92.882812 448.058594 92.882812 L 424.355469 92.882812 L 424.355469 121.007812 C 424.355469 129.847656 417.121094 137.078125 408.285156 137.078125 L 360.070312 137.078125 C 353.242188 137.078125 348.019531 142.300781 348.019531 149.132812 L 348.019531 196.941406 C 348.019531 211.003906 361.277344 225.46875 386.1875 225.46875 Z M 404.265625 189.308594 C 408.6875 189.308594 412.300781 192.925781 412.300781 197.34375 C 412.300781 201.761719 408.6875 205.378906 404.265625 205.378906 C 399.847656 205.378906 396.230469 201.761719 396.230469 197.34375 C 396.230469 192.925781 399.847656 189.308594 404.265625 189.308594 Z M 404.265625 189.308594 " fill-opacity="1" fill-rule="nonzero"/></g><g fill="#ffaed5" fill-opacity="1"><g transform="translate(260.101868, 317.614534)"><g><path d="M 7.46875 0 L 7.46875 -49.40625 L 26.1875 -49.40625 C 29.226562 -49.40625 31.804688 -48.921875 33.921875 -47.953125 C 36.046875 -46.984375 37.644531 -45.601562 38.71875 -43.8125 C 39.789062 -42.019531 40.328125 -39.890625 40.328125 -37.421875 C 40.328125 -35.273438 39.742188 -33.332031 38.578125 -31.59375 C 37.421875 -29.863281 35.757812 -28.515625 33.59375 -27.546875 L 33.59375 -26.828125 C 36.882812 -26.023438 39.378906 -24.550781 41.078125 -22.40625 C 42.785156 -20.269531 43.640625 -17.578125 43.640625 -14.328125 C 43.640625 -9.734375 42.289062 -6.195312 39.59375 -3.71875 C 36.90625 -1.238281 32.910156 0 27.609375 0 Z M 25.921875 -28.65625 C 28.648438 -28.65625 30.769531 -29.367188 32.28125 -30.796875 C 33.789062 -32.234375 34.546875 -34.203125 34.546875 -36.703125 C 34.546875 -39.335938 33.816406 -41.3125 32.359375 -42.625 C 30.910156 -43.945312 28.765625 -44.609375 25.921875 -44.609375 L 13.28125 -44.609375 L 13.28125 -28.65625 Z M 27.171875 -4.796875 C 34.203125 -4.796875 37.71875 -7.972656 37.71875 -14.328125 C 37.71875 -20.679688 34.203125 -23.859375 27.171875 -23.859375 L 13.28125 -23.859375 L 13.28125 -4.796875 Z M 27.171875 -4.796875 "/></g></g></g><g fill="#ffaed5" fill-opacity="1"><g transform="translate(307.648108, 317.614534)"><g><path d="M 15.375 0.703125 C 11.707031 0.703125 8.84375 -0.25 6.78125 -2.15625 C 4.71875 -4.070312 3.6875 -6.8125 3.6875 -10.375 C 3.6875 -12.582031 4.140625 -14.445312 5.046875 -15.96875 C 5.960938 -17.488281 7.378906 -18.726562 9.296875 -19.6875 C 11.210938 -20.644531 13.710938 -21.382812 16.796875 -21.90625 C 19.503906 -22.351562 21.5625 -22.859375 22.96875 -23.421875 C 24.375 -23.984375 25.316406 -24.613281 25.796875 -25.3125 C 26.285156 -26.007812 26.53125 -26.890625 26.53125 -27.953125 C 26.53125 -29.640625 25.945312 -30.929688 24.78125 -31.828125 C 23.625 -32.734375 21.765625 -33.1875 19.203125 -33.1875 C 16.785156 -33.1875 14.710938 -32.71875 12.984375 -31.78125 C 11.265625 -30.851562 9.6875 -29.460938 8.25 -27.609375 L 7.578125 -27.609375 L 4.859375 -31.4375 C 6.441406 -33.4375 8.445312 -35.023438 10.875 -36.203125 C 13.3125 -37.390625 16.085938 -37.984375 19.203125 -37.984375 C 23.585938 -37.984375 26.820312 -37.019531 28.90625 -35.09375 C 31 -33.164062 32.046875 -30.503906 32.046875 -27.109375 L 32.046875 -7.328125 C 32.046875 -5.253906 32.921875 -4.21875 34.671875 -4.21875 C 35.265625 -4.21875 35.828125 -4.320312 36.359375 -4.53125 L 36.84375 -4.390625 L 37.484375 -0.578125 C 37.078125 -0.304688 36.539062 -0.0976562 35.875 0.046875 C 35.207031 0.191406 34.523438 0.265625 33.828125 0.265625 C 31.773438 0.265625 30.222656 -0.179688 29.171875 -1.078125 C 28.128906 -1.984375 27.460938 -3.3125 27.171875 -5.0625 L 26.46875 -5.140625 C 25.40625 -3.179688 23.972656 -1.71875 22.171875 -0.75 C 20.367188 0.21875 18.101562 0.703125 15.375 0.703125 Z M 16.59375 -3.6875 C 18.664062 -3.6875 20.460938 -4.164062 21.984375 -5.125 C 23.503906 -6.082031 24.671875 -7.425781 25.484375 -9.15625 C 26.296875 -10.894531 26.703125 -12.898438 26.703125 -15.171875 L 26.703125 -19.90625 L 26.0625 -20.046875 C 25.226562 -19.453125 24.210938 -18.957031 23.015625 -18.5625 C 21.816406 -18.175781 20.148438 -17.820312 18.015625 -17.5 C 15.847656 -17.207031 14.128906 -16.757812 12.859375 -16.15625 C 11.585938 -15.550781 10.679688 -14.78125 10.140625 -13.84375 C 9.597656 -12.90625 9.328125 -11.75 9.328125 -10.375 C 9.328125 -8.1875 9.96875 -6.523438 11.25 -5.390625 C 12.539062 -4.253906 14.320312 -3.6875 16.59375 -3.6875 Z M 16.59375 -3.6875 "/></g></g></g><g fill="#ffaed5" fill-opacity="1"><g transform="translate(346.205509, 317.614534)"><g><path d="M 21.390625 0.703125 C 18.097656 0.703125 15.144531 -0.0390625 12.53125 -1.53125 C 9.925781 -3.03125 7.867188 -5.238281 6.359375 -8.15625 C 4.847656 -11.082031 4.09375 -14.570312 4.09375 -18.625 C 4.09375 -22.695312 4.847656 -26.191406 6.359375 -29.109375 C 7.867188 -32.035156 9.925781 -34.242188 12.53125 -35.734375 C 15.144531 -37.234375 18.097656 -37.984375 21.390625 -37.984375 C 25.335938 -37.984375 28.476562 -37.238281 30.8125 -35.75 C 33.144531 -34.269531 34.828125 -32.289062 35.859375 -29.8125 L 32.109375 -27.109375 L 31.4375 -27.109375 C 30.414062 -29.160156 29.109375 -30.660156 27.515625 -31.609375 C 25.929688 -32.566406 23.890625 -33.046875 21.390625 -33.046875 C 19.097656 -33.046875 17.082031 -32.503906 15.34375 -31.421875 C 13.601562 -30.347656 12.253906 -28.726562 11.296875 -26.5625 C 10.347656 -24.40625 9.875 -21.757812 9.875 -18.625 C 9.875 -15.507812 10.359375 -12.875 11.328125 -10.71875 C 12.296875 -8.570312 13.640625 -6.953125 15.359375 -5.859375 C 17.085938 -4.765625 19.097656 -4.21875 21.390625 -4.21875 C 23.984375 -4.21875 26.128906 -4.800781 27.828125 -5.96875 C 29.535156 -7.144531 30.875 -9 31.84375 -11.53125 L 32.546875 -11.53125 L 36.171875 -9.390625 C 35.191406 -6.265625 33.457031 -3.800781 30.96875 -2 C 28.476562 -0.195312 25.285156 0.703125 21.390625 0.703125 Z M 21.390625 0.703125 "/></g></g></g><g fill="#ffaed5" fill-opacity="1"><g transform="translate(384.62774, 317.614534)"><g><path d="M 6.484375 0 L 6.484375 -52.25 L 12 -52.25 L 12 -21.734375 L 12.90625 -21.734375 L 26.765625 -37.28125 L 32.546875 -37.28125 L 32.546875 -36.5 L 17.78125 -19.765625 L 33.96875 -0.84375 L 33.96875 0 L 27.8125 0 L 12.90625 -17.234375 L 12 -17.234375 L 12 0 Z M 6.484375 0 "/></g></g></g><g fill="#ffaed5" fill-opacity="1"><g transform="translate(419.298974, 317.614534)"><g><path d="M 22.75 -21.53125 L 3.515625 -21.53125 L 3.515625 -26.46875 L 22.75 -26.46875 Z M 22.75 -21.53125 "/></g></g></g><g fill="#ffaed5" fill-opacity="1"><g transform="translate(445.522052, 317.614534)"><g><path d="M 13.28125 -23.28125 L 13.28125 -4.796875 L 38.46875 -4.796875 L 38.46875 0 L 7.46875 0 L 7.46875 -49.40625 L 37.921875 -49.40625 L 37.921875 -44.609375 L 13.28125 -44.609375 L 13.28125 -28.09375 L 35.015625 -28.09375 L 35.015625 -23.28125 Z M 13.28125 -23.28125 "/></g></g></g><g fill="#ffaed5" fill-opacity="1"><g transform="translate(487.25596, 317.614534)"><g><path d="M 6.484375 0 L 6.484375 -37.28125 L 11.734375 -37.28125 L 11.734375 -31.4375 L 12.4375 -31.265625 C 13.675781 -33.453125 15.257812 -35.117188 17.1875 -36.265625 C 19.113281 -37.410156 21.460938 -37.984375 24.234375 -37.984375 C 28.710938 -37.984375 31.960938 -36.835938 33.984375 -34.546875 C 36.003906 -32.265625 37.015625 -28.75 37.015625 -24 L 37.015625 0 L 31.5 0 L 31.5 -23.859375 C 31.5 -26.109375 31.210938 -27.914062 30.640625 -29.28125 C 30.066406 -30.644531 29.175781 -31.632812 27.96875 -32.25 C 26.757812 -32.875 25.175781 -33.1875 23.21875 -33.1875 C 19.863281 -33.1875 17.15625 -32.078125 15.09375 -29.859375 C 13.03125 -27.640625 12 -24.0625 12 -19.125 L 12 0 Z M 6.484375 0 "/></g></g></g><g fill="#ffaed5" fill-opacity="1"><g transform="translate(530.172595, 317.614534)"><g><path d="M 19.328125 0.703125 C 16.335938 0.703125 13.695312 -0.0078125 11.40625 -1.4375 C 9.113281 -2.863281 7.320312 -5.019531 6.03125 -7.90625 C 4.738281 -10.789062 4.09375 -14.363281 4.09375 -18.625 C 4.09375 -22.882812 4.765625 -26.460938 6.109375 -29.359375 C 7.460938 -32.253906 9.328125 -34.414062 11.703125 -35.84375 C 14.085938 -37.269531 16.84375 -37.984375 19.96875 -37.984375 C 22.445312 -37.984375 24.675781 -37.515625 26.65625 -36.578125 C 28.644531 -35.648438 30.347656 -34.113281 31.765625 -31.96875 L 32.484375 -32.109375 L 32.484375 -52.25 L 37.984375 -52.25 L 37.984375 0 L 32.484375 0 L 32.484375 -5.4375 L 31.765625 -5.578125 C 30.546875 -3.734375 28.894531 -2.222656 26.8125 -1.046875 C 24.726562 0.117188 22.234375 0.703125 19.328125 0.703125 Z M 21.0625 -4.21875 C 24.53125 -4.21875 27.300781 -5.40625 29.375 -7.78125 C 31.445312 -10.164062 32.484375 -13.78125 32.484375 -18.625 C 32.484375 -23.488281 31.445312 -27.109375 29.375 -29.484375 C 27.300781 -31.859375 24.53125 -33.046875 21.0625 -33.046875 C 17.476562 -33.046875 14.71875 -31.882812 12.78125 -29.5625 C 10.84375 -27.25 9.875 -23.601562 9.875 -18.625 C 9.875 -9.019531 13.601562 -4.21875 21.0625 -4.21875 Z M 21.0625 -4.21875 "/></g></g></g><path fill="#ffaed5" d="M 190.507812 431.214844 C 190.507812 431.828125 190.449219 432.4375 190.328125 433.039062 C 190.207031 433.640625 190.03125 434.222656 189.796875 434.789062 C 189.5625 435.359375 189.273438 435.894531 188.933594 436.40625 C 188.59375 436.917969 188.203125 437.386719 187.769531 437.824219 C 187.335938 438.257812 186.863281 438.644531 186.355469 438.984375 C 185.84375 439.324219 185.304688 439.613281 184.738281 439.847656 C 184.171875 440.082031 183.589844 440.261719 182.988281 440.378906 C 182.382812 440.5 181.777344 440.558594 181.164062 440.558594 C 180.550781 440.558594 179.941406 440.5 179.339844 440.378906 C 178.738281 440.261719 178.15625 440.082031 177.585938 439.847656 C 177.019531 439.613281 176.480469 439.324219 175.972656 438.984375 C 175.460938 438.644531 174.988281 438.257812 174.554688 437.824219 C 174.121094 437.386719 173.734375 436.917969 173.394531 436.40625 C 173.054688 435.894531 172.765625 435.359375 172.53125 434.789062 C 172.296875 434.222656 172.117188 433.640625 172 433.039062 C 171.878906 432.4375 171.820312 431.828125 171.820312 431.214844 C 171.820312 430.601562 171.878906 429.992188 172 429.390625 C 172.117188 428.789062 172.296875 428.207031 172.53125 427.640625 C 172.765625 427.070312 173.054688 426.535156 173.394531 426.023438 C 173.734375 425.511719 174.121094 425.042969 174.554688 424.605469 C 174.988281 424.171875 175.460938 423.785156 175.972656 423.445312 C 176.480469 423.105469 177.019531 422.816406 177.585938 422.582031 C 178.15625 422.347656 178.738281 422.167969 179.339844 422.050781 C 179.941406 421.929688 180.550781 421.871094 181.164062 421.871094 C 181.777344 421.871094 182.382812 421.929688 182.988281 422.050781 C 183.589844 422.167969 184.171875 422.347656 184.738281 422.582031 C 185.304688 422.816406 185.84375 423.105469 186.355469 423.445312 C 186.863281 423.785156 187.335938 424.171875 187.769531 424.605469 C 188.203125 425.042969 188.59375 425.511719 188.933594 426.023438 C 189.273438 426.535156 189.5625 427.070312 189.796875 427.640625 C 190.03125 428.207031 190.207031 428.789062 190.328125 429.390625 C 190.449219 429.992188 190.507812 430.601562 190.507812 431.214844 Z M 190.507812 431.214844 " fill-opacity="1" fill-rule="nonzero"/><g fill="#ffaed5" fill-opacity="1"><g transform="translate(224.414013, 448.865472)"><g><path d="M 21.84375 0.5625 C 18.382812 0.5625 15.300781 -0.226562 12.59375 -1.8125 C 9.894531 -3.394531 7.78125 -5.710938 6.25 -8.765625 C 4.71875 -11.828125 3.953125 -15.492188 3.953125 -19.765625 C 3.953125 -24.035156 4.71875 -27.695312 6.25 -30.75 C 7.78125 -33.800781 9.894531 -36.117188 12.59375 -37.703125 C 15.300781 -39.296875 18.382812 -40.09375 21.84375 -40.09375 C 25.53125 -40.09375 28.597656 -39.390625 31.046875 -37.984375 C 33.503906 -36.585938 35.273438 -34.488281 36.359375 -31.6875 L 33.390625 -29.703125 L 32.703125 -29.703125 C 31.617188 -31.953125 30.210938 -33.550781 28.484375 -34.5 C 26.753906 -35.445312 24.539062 -35.921875 21.84375 -35.921875 C 19.351562 -35.921875 17.144531 -35.363281 15.21875 -34.25 C 13.289062 -33.144531 11.757812 -31.390625 10.625 -28.984375 C 9.488281 -26.578125 8.921875 -23.503906 8.921875 -19.765625 C 8.921875 -16.015625 9.488281 -12.941406 10.625 -10.546875 C 11.757812 -8.148438 13.289062 -6.394531 15.21875 -5.28125 C 17.144531 -4.175781 19.351562 -3.625 21.84375 -3.625 C 24.707031 -3.625 27.046875 -4.265625 28.859375 -5.546875 C 30.679688 -6.835938 32.035156 -8.925781 32.921875 -11.8125 L 33.59375 -11.8125 L 36.703125 -10.265625 C 35.765625 -6.773438 34.03125 -4.097656 31.5 -2.234375 C 28.96875 -0.367188 25.75 0.5625 21.84375 0.5625 Z M 21.84375 0.5625 "/></g></g></g><g fill="#ffaed5" fill-opacity="1"><g transform="translate(263.171826, 448.865472)"><g><path d="M 4.921875 5.65625 L 0.671875 5.65625 L 15.40625 -41.796875 L 19.65625 -41.796875 Z M 4.921875 5.65625 "/></g></g></g><g fill="#ffaed5" fill-opacity="1"><g transform="translate(284.550787, 448.865472)"><g><path d="M 21.84375 0.5625 C 18.382812 0.5625 15.300781 -0.226562 12.59375 -1.8125 C 9.894531 -3.394531 7.78125 -5.710938 6.25 -8.765625 C 4.71875 -11.828125 3.953125 -15.492188 3.953125 -19.765625 C 3.953125 -24.035156 4.71875 -27.695312 6.25 -30.75 C 7.78125 -33.800781 9.894531 -36.117188 12.59375 -37.703125 C 15.300781 -39.296875 18.382812 -40.09375 21.84375 -40.09375 C 25.53125 -40.09375 28.597656 -39.390625 31.046875 -37.984375 C 33.503906 -36.585938 35.273438 -34.488281 36.359375 -31.6875 L 33.390625 -29.703125 L 32.703125 -29.703125 C 31.617188 -31.953125 30.210938 -33.550781 28.484375 -34.5 C 26.753906 -35.445312 24.539062 -35.921875 21.84375 -35.921875 C 19.351562 -35.921875 17.144531 -35.363281 15.21875 -34.25 C 13.289062 -33.144531 11.757812 -31.390625 10.625 -28.984375 C 9.488281 -26.578125 8.921875 -23.503906 8.921875 -19.765625 C 8.921875 -16.015625 9.488281 -12.941406 10.625 -10.546875 C 11.757812 -8.148438 13.289062 -6.394531 15.21875 -5.28125 C 17.144531 -4.175781 19.351562 -3.625 21.84375 -3.625 C 24.707031 -3.625 27.046875 -4.265625 28.859375 -5.546875 C 30.679688 -6.835938 32.035156 -8.925781 32.921875 -11.8125 L 33.59375 -11.8125 L 36.703125 -10.265625 C 35.765625 -6.773438 34.03125 -4.097656 31.5 -2.234375 C 28.96875 -0.367188 25.75 0.5625 21.84375 0.5625 Z M 21.84375 0.5625 "/></g></g></g><g fill="#ffaed5" fill-opacity="1"><g transform="translate(323.308599, 448.865472)"><g><path d="M 16.4375 -21.625 L 26.078125 -21.625 L 26.078125 -17.890625 L 16.4375 -17.890625 L 16.4375 -8.140625 L 12.484375 -8.140625 L 12.484375 -17.890625 L 2.8125 -17.890625 L 2.8125 -21.625 L 12.484375 -21.625 L 12.484375 -31.390625 L 16.4375 -31.390625 Z M 16.4375 -21.625 "/></g></g></g><g fill="#ffaed5" fill-opacity="1"><g transform="translate(352.174251, 448.865472)"><g><path d="M 16.4375 -21.625 L 26.078125 -21.625 L 26.078125 -17.890625 L 16.4375 -17.890625 L 16.4375 -8.140625 L 12.484375 -8.140625 L 12.484375 -17.890625 L 2.8125 -17.890625 L 2.8125 -21.625 L 12.484375 -21.625 L 12.484375 -31.390625 L 16.4375 -31.390625 Z M 16.4375 -21.625 "/></g></g></g><path fill="#ffaed5" d="M 190.507812 508.046875 C 190.507812 508.660156 190.449219 509.269531 190.328125 509.871094 C 190.207031 510.472656 190.03125 511.054688 189.796875 511.621094 C 189.5625 512.191406 189.273438 512.726562 188.933594 513.238281 C 188.59375 513.75 188.203125 514.21875 187.769531 514.65625 C 187.335938 515.089844 186.863281 515.476562 186.355469 515.816406 C 185.84375 516.15625 185.304688 516.445312 184.738281 516.679688 C 184.171875 516.914062 183.589844 517.09375 182.988281 517.210938 C 182.382812 517.332031 181.777344 517.390625 181.164062 517.390625 C 180.550781 517.390625 179.941406 517.332031 179.339844 517.210938 C 178.738281 517.09375 178.15625 516.914062 177.585938 516.679688 C 177.019531 516.445312 176.480469 516.15625 175.972656 515.816406 C 175.460938 515.476562 174.988281 515.089844 174.554688 514.65625 C 174.121094 514.21875 173.734375 513.75 173.394531 513.238281 C 173.054688 512.726562 172.765625 512.191406 172.53125 511.621094 C 172.296875 511.054688 172.117188 510.472656 172 509.871094 C 171.878906 509.269531 171.820312 508.660156 171.820312 508.046875 C 171.820312 507.433594 171.878906 506.824219 172 506.222656 C 172.117188 505.621094 172.296875 505.039062 172.53125 504.472656 C 172.765625 503.902344 173.054688 503.367188 173.394531 502.855469 C 173.734375 502.34375 174.121094 501.875 174.554688 501.4375 C 174.988281 501.003906 175.460938 500.617188 175.972656 500.277344 C 176.480469 499.9375 177.019531 499.648438 177.585938 499.414062 C 178.15625 499.179688 178.738281 499 179.339844 498.882812 C 179.941406 498.761719 180.550781 498.703125 181.164062 498.703125 C 181.777344 498.703125 182.382812 498.761719 182.988281 498.882812 C 183.589844 499 184.171875 499.179688 184.738281 499.414062 C 185.304688 499.648438 185.84375 499.9375 186.355469 500.277344 C 186.863281 500.617188 187.335938 501.003906 187.769531 501.4375 C 188.203125 501.875 188.59375 502.34375 188.933594 502.855469 C 189.273438 503.367188 189.5625 503.902344 189.796875 504.472656 C 190.03125 505.039062 190.207031 505.621094 190.328125 506.222656 C 190.449219 506.824219 190.507812 507.433594 190.507812 508.046875 Z M 190.507812 508.046875 " fill-opacity="1" fill-rule="nonzero"/><g fill="#ffaed5" fill-opacity="1"><g transform="translate(224.414013, 525.697577)"><g><path d="M 13.0625 0.5625 C 11.09375 0.5625 9.285156 0.269531 7.640625 -0.3125 C 6.003906 -0.894531 4.625 -1.691406 3.5 -2.703125 C 2.375 -3.710938 1.550781 -4.832031 1.03125 -6.0625 L 3.4375 -9.21875 L 4.109375 -9.21875 C 4.898438 -7.519531 6.066406 -6.179688 7.609375 -5.203125 C 9.148438 -4.222656 10.96875 -3.734375 13.0625 -3.734375 C 14.75 -3.734375 16.125 -4.003906 17.1875 -4.546875 C 18.25 -5.097656 19.046875 -6.007812 19.578125 -7.28125 C 20.109375 -8.550781 20.375 -10.269531 20.375 -12.4375 L 20.375 -39.515625 L 25 -39.515625 L 25 -12.359375 C 25 -7.890625 24.003906 -4.617188 22.015625 -2.546875 C 20.023438 -0.472656 17.039062 0.5625 13.0625 0.5625 Z M 13.0625 0.5625 "/></g></g></g><g fill="#ffaed5" fill-opacity="1"><g transform="translate(255.03647, 525.697577)"><g><path d="M 12.296875 0.5625 C 9.359375 0.5625 7.066406 -0.203125 5.421875 -1.734375 C 3.773438 -3.265625 2.953125 -5.453125 2.953125 -8.296875 C 2.953125 -10.066406 3.316406 -11.554688 4.046875 -12.765625 C 4.773438 -13.984375 5.90625 -14.972656 7.4375 -15.734375 C 8.96875 -16.503906 10.96875 -17.097656 13.4375 -17.515625 C 15.59375 -17.878906 17.234375 -18.285156 18.359375 -18.734375 C 19.492188 -19.179688 20.253906 -19.679688 20.640625 -20.234375 C 21.023438 -20.796875 21.21875 -21.503906 21.21875 -22.359375 C 21.21875 -23.703125 20.753906 -24.734375 19.828125 -25.453125 C 18.898438 -26.179688 17.410156 -26.546875 15.359375 -26.546875 C 13.429688 -26.546875 11.773438 -26.171875 10.390625 -25.421875 C 9.015625 -24.671875 7.75 -23.554688 6.59375 -22.078125 L 6.0625 -22.078125 L 3.890625 -25.140625 C 5.148438 -26.742188 6.753906 -28.015625 8.703125 -28.953125 C 10.648438 -29.898438 12.867188 -30.375 15.359375 -30.375 C 18.867188 -30.375 21.457031 -29.601562 23.125 -28.0625 C 24.789062 -26.53125 25.625 -24.398438 25.625 -21.671875 L 25.625 -5.859375 C 25.625 -4.203125 26.328125 -3.375 27.734375 -3.375 C 28.203125 -3.375 28.648438 -3.457031 29.078125 -3.625 L 29.46875 -3.515625 L 29.984375 -0.453125 C 29.648438 -0.242188 29.21875 -0.0820312 28.6875 0.03125 C 28.15625 0.15625 27.613281 0.21875 27.0625 0.21875 C 25.414062 0.21875 24.171875 -0.140625 23.328125 -0.859375 C 22.492188 -1.585938 21.960938 -2.648438 21.734375 -4.046875 L 21.171875 -4.109375 C 20.316406 -2.535156 19.164062 -1.363281 17.71875 -0.59375 C 16.28125 0.175781 14.472656 0.5625 12.296875 0.5625 Z M 13.265625 -2.953125 C 14.929688 -2.953125 16.367188 -3.332031 17.578125 -4.09375 C 18.796875 -4.863281 19.726562 -5.941406 20.375 -7.328125 C 21.03125 -8.710938 21.359375 -10.316406 21.359375 -12.140625 L 21.359375 -15.921875 L 20.84375 -16.03125 C 20.175781 -15.5625 19.363281 -15.164062 18.40625 -14.84375 C 17.445312 -14.53125 16.113281 -14.25 14.40625 -14 C 12.675781 -13.769531 11.300781 -13.410156 10.28125 -12.921875 C 9.269531 -12.429688 8.546875 -11.8125 8.109375 -11.0625 C 7.671875 -10.320312 7.453125 -9.398438 7.453125 -8.296875 C 7.453125 -6.546875 7.96875 -5.21875 9 -4.3125 C 10.03125 -3.40625 11.453125 -2.953125 13.265625 -2.953125 Z M 13.265625 -2.953125 "/></g></g></g><g fill="#ffaed5" fill-opacity="1"><g transform="translate(285.875148, 525.697577)"><g><path d="M 18.875 0 L 12.8125 0 L 1.453125 -29.8125 L 6.21875 -29.8125 L 15.59375 -5.03125 L 16.21875 -5.03125 L 25.515625 -29.8125 L 30.171875 -29.8125 Z M 18.875 0 "/></g></g></g><g fill="#ffaed5" fill-opacity="1"><g transform="translate(317.470604, 525.697577)"><g><path d="M 12.296875 0.5625 C 9.359375 0.5625 7.066406 -0.203125 5.421875 -1.734375 C 3.773438 -3.265625 2.953125 -5.453125 2.953125 -8.296875 C 2.953125 -10.066406 3.316406 -11.554688 4.046875 -12.765625 C 4.773438 -13.984375 5.90625 -14.972656 7.4375 -15.734375 C 8.96875 -16.503906 10.96875 -17.097656 13.4375 -17.515625 C 15.59375 -17.878906 17.234375 -18.285156 18.359375 -18.734375 C 19.492188 -19.179688 20.253906 -19.679688 20.640625 -20.234375 C 21.023438 -20.796875 21.21875 -21.503906 21.21875 -22.359375 C 21.21875 -23.703125 20.753906 -24.734375 19.828125 -25.453125 C 18.898438 -26.179688 17.410156 -26.546875 15.359375 -26.546875 C 13.429688 -26.546875 11.773438 -26.171875 10.390625 -25.421875 C 9.015625 -24.671875 7.75 -23.554688 6.59375 -22.078125 L 6.0625 -22.078125 L 3.890625 -25.140625 C 5.148438 -26.742188 6.753906 -28.015625 8.703125 -28.953125 C 10.648438 -29.898438 12.867188 -30.375 15.359375 -30.375 C 18.867188 -30.375 21.457031 -29.601562 23.125 -28.0625 C 24.789062 -26.53125 25.625 -24.398438 25.625 -21.671875 L 25.625 -5.859375 C 25.625 -4.203125 26.328125 -3.375 27.734375 -3.375 C 28.203125 -3.375 28.648438 -3.457031 29.078125 -3.625 L 29.46875 -3.515625 L 29.984375 -0.453125 C 29.648438 -0.242188 29.21875 -0.0820312 28.6875 0.03125 C 28.15625 0.15625 27.613281 0.21875 27.0625 0.21875 C 25.414062 0.21875 24.171875 -0.140625 23.328125 -0.859375 C 22.492188 -1.585938 21.960938 -2.648438 21.734375 -4.046875 L 21.171875 -4.109375 C 20.316406 -2.535156 19.164062 -1.363281 17.71875 -0.59375 C 16.28125 0.175781 14.472656 0.5625 12.296875 0.5625 Z M 13.265625 -2.953125 C 14.929688 -2.953125 16.367188 -3.332031 17.578125 -4.09375 C 18.796875 -4.863281 19.726562 -5.941406 20.375 -7.328125 C 21.03125 -8.710938 21.359375 -10.316406 21.359375 -12.140625 L 21.359375 -15.921875 L 20.84375 -16.03125 C 20.175781 -15.5625 19.363281 -15.164062 18.40625 -14.84375 C 17.445312 -14.53125 16.113281 -14.25 14.40625 -14 C 12.675781 -13.769531 11.300781 -13.410156 10.28125 -12.921875 C 9.269531 -12.429688 8.546875 -11.8125 8.109375 -11.0625 C 7.671875 -10.320312 7.453125 -9.398438 7.453125 -8.296875 C 7.453125 -6.546875 7.96875 -5.21875 9 -4.3125 C 10.03125 -3.40625 11.453125 -2.953125 13.265625 -2.953125 Z M 13.265625 -2.953125 "/></g></g></g><path fill="#ffaed5" d="M 190.507812 584.878906 C 190.507812 585.492188 190.449219 586.101562 190.328125 586.703125 C 190.207031 587.304688 190.03125 587.886719 189.796875 588.453125 C 189.5625 589.023438 189.273438 589.558594 188.933594 590.070312 C 188.59375 590.582031 188.203125 591.050781 187.769531 591.488281 C 187.335938 591.921875 186.863281 592.308594 186.355469 592.648438 C 185.84375 592.988281 185.304688 593.277344 184.738281 593.511719 C 184.171875 593.746094 183.589844 593.925781 182.988281 594.042969 C 182.382812 594.164062 181.777344 594.222656 181.164062 594.222656 C 180.550781 594.222656 179.941406 594.164062 179.339844 594.042969 C 178.738281 593.925781 178.15625 593.746094 177.585938 593.511719 C 177.019531 593.277344 176.480469 592.988281 175.972656 592.648438 C 175.460938 592.308594 174.988281 591.921875 174.554688 591.488281 C 174.121094 591.050781 173.734375 590.582031 173.394531 590.070312 C 173.054688 589.558594 172.765625 589.023438 172.53125 588.453125 C 172.296875 587.886719 172.117188 587.304688 172 586.703125 C 171.878906 586.101562 171.820312 585.492188 171.820312 584.878906 C 171.820312 584.265625 171.878906 583.65625 172 583.054688 C 172.117188 582.453125 172.296875 581.871094 172.53125 581.304688 C 172.765625 580.734375 173.054688 580.199219 173.394531 579.6875 C 173.734375 579.175781 174.121094 578.707031 174.554688 578.273438 C 174.988281 577.835938 175.460938 577.449219 175.972656 577.109375 C 176.480469 576.769531 177.019531 576.480469 177.585938 576.246094 C 178.15625 576.011719 178.738281 575.832031 179.339844 575.714844 C 179.941406 575.59375 180.550781 575.535156 181.164062 575.535156 C 181.777344 575.535156 182.382812 575.59375 182.988281 575.714844 C 183.589844 575.832031 184.171875 576.011719 184.738281 576.246094 C 185.304688 576.480469 185.84375 576.769531 186.355469 577.109375 C 186.863281 577.449219 187.335938 577.835938 187.769531 578.273438 C 188.203125 578.707031 188.59375 579.175781 188.933594 579.6875 C 189.273438 580.199219 189.5625 580.734375 189.796875 581.304688 C 190.03125 581.871094 190.207031 582.453125 190.328125 583.054688 C 190.449219 583.65625 190.507812 584.265625 190.507812 584.878906 Z M 190.507812 584.878906 " fill-opacity="1" fill-rule="nonzero"/><g fill="#ffaed5" fill-opacity="1"><g transform="translate(224.414013, 602.529683)"><g><path d="M 20.109375 -39.515625 C 22.828125 -39.515625 25.160156 -39.023438 27.109375 -38.046875 C 29.054688 -37.078125 30.535156 -35.6875 31.546875 -33.875 C 32.566406 -32.070312 33.078125 -29.941406 33.078125 -27.484375 C 33.078125 -25.035156 32.566406 -22.910156 31.546875 -21.109375 C 30.535156 -19.304688 29.054688 -17.914062 27.109375 -16.9375 C 25.160156 -15.957031 22.828125 -15.46875 20.109375 -15.46875 L 10.625 -15.46875 L 10.625 0 L 5.96875 0 L 5.96875 -39.515625 Z M 19.96875 -19.4375 C 25.46875 -19.4375 28.21875 -22.117188 28.21875 -27.484375 C 28.21875 -32.878906 25.46875 -35.578125 19.96875 -35.578125 L 10.625 -35.578125 L 10.625 -19.4375 Z M 19.96875 -19.4375 "/></g></g></g><g fill="#ffaed5" fill-opacity="1"><g transform="translate(260.442023, 602.529683)"><g><path d="M 5.96875 12.65625 C 4.957031 12.65625 4.015625 12.566406 3.140625 12.390625 C 2.273438 12.222656 1.523438 11.984375 0.890625 11.671875 L 1.703125 8.1875 L 2.1875 8.03125 C 2.625 8.25 3.164062 8.429688 3.8125 8.578125 C 4.457031 8.734375 5.125 8.8125 5.8125 8.8125 C 7.019531 8.8125 8.019531 8.648438 8.8125 8.328125 C 9.601562 8.003906 10.28125 7.46875 10.84375 6.71875 C 11.414062 5.96875 11.945312 4.9375 12.4375 3.625 L 13.484375 0.703125 L 1.515625 -29.8125 L 6.265625 -29.8125 L 15.65625 -5.484375 L 16.171875 -5.484375 L 25.25 -29.8125 L 29.765625 -29.8125 L 16.4375 4.671875 C 15.675781 6.585938 14.828125 8.125 13.890625 9.28125 C 12.953125 10.445312 11.84375 11.300781 10.5625 11.84375 C 9.289062 12.382812 7.757812 12.65625 5.96875 12.65625 Z M 5.96875 12.65625 "/></g></g></g><g fill="#ffaed5" fill-opacity="1"><g transform="translate(291.875312, 602.529683)"><g><path d="M 20.171875 -4.734375 L 21.578125 -1.5625 C 20.867188 -0.863281 19.941406 -0.335938 18.796875 0.015625 C 17.648438 0.378906 16.410156 0.5625 15.078125 0.5625 C 9.390625 0.5625 6.546875 -2.316406 6.546875 -8.078125 L 6.546875 -26.21875 L 1.34375 -26.21875 L 1.34375 -29.84375 L 6.546875 -29.84375 L 6.546875 -36.140625 L 10.953125 -36.875 L 10.953125 -29.84375 L 20.546875 -29.84375 L 20.546875 -26.21875 L 10.953125 -26.21875 L 10.953125 -8.515625 C 10.953125 -5.085938 12.4375 -3.375 15.40625 -3.375 C 17.03125 -3.375 18.425781 -3.828125 19.59375 -4.734375 Z M 20.171875 -4.734375 "/></g></g></g><g fill="#ffaed5" fill-opacity="1"><g transform="translate(314.578633, 602.529683)"><g><path d="M 5.1875 0 L 5.1875 -41.796875 L 9.59375 -41.796875 L 9.59375 -25.578125 L 10.15625 -25.46875 C 12.289062 -28.738281 15.363281 -30.375 19.375 -30.375 C 22.96875 -30.375 25.566406 -29.457031 27.171875 -27.625 C 28.785156 -25.800781 29.59375 -22.988281 29.59375 -19.1875 L 29.59375 0 L 25.1875 0 L 25.1875 -19.078125 C 25.1875 -20.878906 24.957031 -22.328125 24.5 -23.421875 C 24.039062 -24.515625 23.328125 -25.304688 22.359375 -25.796875 C 21.398438 -26.296875 20.132812 -26.546875 18.5625 -26.546875 C 15.863281 -26.546875 13.691406 -25.671875 12.046875 -23.921875 C 10.410156 -22.171875 9.59375 -19.296875 9.59375 -15.296875 L 9.59375 0 Z M 5.1875 0 "/></g></g></g><g fill="#ffaed5" fill-opacity="1"><g transform="translate(348.903893, 602.529683)"><g><path d="M 17.109375 0.5625 C 14.296875 0.5625 11.847656 -0.03125 9.765625 -1.21875 C 7.691406 -2.40625 6.085938 -4.15625 4.953125 -6.46875 C 3.828125 -8.789062 3.265625 -11.597656 3.265625 -14.890625 C 3.265625 -18.191406 3.828125 -21.003906 4.953125 -23.328125 C 6.085938 -25.648438 7.691406 -27.40625 9.765625 -28.59375 C 11.847656 -29.78125 14.296875 -30.375 17.109375 -30.375 C 19.921875 -30.375 22.367188 -29.78125 24.453125 -28.59375 C 26.535156 -27.40625 28.140625 -25.648438 29.265625 -23.328125 C 30.390625 -21.003906 30.953125 -18.191406 30.953125 -14.890625 C 30.953125 -11.597656 30.390625 -8.789062 29.265625 -6.46875 C 28.140625 -4.15625 26.535156 -2.40625 24.453125 -1.21875 C 22.367188 -0.03125 19.921875 0.5625 17.109375 0.5625 Z M 17.109375 -3.375 C 20.085938 -3.375 22.363281 -4.3125 23.9375 -6.1875 C 25.507812 -8.0625 26.296875 -10.960938 26.296875 -14.890625 C 26.296875 -18.835938 25.507812 -21.75 23.9375 -23.625 C 22.363281 -25.5 20.085938 -26.4375 17.109375 -26.4375 C 14.140625 -26.4375 11.859375 -25.492188 10.265625 -23.609375 C 8.679688 -21.722656 7.890625 -18.816406 7.890625 -14.890625 C 7.890625 -10.960938 8.679688 -8.0625 10.265625 -6.1875 C 11.859375 -4.3125 14.140625 -3.375 17.109375 -3.375 Z M 17.109375 -3.375 "/></g></g></g><g fill="#ffaed5" fill-opacity="1"><g transform="translate(383.121042, 602.529683)"><g><path d="M 5.1875 0 L 5.1875 -29.8125 L 9.375 -29.8125 L 9.375 -25.140625 L 9.953125 -25 C 10.941406 -26.75 12.207031 -28.082031 13.75 -29 C 15.289062 -29.914062 17.164062 -30.375 19.375 -30.375 C 22.96875 -30.375 25.566406 -29.457031 27.171875 -27.625 C 28.785156 -25.800781 29.59375 -22.988281 29.59375 -19.1875 L 29.59375 0 L 25.1875 0 L 25.1875 -19.078125 C 25.1875 -20.878906 24.957031 -22.328125 24.5 -23.421875 C 24.039062 -24.515625 23.328125 -25.304688 22.359375 -25.796875 C 21.398438 -26.296875 20.132812 -26.546875 18.5625 -26.546875 C 15.882812 -26.546875 13.71875 -25.65625 12.0625 -23.875 C 10.414062 -22.101562 9.59375 -19.242188 9.59375 -15.296875 L 9.59375 0 Z M 5.1875 0 "/></g></g></g><path fill="#ffaed5" d="M 190.507812 661.710938 C 190.507812 662.324219 190.449219 662.933594 190.328125 663.535156 C 190.207031 664.136719 190.03125 664.71875 189.796875 665.285156 C 189.5625 665.855469 189.273438 666.390625 188.933594 666.902344 C 188.59375 667.414062 188.203125 667.886719 187.769531 668.320312 C 187.335938 668.753906 186.863281 669.140625 186.355469 669.480469 C 185.84375 669.820312 185.304688 670.109375 184.738281 670.34375 C 184.171875 670.578125 183.589844 670.757812 182.988281 670.875 C 182.382812 670.996094 181.777344 671.054688 181.164062 671.054688 C 180.550781 671.054688 179.941406 670.996094 179.339844 670.875 C 178.738281 670.757812 178.15625 670.578125 177.585938 670.34375 C 177.019531 670.109375 176.480469 669.820312 175.972656 669.480469 C 175.460938 669.140625 174.988281 668.753906 174.554688 668.320312 C 174.121094 667.886719 173.734375 667.414062 173.394531 666.902344 C 173.054688 666.390625 172.765625 665.855469 172.53125 665.285156 C 172.296875 664.71875 172.117188 664.136719 172 663.535156 C 171.878906 662.933594 171.820312 662.324219 171.820312 661.710938 C 171.820312 661.097656 171.878906 660.488281 172 659.886719 C 172.117188 659.285156 172.296875 658.703125 172.53125 658.136719 C 172.765625 657.566406 173.054688 657.03125 173.394531 656.519531 C 173.734375 656.007812 174.121094 655.539062 174.554688 655.105469 C 174.988281 654.667969 175.460938 654.28125 175.972656 653.941406 C 176.480469 653.601562 177.019531 653.3125 177.585938 653.078125 C 178.15625 652.84375 178.738281 652.664062 179.339844 652.546875 C 179.941406 652.425781 180.550781 652.367188 181.164062 652.367188 C 181.777344 652.367188 182.382812 652.425781 182.988281 652.546875 C 183.589844 652.664062 184.171875 652.84375 184.738281 653.078125 C 185.304688 653.3125 185.84375 653.601562 186.355469 653.941406 C 186.863281 654.28125 187.335938 654.667969 187.769531 655.105469 C 188.203125 655.539062 188.59375 656.007812 188.933594 656.519531 C 189.273438 657.03125 189.5625 657.566406 189.796875 658.136719 C 190.03125 658.703125 190.207031 659.285156 190.328125 659.886719 C 190.449219 660.488281 190.507812 661.097656 190.507812 661.710938 Z M 190.507812 661.710938 " fill-opacity="1" fill-rule="nonzero"/><g fill="#ffaed5" fill-opacity="1"><g transform="translate(224.414013, 679.361789)"><g><path d="M 10.265625 0 L 5.96875 0 L 5.96875 -39.515625 L 12.859375 -39.515625 L 24.84375 -6.0625 L 25.40625 -6.0625 L 37.390625 -39.515625 L 44.03125 -39.515625 L 44.03125 0 L 39.625 0 L 39.625 -32.25 L 38.953125 -32.359375 L 27.28125 0 L 22.65625 0 L 10.953125 -32.359375 L 10.265625 -32.25 Z M 10.265625 0 "/></g></g></g><g fill="#ffaed5" fill-opacity="1"><g transform="translate(274.442404, 679.361789)"><g><path d="M 35.578125 0 L 30.59375 0 L 26.953125 -10.84375 L 10.109375 -10.84375 L 6.4375 0 L 1.5625 0 L 15.359375 -39.515625 L 21.78125 -39.515625 Z M 18.1875 -34.734375 L 11.40625 -14.734375 L 25.625 -14.734375 L 18.875 -34.734375 Z M 18.1875 -34.734375 "/></g></g></g><g fill="#ffaed5" fill-opacity="1"><g transform="translate(311.578551, 679.361789)"><g><path d="M 30.84375 -39.515625 L 30.84375 -35.578125 L 18.46875 -35.578125 L 18.46875 0 L 13.84375 0 L 13.84375 -35.578125 L 1.453125 -35.578125 L 1.453125 -39.515625 Z M 30.84375 -39.515625 "/></g></g></g><g fill="#ffaed5" fill-opacity="1"><g transform="translate(343.8497, 679.361789)"><g><path d="M 10.625 -39.515625 L 10.625 -3.84375 L 29.65625 -3.84375 L 29.65625 0 L 5.96875 0 L 5.96875 -39.515625 Z M 10.625 -39.515625 "/></g></g></g><g fill="#ffaed5" fill-opacity="1"><g transform="translate(375.174879, 679.361789)"><g><path d="M 35.578125 0 L 30.59375 0 L 26.953125 -10.84375 L 10.109375 -10.84375 L 6.4375 0 L 1.5625 0 L 15.359375 -39.515625 L 21.78125 -39.515625 Z M 18.1875 -34.734375 L 11.40625 -14.734375 L 25.625 -14.734375 L 18.875 -34.734375 Z M 18.1875 -34.734375 "/></g></g></g><g fill="#ffaed5" fill-opacity="1"><g transform="translate(412.311025, 679.361789)"><g><path d="M 5.96875 0 L 5.96875 -39.515625 L 20.953125 -39.515625 C 23.378906 -39.515625 25.441406 -39.125 27.140625 -38.34375 C 28.835938 -37.570312 30.113281 -36.46875 30.96875 -35.03125 C 31.820312 -33.601562 32.25 -31.898438 32.25 -29.921875 C 32.25 -28.210938 31.785156 -26.660156 30.859375 -25.265625 C 29.929688 -23.878906 28.601562 -22.800781 26.875 -22.03125 L 26.875 -21.46875 C 29.5 -20.8125 31.488281 -19.628906 32.84375 -17.921875 C 34.207031 -16.210938 34.890625 -14.0625 34.890625 -11.46875 C 34.890625 -7.789062 33.8125 -4.957031 31.65625 -2.96875 C 29.507812 -0.988281 26.316406 0 22.078125 0 Z M 20.734375 -22.921875 C 22.910156 -22.921875 24.601562 -23.492188 25.8125 -24.640625 C 27.019531 -25.785156 27.625 -27.359375 27.625 -29.359375 C 27.625 -31.460938 27.039062 -33.039062 25.875 -34.09375 C 24.71875 -35.15625 23.003906 -35.6875 20.734375 -35.6875 L 10.625 -35.6875 L 10.625 -22.921875 Z M 21.734375 -3.84375 C 27.359375 -3.84375 30.171875 -6.382812 30.171875 -11.46875 C 30.171875 -16.539062 27.359375 -19.078125 21.734375 -19.078125 L 10.625 -19.078125 L 10.625 -3.84375 Z M 21.734375 -3.84375 "/></g></g></g><path fill="#ffaed5" d="M 190.507812 738.542969 C 190.507812 739.15625 190.449219 739.765625 190.328125 740.367188 C 190.207031 740.96875 190.03125 741.550781 189.796875 742.121094 C 189.5625 742.6875 189.273438 743.222656 188.933594 743.734375 C 188.59375 744.246094 188.203125 744.71875 187.769531 745.152344 C 187.335938 745.585938 186.863281 745.972656 186.355469 746.3125 C 185.84375 746.652344 185.304688 746.941406 184.738281 747.175781 C 184.171875 747.410156 183.589844 747.589844 182.988281 747.707031 C 182.382812 747.828125 181.777344 747.886719 181.164062 747.886719 C 180.550781 747.886719 179.941406 747.828125 179.339844 747.707031 C 178.738281 747.589844 178.15625 747.410156 177.585938 747.175781 C 177.019531 746.941406 176.480469 746.652344 175.972656 746.3125 C 175.460938 745.972656 174.988281 745.585938 174.554688 745.152344 C 174.121094 744.71875 173.734375 744.246094 173.394531 743.734375 C 173.054688 743.222656 172.765625 742.6875 172.53125 742.121094 C 172.296875 741.550781 172.117188 740.96875 172 740.367188 C 171.878906 739.765625 171.820312 739.15625 171.820312 738.542969 C 171.820312 737.929688 171.878906 737.320312 172 736.71875 C 172.117188 736.117188 172.296875 735.535156 172.53125 734.96875 C 172.765625 734.398438 173.054688 733.863281 173.394531 733.351562 C 173.734375 732.839844 174.121094 732.371094 174.554688 731.9375 C 174.988281 731.5 175.460938 731.113281 175.972656 730.773438 C 176.480469 730.433594 177.019531 730.144531 177.585938 729.910156 C 178.15625 729.675781 178.738281 729.5 179.339844 729.378906 C 179.941406 729.257812 180.550781 729.199219 181.164062 729.199219 C 181.777344 729.199219 182.382812 729.257812 182.988281 729.378906 C 183.589844 729.5 184.171875 729.675781 184.738281 729.910156 C 185.304688 730.144531 185.84375 730.433594 186.355469 730.773438 C 186.863281 731.113281 187.335938 731.5 187.769531 731.9375 C 188.203125 732.371094 188.59375 732.839844 188.933594 733.351562 C 189.273438 733.863281 189.5625 734.398438 189.796875 734.96875 C 190.03125 735.535156 190.207031 736.117188 190.328125 736.71875 C 190.449219 737.320312 190.507812 737.929688 190.507812 738.542969 Z M 190.507812 738.542969 " fill-opacity="1" fill-rule="nonzero"/><g fill="#ffaed5" fill-opacity="1"><g transform="translate(224.414013, 756.193895)"><g><path d="M 30.84375 -39.515625 L 30.84375 -35.578125 L 18.46875 -35.578125 L 18.46875 0 L 13.84375 0 L 13.84375 -35.578125 L 1.453125 -35.578125 L 1.453125 -39.515625 Z M 30.84375 -39.515625 "/></g></g></g><g fill="#ffaed5" fill-opacity="1"><g transform="translate(256.685163, 756.193895)"><g><path d="M 5.96875 12.65625 C 4.957031 12.65625 4.015625 12.566406 3.140625 12.390625 C 2.273438 12.222656 1.523438 11.984375 0.890625 11.671875 L 1.703125 8.1875 L 2.1875 8.03125 C 2.625 8.25 3.164062 8.429688 3.8125 8.578125 C 4.457031 8.734375 5.125 8.8125 5.8125 8.8125 C 7.019531 8.8125 8.019531 8.648438 8.8125 8.328125 C 9.601562 8.003906 10.28125 7.46875 10.84375 6.71875 C 11.414062 5.96875 11.945312 4.9375 12.4375 3.625 L 13.484375 0.703125 L 1.515625 -29.8125 L 6.265625 -29.8125 L 15.65625 -5.484375 L 16.171875 -5.484375 L 25.25 -29.8125 L 29.765625 -29.8125 L 16.4375 4.671875 C 15.675781 6.585938 14.828125 8.125 13.890625 9.28125 C 12.953125 10.445312 11.84375 11.300781 10.5625 11.84375 C 9.289062 12.382812 7.757812 12.65625 5.96875 12.65625 Z M 5.96875 12.65625 "/></g></g></g><g fill="#ffaed5" fill-opacity="1"><g transform="translate(288.118452, 756.193895)"><g><path d="M 5.1875 12.078125 L 5.1875 -29.8125 L 9.59375 -29.8125 L 9.59375 -25.359375 L 10.15625 -25.25 C 12.375 -28.664062 15.628906 -30.375 19.921875 -30.375 C 22.410156 -30.375 24.582031 -29.804688 26.4375 -28.671875 C 28.289062 -27.546875 29.726562 -25.820312 30.75 -23.5 C 31.78125 -21.1875 32.296875 -18.316406 32.296875 -14.890625 C 32.296875 -11.484375 31.753906 -8.625 30.671875 -6.3125 C 29.597656 -4.007812 28.101562 -2.285156 26.1875 -1.140625 C 24.28125 -0.00390625 22.082031 0.5625 19.59375 0.5625 C 17.570312 0.5625 15.773438 0.210938 14.203125 -0.484375 C 12.640625 -1.191406 11.289062 -2.347656 10.15625 -3.953125 L 9.59375 -3.84375 L 9.59375 12.078125 Z M 18.625 -3.375 C 24.664062 -3.375 27.6875 -7.210938 27.6875 -14.890625 C 27.6875 -22.585938 24.664062 -26.4375 18.625 -26.4375 C 16.851562 -26.4375 15.289062 -26.03125 13.9375 -25.21875 C 12.59375 -24.40625 11.53125 -23.140625 10.75 -21.421875 C 9.976562 -19.703125 9.59375 -17.523438 9.59375 -14.890625 C 9.59375 -12.273438 9.976562 -10.109375 10.75 -8.390625 C 11.53125 -6.671875 12.59375 -5.40625 13.9375 -4.59375 C 15.289062 -3.78125 16.851562 -3.375 18.625 -3.375 Z M 18.625 -3.375 "/></g></g></g><g fill="#ffaed5" fill-opacity="1"><g transform="translate(323.686989, 756.193895)"><g><path d="M 28.40625 -13.890625 L 7.921875 -13.890625 C 8.046875 -10.265625 8.914062 -7.601562 10.53125 -5.90625 C 12.144531 -4.21875 14.359375 -3.375 17.171875 -3.375 C 19.296875 -3.375 21.003906 -3.753906 22.296875 -4.515625 C 23.597656 -5.273438 24.617188 -6.460938 25.359375 -8.078125 L 25.921875 -8.078125 L 28.78125 -6.375 C 27.914062 -4.21875 26.53125 -2.519531 24.625 -1.28125 C 22.726562 -0.0507812 20.242188 0.5625 17.171875 0.5625 C 14.285156 0.5625 11.804688 -0.00390625 9.734375 -1.140625 C 7.660156 -2.273438 6.0625 -3.992188 4.9375 -6.296875 C 3.820312 -8.609375 3.265625 -11.472656 3.265625 -14.890625 C 3.265625 -18.273438 3.851562 -21.128906 5.03125 -23.453125 C 6.21875 -25.785156 7.832031 -27.519531 9.875 -28.65625 C 11.925781 -29.800781 14.265625 -30.375 16.890625 -30.375 C 20.710938 -30.375 23.695312 -29.296875 25.84375 -27.140625 C 27.988281 -24.992188 29.066406 -21.800781 29.078125 -17.5625 C 29.078125 -15.90625 29.046875 -14.789062 28.984375 -14.21875 Z M 24.734375 -17.5625 C 24.660156 -20.738281 23.957031 -23.046875 22.625 -24.484375 C 21.289062 -25.929688 19.378906 -26.65625 16.890625 -26.65625 C 14.273438 -26.65625 12.222656 -25.925781 10.734375 -24.46875 C 9.253906 -23.019531 8.351562 -20.71875 8.03125 -17.5625 Z M 24.734375 -17.5625 "/></g></g></g><g fill="#ffaed5" fill-opacity="1"><g transform="translate(355.471639, 756.193895)"><g><path d="M 13.59375 0.5625 C 11.71875 0.5625 9.984375 0.316406 8.390625 -0.171875 C 6.796875 -0.671875 5.445312 -1.351562 4.34375 -2.21875 C 3.25 -3.082031 2.476562 -4.054688 2.03125 -5.140625 L 4.625 -7.84375 L 5.1875 -7.84375 C 6.164062 -6.363281 7.335938 -5.25 8.703125 -4.5 C 10.078125 -3.75 11.707031 -3.375 13.59375 -3.375 C 15.789062 -3.375 17.460938 -3.800781 18.609375 -4.65625 C 19.753906 -5.519531 20.328125 -6.71875 20.328125 -8.25 C 20.328125 -9.414062 19.976562 -10.378906 19.28125 -11.140625 C 18.59375 -11.910156 17.472656 -12.484375 15.921875 -12.859375 L 10.890625 -14.109375 C 8.203125 -14.753906 6.238281 -15.78125 5 -17.1875 C 3.769531 -18.59375 3.15625 -20.332031 3.15625 -22.40625 C 3.15625 -24.03125 3.570312 -25.441406 4.40625 -26.640625 C 5.238281 -27.835938 6.429688 -28.757812 7.984375 -29.40625 C 9.546875 -30.050781 11.398438 -30.375 13.546875 -30.375 C 16.285156 -30.375 18.441406 -29.988281 20.015625 -29.21875 C 21.585938 -28.457031 22.816406 -27.394531 23.703125 -26.03125 L 21.21875 -23.59375 L 20.671875 -23.59375 C 19.722656 -24.695312 18.679688 -25.488281 17.546875 -25.96875 C 16.421875 -26.457031 15.085938 -26.703125 13.546875 -26.703125 C 11.578125 -26.703125 10.066406 -26.347656 9.015625 -25.640625 C 7.972656 -24.941406 7.453125 -23.925781 7.453125 -22.59375 C 7.453125 -21.382812 7.820312 -20.410156 8.5625 -19.671875 C 9.300781 -18.929688 10.59375 -18.335938 12.4375 -17.890625 L 17.375 -16.703125 C 19.96875 -16.085938 21.84375 -15.066406 23 -13.640625 C 24.15625 -12.222656 24.734375 -10.441406 24.734375 -8.296875 C 24.734375 -6.546875 24.316406 -5.003906 23.484375 -3.671875 C 22.660156 -2.335938 21.410156 -1.296875 19.734375 -0.546875 C 18.054688 0.191406 16.007812 0.5625 13.59375 0.5625 Z M 13.59375 0.5625 "/></g></g></g><g fill="#ffaed5" fill-opacity="1"><g transform="translate(383.039958, 756.193895)"><g><path d="M 17.109375 0.5625 C 14.484375 0.5625 12.125 -0.0351562 10.03125 -1.234375 C 7.9375 -2.429688 6.285156 -4.195312 5.078125 -6.53125 C 3.867188 -8.863281 3.265625 -11.648438 3.265625 -14.890625 C 3.265625 -18.148438 3.867188 -20.945312 5.078125 -23.28125 C 6.285156 -25.613281 7.9375 -27.378906 10.03125 -28.578125 C 12.125 -29.773438 14.484375 -30.375 17.109375 -30.375 C 20.265625 -30.375 22.773438 -29.78125 24.640625 -28.59375 C 26.503906 -27.40625 27.851562 -25.820312 28.6875 -23.84375 L 25.671875 -21.671875 L 25.140625 -21.671875 C 24.328125 -23.316406 23.285156 -24.519531 22.015625 -25.28125 C 20.742188 -26.050781 19.109375 -26.4375 17.109375 -26.4375 C 15.273438 -26.4375 13.660156 -26.003906 12.265625 -25.140625 C 10.878906 -24.273438 9.800781 -22.976562 9.03125 -21.25 C 8.269531 -19.519531 7.890625 -17.398438 7.890625 -14.890625 C 7.890625 -12.398438 8.273438 -10.296875 9.046875 -8.578125 C 9.828125 -6.859375 10.90625 -5.5625 12.28125 -4.6875 C 13.664062 -3.8125 15.273438 -3.375 17.109375 -3.375 C 19.179688 -3.375 20.894531 -3.84375 22.25 -4.78125 C 23.613281 -5.71875 24.6875 -7.195312 25.46875 -9.21875 L 26.03125 -9.21875 L 28.921875 -7.515625 C 28.148438 -5.003906 26.765625 -3.03125 24.765625 -1.59375 C 22.773438 -0.15625 20.222656 0.5625 17.109375 0.5625 Z M 17.109375 0.5625 "/></g></g></g><g fill="#ffaed5" fill-opacity="1"><g transform="translate(413.770525, 756.193895)"><g><path d="M 5.1875 0 L 5.1875 -29.8125 L 9.375 -29.8125 L 9.375 -25.140625 L 9.953125 -25 C 11.335938 -28.382812 13.945312 -30.078125 17.78125 -30.078125 C 19.820312 -30.078125 21.347656 -29.710938 22.359375 -28.984375 L 21.21875 -25.25 L 20.671875 -25.140625 C 19.554688 -25.703125 18.332031 -25.984375 17 -25.984375 C 14.625 -25.984375 12.796875 -25.085938 11.515625 -23.296875 C 10.234375 -21.515625 9.59375 -18.625 9.59375 -14.625 L 9.59375 0 Z M 5.1875 0 "/></g></g></g><g fill="#ffaed5" fill-opacity="1"><g transform="translate(436.79818, 756.193895)"><g><path d="M 7.40625 -35.578125 C 6.46875 -35.578125 5.707031 -35.867188 5.125 -36.453125 C 4.539062 -37.035156 4.25 -37.78125 4.25 -38.6875 C 4.25 -39.582031 4.539062 -40.320312 5.125 -40.90625 C 5.707031 -41.5 6.46875 -41.796875 7.40625 -41.796875 C 8.34375 -41.796875 9.101562 -41.5 9.6875 -40.90625 C 10.269531 -40.320312 10.5625 -39.582031 10.5625 -38.6875 C 10.5625 -37.78125 10.269531 -37.035156 9.6875 -36.453125 C 9.101562 -35.867188 8.34375 -35.578125 7.40625 -35.578125 Z M 5.1875 0 L 5.1875 -29.8125 L 9.59375 -29.8125 L 9.59375 0 Z M 5.1875 0 "/></g></g></g><g fill="#ffaed5" fill-opacity="1"><g transform="translate(451.582366, 756.193895)"><g><path d="M 5.1875 12.078125 L 5.1875 -29.8125 L 9.59375 -29.8125 L 9.59375 -25.359375 L 10.15625 -25.25 C 12.375 -28.664062 15.628906 -30.375 19.921875 -30.375 C 22.410156 -30.375 24.582031 -29.804688 26.4375 -28.671875 C 28.289062 -27.546875 29.726562 -25.820312 30.75 -23.5 C 31.78125 -21.1875 32.296875 -18.316406 32.296875 -14.890625 C 32.296875 -11.484375 31.753906 -8.625 30.671875 -6.3125 C 29.597656 -4.007812 28.101562 -2.285156 26.1875 -1.140625 C 24.28125 -0.00390625 22.082031 0.5625 19.59375 0.5625 C 17.570312 0.5625 15.773438 0.210938 14.203125 -0.484375 C 12.640625 -1.191406 11.289062 -2.347656 10.15625 -3.953125 L 9.59375 -3.84375 L 9.59375 12.078125 Z M 18.625 -3.375 C 24.664062 -3.375 27.6875 -7.210938 27.6875 -14.890625 C 27.6875 -22.585938 24.664062 -26.4375 18.625 -26.4375 C 16.851562 -26.4375 15.289062 -26.03125 13.9375 -25.21875 C 12.59375 -24.40625 11.53125 -23.140625 10.75 -21.421875 C 9.976562 -19.703125 9.59375 -17.523438 9.59375 -14.890625 C 9.59375 -12.273438 9.976562 -10.109375 10.75 -8.390625 C 11.53125 -6.671875 12.59375 -5.40625 13.9375 -4.59375 C 15.289062 -3.78125 16.851562 -3.375 18.625 -3.375 Z M 18.625 -3.375 "/></g></g></g><g fill="#ffaed5" fill-opacity="1"><g transform="translate(487.150903, 756.193895)"><g><path d="M 20.171875 -4.734375 L 21.578125 -1.5625 C 20.867188 -0.863281 19.941406 -0.335938 18.796875 0.015625 C 17.648438 0.378906 16.410156 0.5625 15.078125 0.5625 C 9.390625 0.5625 6.546875 -2.316406 6.546875 -8.078125 L 6.546875 -26.21875 L 1.34375 -26.21875 L 1.34375 -29.84375 L 6.546875 -29.84375 L 6.546875 -36.140625 L 10.953125 -36.875 L 10.953125 -29.84375 L 20.546875 -29.84375 L 20.546875 -26.21875 L 10.953125 -26.21875 L 10.953125 -8.515625 C 10.953125 -5.085938 12.4375 -3.375 15.40625 -3.375 C 17.03125 -3.375 18.425781 -3.828125 19.59375 -4.734375 Z M 20.171875 -4.734375 "/></g></g></g></svg>