<svg xmlns="http://www.w3.org/2000/svg" xmlns:xlink="http://www.w3.org/1999/xlink" width="500" zoomAndPan="magnify" viewBox="0 0 375 374.999991" height="500" preserveAspectRatio="xMidYMid meet" version="1.0"><defs><clipPath id="0f48968e22"><path d="M 25.636719 68.933594 L 349.636719 68.933594 L 349.636719 305.933594 L 25.636719 305.933594 Z M 25.636719 68.933594 " clip-rule="nonzero"/></clipPath></defs><path fill="#ffffff" d="M 113.417969 113.90625 L 81.054688 151.609375 C 79.324219 153.628906 79.324219 156.605469 81.054688 158.621094 L 113.417969 196.328125 L 121.609375 189.3125 L 92.253906 155.117188 L 121.609375 120.917969 L 113.417969 113.90625 " fill-opacity="1" fill-rule="nonzero"/><path fill="#ffffff" d="M 191.449219 113.601562 L 183.820312 121.21875 L 217.765625 155.117188 L 183.820312 189.011719 L 191.449219 196.628906 L 229.207031 158.925781 C 231.3125 156.820312 231.3125 153.410156 229.207031 151.308594 L 191.449219 113.601562 " fill-opacity="1" fill-rule="nonzero"/><path fill="#ffffff" d="M 134.039062 196.316406 L 144.140625 200.097656 L 176.503906 113.914062 L 166.402344 110.132812 L 134.039062 196.316406 " fill-opacity="1" fill-rule="nonzero"/><g clip-path="url(#0f48968e22)"><path fill="#ffffff" d="M 36.605469 230.523438 L 36.605469 79.707031 L 273.9375 79.707031 L 273.9375 230.523438 Z M 284.726562 235.910156 L 284.726562 192.820312 L 338.667969 192.820312 L 338.667969 279.003906 L 300.910156 279.003906 L 287.964844 269.308594 C 287.027344 268.609375 285.894531 268.230469 284.726562 268.230469 L 263.152344 268.230469 C 261.984375 268.230469 260.847656 268.609375 259.914062 269.308594 L 246.96875 279.003906 L 209.210938 279.003906 L 209.210938 241.296875 L 279.332031 241.296875 C 282.3125 241.296875 284.726562 238.886719 284.726562 235.910156 Z M 300.910156 295.160156 L 246.96875 295.160156 L 246.96875 292.46875 L 264.949219 279.003906 L 282.929688 279.003906 L 300.910156 292.46875 Z M 198.421875 268.230469 L 182.242188 268.230469 L 182.242188 241.296875 L 198.421875 241.296875 Z M 171.453125 295.160156 L 139.089844 295.160156 L 139.089844 241.296875 L 149.878906 241.296875 L 149.878906 279.003906 C 149.878906 281.976562 152.292969 284.386719 155.269531 284.386719 C 158.25 284.386719 160.664062 281.976562 160.664062 279.003906 L 160.664062 241.296875 L 171.453125 241.296875 Z M 128.300781 268.230469 L 95.9375 268.230469 C 89.992188 268.230469 85.148438 263.394531 85.148438 257.457031 L 90.542969 257.457031 C 93.523438 257.457031 95.9375 255.042969 95.9375 252.070312 L 95.9375 241.296875 L 128.300781 241.296875 Z M 74.363281 246.683594 L 74.363281 241.296875 L 85.148438 241.296875 L 85.148438 246.683594 Z M 95.9375 279.003906 L 128.300781 279.003906 L 128.300781 295.160156 L 112.121094 295.160156 L 112.121094 305.933594 L 198.421875 305.933594 L 198.421875 295.160156 L 182.242188 295.160156 L 182.242188 279.003906 L 198.421875 279.003906 L 198.421875 284.386719 C 198.421875 287.363281 200.839844 289.773438 203.816406 289.773438 L 236.179688 289.773438 L 236.179688 300.546875 C 236.179688 303.523438 238.597656 305.933594 241.574219 305.933594 L 306.300781 305.933594 C 309.28125 305.933594 311.695312 303.523438 311.695312 300.546875 L 311.695312 289.773438 L 344.058594 289.773438 C 347.039062 289.773438 349.453125 287.363281 349.453125 284.386719 L 349.453125 187.433594 C 349.453125 184.460938 347.039062 182.046875 344.058594 182.046875 L 284.726562 182.046875 L 284.726562 74.320312 C 284.726562 71.347656 282.3125 68.933594 279.332031 68.933594 L 31.210938 68.933594 C 28.230469 68.933594 25.816406 71.347656 25.816406 74.320312 L 25.816406 235.910156 C 25.816406 238.886719 28.230469 241.296875 31.210938 241.296875 L 63.574219 241.296875 L 63.574219 252.070312 C 63.574219 255.042969 65.988281 257.457031 68.96875 257.457031 L 74.363281 257.457031 C 74.363281 269.335938 84.039062 279.003906 95.9375 279.003906 " fill-opacity="1" fill-rule="nonzero"/></g></svg>