<svg xmlns="http://www.w3.org/2000/svg" xmlns:xlink="http://www.w3.org/1999/xlink" width="500" zoomAndPan="magnify" viewBox="0 0 375 374.999991" height="500" preserveAspectRatio="xMidYMid meet" version="1.0"><defs><clipPath id="dcc2df4398"><path d="M 29 29.8125 L 346 29.8125 L 346 345.558594 L 29 345.558594 Z M 29 29.8125 " clip-rule="nonzero"/></clipPath></defs><path fill="#ffffff" d="M 182.40625 65.460938 C 182.40625 62.65625 184.671875 60.367188 187.492188 60.367188 C 190.292969 60.367188 192.578125 62.65625 192.578125 65.460938 C 192.578125 68.265625 190.292969 70.554688 187.492188 70.554688 C 184.671875 70.554688 182.40625 68.265625 182.40625 65.460938 Z M 202.75 65.460938 C 202.75 57.027344 195.898438 50.183594 187.492188 50.183594 C 179.070312 50.183594 172.234375 57.027344 172.234375 65.460938 C 172.234375 73.894531 179.070312 80.738281 187.492188 80.738281 C 195.898438 80.738281 202.75 73.894531 202.75 65.460938 " fill-opacity="1" fill-rule="nonzero"/><path fill="#ffffff" d="M 67.953125 253.195312 C 65.53125 254.625 62.410156 253.773438 61.019531 251.34375 C 59.609375 248.917969 60.445312 245.773438 62.867188 244.382812 C 65.3125 242.96875 68.429688 243.824219 69.820312 246.25 C 71.230469 248.679688 70.378906 251.800781 67.953125 253.195312 Z M 57.78125 235.570312 C 50.511719 239.765625 48.007812 249.136719 52.199219 256.4375 C 55.019531 261.332031 60.167969 264.054688 65.449219 264.054688 C 68.035156 264.054688 70.65625 263.398438 73.039062 262.027344 C 80.332031 257.808594 82.835938 248.441406 78.621094 241.160156 C 74.429688 233.859375 65.074219 231.351562 57.78125 235.570312 " fill-opacity="1" fill-rule="nonzero"/><path fill="#ffffff" d="M 313.945312 251.34375 C 312.554688 253.773438 309.4375 254.605469 307.011719 253.195312 C 304.589844 251.800781 303.734375 248.679688 305.144531 246.25 C 306.554688 243.824219 309.675781 242.96875 312.097656 244.382812 C 314.523438 245.773438 315.355469 248.917969 313.945312 251.34375 Z M 317.183594 235.570312 C 309.894531 231.351562 300.535156 233.878906 296.34375 241.160156 C 292.132812 248.441406 294.636719 257.808594 301.925781 262.027344 C 304.3125 263.398438 306.933594 264.054688 309.515625 264.054688 C 314.800781 264.054688 319.945312 261.332031 322.769531 256.4375 C 326.960938 249.136719 324.457031 239.765625 317.183594 235.570312 " fill-opacity="1" fill-rule="nonzero"/><g clip-path="url(#dcc2df4398)"><path fill="#ffffff" d="M 331.570312 261.53125 C 324.574219 273.683594 308.980469 277.863281 296.839844 270.839844 C 284.703125 263.816406 280.511719 248.222656 287.523438 236.066406 C 290.921875 230.179688 296.402344 225.960938 302.980469 224.191406 C 309.515625 222.4375 316.390625 223.335938 322.269531 226.738281 C 334.410156 233.757812 338.582031 249.355469 331.570312 261.53125 Z M 233.265625 243.707031 L 141.71875 243.707031 L 141.71875 131.664062 L 233.265625 131.664062 Z M 202.75 320.097656 C 202.75 328.53125 195.898438 335.375 187.492188 335.375 C 179.070312 335.375 172.234375 328.53125 172.234375 320.097656 C 172.234375 311.660156 179.070312 304.816406 187.492188 304.816406 C 195.898438 304.816406 202.75 311.660156 202.75 320.097656 Z M 78.125 270.839844 C 65.988281 277.863281 50.410156 273.683594 43.398438 261.53125 C 36.386719 249.355469 40.558594 233.757812 52.695312 226.738281 C 56.628906 224.46875 60.960938 223.316406 65.371094 223.316406 C 67.578125 223.316406 69.800781 223.613281 72.007812 224.191406 C 78.5625 225.960938 84.046875 230.179688 87.445312 236.066406 C 94.457031 248.222656 90.265625 263.816406 78.125 270.839844 Z M 68.472656 129.121094 C 64.257812 136.421875 54.902344 138.925781 47.628906 134.710938 C 44.09375 132.679688 41.570312 129.378906 40.519531 125.4375 C 39.464844 121.5 40 117.382812 42.046875 113.839844 C 44.867188 108.949219 49.996094 106.203125 55.277344 106.203125 C 57.863281 106.203125 60.484375 106.859375 62.886719 108.25 C 66.40625 110.28125 68.929688 113.582031 69.980469 117.519531 C 71.035156 121.460938 70.496094 125.578125 68.472656 129.121094 Z M 162.0625 65.460938 C 162.0625 51.414062 173.46875 39.996094 187.492188 39.996094 C 201.5 39.996094 212.921875 51.414062 212.921875 65.460938 C 212.921875 79.503906 201.5 90.925781 187.492188 90.925781 C 173.46875 90.925781 162.0625 79.503906 162.0625 65.460938 Z M 304.988281 117.519531 C 306.039062 113.582031 308.5625 110.28125 312.097656 108.25 C 314.484375 106.859375 317.105469 106.203125 319.6875 106.203125 C 324.972656 106.203125 330.097656 108.949219 332.941406 113.839844 C 334.964844 117.382812 335.503906 121.5 334.449219 125.4375 C 333.398438 129.378906 330.875 132.679688 327.355469 134.710938 C 320.066406 138.925781 310.707031 136.421875 306.496094 129.121094 C 304.46875 125.578125 303.933594 121.460938 304.988281 117.519531 Z M 327.355469 217.921875 C 319.113281 213.167969 309.535156 211.875 300.339844 214.363281 C 292.113281 216.550781 285.121094 221.542969 280.332031 228.46875 L 243.4375 210.007812 L 243.4375 165.363281 L 299.800781 137.15625 C 303.160156 141.453125 307.75 144.617188 313.132812 146.070312 C 315.335938 146.664062 317.542969 146.964844 319.769531 146.964844 C 324.160156 146.964844 328.507812 145.789062 332.441406 143.542969 C 338.324219 140.121094 342.515625 134.648438 344.285156 128.066406 C 346.03125 121.5 345.136719 114.636719 341.742188 108.75 C 338.34375 102.859375 332.859375 98.640625 326.304688 96.890625 C 319.746094 95.121094 312.894531 96.035156 307.011719 99.417969 C 301.113281 102.839844 296.921875 108.3125 295.152344 114.894531 C 293.980469 119.273438 294.101562 123.769531 295.253906 128.023438 L 243.4375 153.984375 L 243.4375 121.480469 L 192.578125 121.480469 L 192.578125 100.691406 C 209.804688 98.226562 223.09375 83.382812 223.09375 65.460938 C 223.09375 45.804688 207.121094 29.8125 187.492188 29.8125 C 167.84375 29.8125 151.890625 45.804688 151.890625 65.460938 C 151.890625 83.382812 165.164062 98.226562 182.40625 100.691406 L 182.40625 121.480469 L 131.546875 121.480469 L 131.546875 153.984375 L 79.714844 128.023438 C 80.867188 123.769531 80.988281 119.273438 79.816406 114.894531 C 78.046875 108.3125 73.855469 102.839844 67.972656 99.417969 C 62.074219 96.035156 55.21875 95.121094 48.664062 96.890625 C 42.105469 98.640625 36.625 102.859375 33.226562 108.75 C 29.828125 114.636719 28.9375 121.5 30.683594 128.066406 C 32.453125 134.648438 36.644531 140.121094 42.542969 143.542969 C 46.457031 145.789062 50.808594 146.964844 55.199219 146.964844 C 57.425781 146.964844 59.648438 146.664062 61.835938 146.070312 C 67.21875 144.617188 71.808594 141.453125 75.164062 137.15625 L 131.546875 165.363281 L 131.546875 210.007812 L 94.636719 228.46875 C 89.847656 221.542969 82.855469 216.550781 74.628906 214.363281 C 65.449219 211.894531 55.855469 213.148438 47.609375 217.921875 C 30.625 227.75 24.761719 249.59375 34.578125 266.621094 C 41.171875 278.042969 53.152344 284.425781 65.472656 284.425781 C 71.511719 284.425781 77.628906 282.894531 83.210938 279.671875 C 98.074219 271.058594 104.410156 253.292969 99.203125 237.558594 L 131.546875 221.386719 L 131.546875 253.890625 L 182.40625 253.890625 L 182.40625 295.148438 C 170.804688 297.515625 162.0625 307.800781 162.0625 320.097656 C 162.0625 334.140625 173.46875 345.558594 187.492188 345.558594 C 201.5 345.558594 212.921875 334.140625 212.921875 320.097656 C 212.921875 307.800781 204.160156 297.515625 192.578125 295.148438 L 192.578125 253.890625 L 243.4375 253.890625 L 243.4375 221.386719 L 275.761719 237.558594 C 270.558594 253.292969 276.894531 271.058594 291.753906 279.671875 C 297.339844 282.894531 303.457031 284.425781 309.496094 284.425781 C 321.8125 284.425781 333.792969 278.042969 340.390625 266.621094 C 350.203125 249.59375 344.34375 227.75 327.355469 217.921875 " fill-opacity="1" fill-rule="nonzero"/></g><path fill="#ffffff" d="M 212.921875 223.335938 L 202.75 223.335938 L 202.75 192.777344 L 212.921875 192.777344 Z M 182.40625 223.335938 L 182.40625 202.964844 L 192.578125 202.964844 L 192.578125 223.335938 Z M 162.0625 213.148438 L 172.234375 213.148438 L 172.234375 223.335938 L 162.0625 223.335938 Z M 223.09375 182.59375 L 192.578125 182.59375 L 192.578125 192.777344 L 172.234375 192.777344 L 172.234375 202.964844 L 151.890625 202.964844 L 151.890625 233.519531 L 223.09375 233.519531 L 223.09375 182.59375 " fill-opacity="1" fill-rule="nonzero"/><path fill="#ffffff" d="M 162.0625 141.851562 L 151.890625 141.851562 L 151.890625 152.035156 L 162.0625 152.035156 L 162.0625 141.851562 " fill-opacity="1" fill-rule="nonzero"/><path fill="#ffffff" d="M 223.09375 141.851562 L 172.234375 141.851562 L 172.234375 152.035156 L 223.09375 152.035156 L 223.09375 141.851562 " fill-opacity="1" fill-rule="nonzero"/><path fill="#ffffff" d="M 223.09375 162.222656 L 151.890625 162.222656 L 151.890625 172.40625 L 223.09375 172.40625 L 223.09375 162.222656 " fill-opacity="1" fill-rule="nonzero"/></svg>