<svg xmlns="http://www.w3.org/2000/svg" xmlns:xlink="http://www.w3.org/1999/xlink" width="500" zoomAndPan="magnify" viewBox="0 0 375 374.999991" height="500" preserveAspectRatio="xMidYMid meet" version="1.0"><path fill="#ffffff" d="M 165.378906 133.761719 L 196.941406 34.386719 C 199.191406 27.289062 209.925781 30.710938 207.679688 37.792969 L 176.117188 137.15625 C 173.851562 144.285156 163.132812 140.863281 165.378906 133.761719 Z M 165.378906 133.761719 " fill-opacity="1" fill-rule="nonzero"/><path fill="#ffffff" d="M 145.667969 124.464844 L 115.691406 93.625 C 111.480469 89.289062 111.480469 82.253906 115.691406 77.917969 L 145.667969 47.074219 C 150.824219 41.734375 158.933594 49.570312 153.746094 54.910156 L 123.773438 85.753906 L 153.746094 116.628906 C 159.03125 122.0625 150.746094 129.695312 145.667969 124.464844 Z M 145.667969 124.464844 " fill-opacity="1" fill-rule="nonzero"/><path fill="#ffffff" d="M 219.3125 116.628906 L 249.285156 85.785156 L 219.3125 54.910156 C 214.109375 49.570312 222.234375 41.75 227.390625 47.074219 L 257.367188 77.917969 C 261.578125 82.253906 261.578125 89.289062 257.367188 93.625 L 227.390625 124.464844 C 222.25 129.773438 214.0625 122.03125 219.3125 116.628906 Z M 219.3125 116.628906 " fill-opacity="1" fill-rule="nonzero"/><path fill="#ffffff" d="M 250.152344 209.679688 C 250.152344 214.34375 246.363281 218.113281 241.710938 218.113281 C 237.042969 218.113281 233.269531 214.328125 233.269531 209.679688 C 233.269531 205.015625 237.058594 201.246094 241.710938 201.246094 C 246.378906 201.246094 250.152344 205.03125 250.152344 209.679688 Z M 250.152344 209.679688 " fill-opacity="1" fill-rule="nonzero"/><path fill="#ffffff" d="M 250.152344 244.355469 C 250.152344 249.019531 246.363281 252.789062 241.710938 252.789062 C 237.042969 252.789062 233.269531 249.003906 233.269531 244.355469 C 233.269531 239.691406 237.058594 235.921875 241.710938 235.921875 C 246.378906 235.90625 250.152344 239.691406 250.152344 244.355469 Z M 250.152344 244.355469 " fill-opacity="1" fill-rule="nonzero"/><path fill="#ffffff" d="M 232.4375 227.015625 C 232.4375 231.679688 228.648438 235.449219 223.996094 235.449219 C 219.328125 235.449219 215.554688 231.664062 215.554688 227.015625 C 215.554688 222.367188 219.34375 218.582031 223.996094 218.582031 C 228.648438 218.582031 232.4375 222.351562 232.4375 227.015625 Z M 232.4375 227.015625 " fill-opacity="1" fill-rule="nonzero"/><path fill="#ffffff" d="M 267.882812 227.015625 C 267.882812 231.679688 264.109375 235.449219 259.441406 235.449219 C 254.773438 235.449219 251 231.664062 251 227.015625 C 251 222.367188 254.789062 218.582031 259.441406 218.582031 C 264.09375 218.582031 267.882812 222.351562 267.882812 227.015625 Z M 267.882812 227.015625 " fill-opacity="1" fill-rule="nonzero"/><path fill="#ffffff" d="M 152.050781 232.636719 L 136.992188 232.636719 L 136.992188 247.257812 C 136.992188 254.6875 125.738281 254.703125 125.738281 247.257812 L 125.738281 232.636719 L 110.679688 232.636719 C 103.226562 232.636719 103.242188 221.394531 110.679688 221.394531 L 125.738281 221.394531 L 125.738281 206.773438 C 125.738281 199.34375 136.992188 199.328125 136.992188 206.773438 L 136.992188 221.394531 L 152.050781 221.394531 C 159.484375 221.394531 159.484375 232.636719 152.050781 232.636719 Z M 152.050781 232.636719 " fill-opacity="1" fill-rule="nonzero"/><path fill="#ffffff" d="M 311.453125 337.953125 C 300.199219 342.898438 282.3125 341.53125 234.886719 293.824219 C 221.890625 282.3125 202.917969 284.574219 186.539062 284.242188 C 170.0625 284.574219 151.1875 282.3125 137.917969 294.058594 C 117.265625 314.851562 83.390625 347.5625 61.605469 337.953125 C 39.203125 328.105469 41.53125 286.929688 51.199219 251.6875 C 53.148438 244.558594 64.023438 247.464844 62.058594 254.65625 C 51.8125 292.078125 53.492188 322.105469 66.148438 327.664062 C 76.585938 332.234375 98.101562 318.179688 130.183594 285.890625 C 147.128906 270.847656 169.84375 273.34375 186.523438 273 C 202.980469 273.40625 225.851562 270.785156 242.605469 285.640625 C 274.957031 318.179688 296.507812 332.203125 306.910156 327.648438 C 323.589844 320.316406 320.289062 270.535156 299.996094 223.183594 C 288.882812 197.257812 268.449219 168.328125 249.867188 166.113281 C 227.40625 163.382812 221.164062 183.011719 196 183.011719 L 177.058594 183.011719 C 151.894531 183.011719 145.683594 163.398438 123.191406 166.113281 C 104.894531 168.28125 85.96875 195.527344 75.3125 218.191406 C 72.136719 224.925781 61.949219 220.121094 65.125 213.402344 C 71.175781 200.554688 93.121094 158.371094 121.871094 154.949219 C 149.207031 151.714844 156.089844 171.785156 177.074219 171.785156 L 196.015625 171.785156 C 216.84375 171.785156 224.027344 151.746094 251.21875 154.949219 C 283.789062 158.828125 307.746094 212.632812 310.371094 218.757812 C 331.574219 268.273438 337.785156 326.378906 311.453125 337.953125 Z M 311.453125 337.953125 " fill-opacity="1" fill-rule="nonzero"/><path fill="#ffffff" d="M 62.203125 229.214844 C 65.3125 229.214844 67.828125 231.726562 67.828125 234.835938 C 67.828125 237.945312 65.3125 240.460938 62.203125 240.460938 C 59.089844 240.460938 56.574219 237.945312 56.574219 234.835938 C 56.574219 231.726562 59.089844 229.214844 62.203125 229.214844 Z M 62.203125 229.214844 " fill-opacity="1" fill-rule="nonzero"/><path fill="#ffffff" d="M 64.417969 310.328125 C 64.324219 306.089844 64.449219 301.550781 64.8125 296.824219 C 65.375 289.394531 76.601562 290.273438 76.035156 297.6875 C 75.703125 302.035156 75.578125 306.214844 75.671875 310.078125 C 75.84375 317.566406 64.574219 317.820312 64.417969 310.328125 Z M 64.417969 310.328125 " fill-opacity="1" fill-rule="nonzero"/><path fill="#ffffff" d="M 67.65625 275.761719 C 71.160156 257.277344 77.449219 236.753906 86.660156 218.992188 C 90.085938 212.378906 100.082031 217.578125 96.65625 224.160156 C 87.933594 240.976562 82.007812 260.515625 78.722656 277.851562 C 77.324219 285.21875 66.273438 283.097656 67.65625 275.761719 Z M 67.65625 275.761719 " fill-opacity="1" fill-rule="nonzero"/></svg>