<svg xmlns="http://www.w3.org/2000/svg" xmlns:xlink="http://www.w3.org/1999/xlink" width="1080" zoomAndPan="magnify" viewBox="0 0 810 809.999993" height="1080" preserveAspectRatio="xMidYMid meet" version="1.0"><defs><g/><clipPath id="76abba418f"><path d="M 316.019531 43.476562 L 489.640625 43.476562 L 489.640625 237.394531 L 316.019531 237.394531 Z M 316.019531 43.476562 " clip-rule="nonzero"/></clipPath></defs><g clip-path="url(#76abba418f)"><path fill="#ffaed5" d="M 489.609375 43.476562 L 474.296875 216.980469 L 402.828125 237.394531 L 331.363281 216.980469 L 316.050781 43.476562 Z M 360.976562 155.742188 L 381.394531 155.742188 L 381.894531 168.5 L 402.828125 175.636719 L 423.765625 168.5 L 425.28125 145.539062 L 380.378906 145.539062 L 379.339844 125.125 L 426.320312 125.125 L 427.835938 104.710938 L 357.40625 104.710938 L 355.871094 84.300781 L 449.289062 84.300781 L 446.738281 125.125 L 443.148438 183.808594 L 402.828125 197.085938 L 362.511719 183.808594 Z M 360.976562 155.742188 " fill-opacity="1" fill-rule="evenodd"/></g><g fill="#ffaed5" fill-opacity="1"><g transform="translate(219.524448, 344.217306)"><g><path d="M 39.640625 -53.65625 L 39.640625 -48.4375 L 14.421875 -48.4375 L 14.421875 -28.921875 L 37.09375 -28.921875 L 37.09375 -23.671875 L 14.421875 -23.671875 L 14.421875 0 L 8.109375 0 L 8.109375 -53.65625 Z M 39.640625 -53.65625 "/></g></g></g><g fill="#ffaed5" fill-opacity="1"><g transform="translate(262.053158, 344.217306)"><g><path d="M 7.046875 0 L 7.046875 -40.484375 L 12.734375 -40.484375 L 12.734375 -34.125 L 13.5 -33.9375 C 15.382812 -38.539062 18.929688 -40.84375 24.140625 -40.84375 C 26.910156 -40.84375 28.976562 -40.34375 30.34375 -39.34375 L 28.8125 -34.28125 L 28.078125 -34.125 C 26.554688 -34.882812 24.890625 -35.265625 23.078125 -35.265625 C 19.847656 -35.265625 17.363281 -34.050781 15.625 -31.625 C 13.894531 -29.207031 13.03125 -25.285156 13.03125 -19.859375 L 13.03125 0 Z M 7.046875 0 "/></g></g></g><g fill="#ffaed5" fill-opacity="1"><g transform="translate(293.316701, 344.217306)"><g><path d="M 23.234375 0.765625 C 19.410156 0.765625 16.085938 -0.0390625 13.265625 -1.65625 C 10.441406 -3.269531 8.265625 -5.644531 6.734375 -8.78125 C 5.203125 -11.925781 4.4375 -15.738281 4.4375 -20.21875 C 4.4375 -24.695312 5.203125 -28.515625 6.734375 -31.671875 C 8.265625 -34.828125 10.441406 -37.210938 13.265625 -38.828125 C 16.085938 -40.441406 19.410156 -41.25 23.234375 -41.25 C 27.046875 -41.25 30.363281 -40.441406 33.1875 -38.828125 C 36.019531 -37.210938 38.195312 -34.828125 39.71875 -31.671875 C 41.25 -28.515625 42.015625 -24.695312 42.015625 -20.21875 C 42.015625 -15.738281 41.25 -11.925781 39.71875 -8.78125 C 38.195312 -5.644531 36.019531 -3.269531 33.1875 -1.65625 C 30.363281 -0.0390625 27.046875 0.765625 23.234375 0.765625 Z M 23.234375 -4.59375 C 27.265625 -4.59375 30.347656 -5.863281 32.484375 -8.40625 C 34.628906 -10.945312 35.703125 -14.882812 35.703125 -20.21875 C 35.703125 -25.570312 34.628906 -29.519531 32.484375 -32.0625 C 30.347656 -34.613281 27.265625 -35.890625 23.234375 -35.890625 C 19.191406 -35.890625 16.09375 -34.609375 13.9375 -32.046875 C 11.789062 -29.492188 10.71875 -25.550781 10.71875 -20.21875 C 10.71875 -14.882812 11.789062 -10.945312 13.9375 -8.40625 C 16.09375 -5.863281 19.191406 -4.59375 23.234375 -4.59375 Z M 23.234375 -4.59375 "/></g></g></g><g fill="#ffaed5" fill-opacity="1"><g transform="translate(339.771685, 344.217306)"><g><path d="M 7.046875 0 L 7.046875 -40.484375 L 12.734375 -40.484375 L 12.734375 -34.125 L 13.5 -33.9375 C 14.84375 -36.3125 16.5625 -38.125 18.65625 -39.375 C 20.75 -40.625 23.300781 -41.25 26.3125 -41.25 C 31.175781 -41.25 34.703125 -40.003906 36.890625 -37.515625 C 39.085938 -35.035156 40.1875 -31.21875 40.1875 -26.0625 L 40.1875 0 L 34.203125 0 L 34.203125 -25.90625 C 34.203125 -28.351562 33.890625 -30.316406 33.265625 -31.796875 C 32.640625 -33.273438 31.671875 -34.347656 30.359375 -35.015625 C 29.054688 -35.691406 27.34375 -36.03125 25.21875 -36.03125 C 21.570312 -36.03125 18.628906 -34.828125 16.390625 -32.421875 C 14.148438 -30.015625 13.03125 -26.128906 13.03125 -20.765625 L 13.03125 0 Z M 7.046875 0 "/></g></g></g><g fill="#ffaed5" fill-opacity="1"><g transform="translate(386.373446, 344.217306)"><g><path d="M 27.375 -6.421875 L 29.28125 -2.125 C 28.332031 -1.175781 27.078125 -0.457031 25.515625 0.03125 C 23.960938 0.519531 22.285156 0.765625 20.484375 0.765625 C 12.742188 0.765625 8.875 -3.144531 8.875 -10.96875 L 8.875 -35.59375 L 1.828125 -35.59375 L 1.828125 -40.515625 L 8.875 -40.515625 L 8.875 -49.0625 L 14.859375 -50.0625 L 14.859375 -40.515625 L 27.890625 -40.515625 L 27.890625 -35.59375 L 14.859375 -35.59375 L 14.859375 -11.5625 C 14.859375 -6.914062 16.878906 -4.59375 20.921875 -4.59375 C 23.117188 -4.59375 25.015625 -5.203125 26.609375 -6.421875 Z M 27.375 -6.421875 "/></g></g></g><g fill="#ffaed5" fill-opacity="1"><g transform="translate(417.196658, 344.217306)"><g><path d="M 24.703125 -23.375 L 3.8125 -23.375 L 3.8125 -28.734375 L 24.703125 -28.734375 Z M 24.703125 -23.375 "/></g></g></g><g fill="#ffaed5" fill-opacity="1"><g transform="translate(445.671435, 344.217306)"><g><path d="M 14.421875 -25.28125 L 14.421875 -5.21875 L 41.765625 -5.21875 L 41.765625 0 L 8.109375 0 L 8.109375 -53.65625 L 41.171875 -53.65625 L 41.171875 -48.4375 L 14.421875 -48.4375 L 14.421875 -30.5 L 38.015625 -30.5 L 38.015625 -25.28125 Z M 14.421875 -25.28125 "/></g></g></g><g fill="#ffaed5" fill-opacity="1"><g transform="translate(490.988912, 344.217306)"><g><path d="M 7.046875 0 L 7.046875 -40.484375 L 12.734375 -40.484375 L 12.734375 -34.125 L 13.5 -33.9375 C 14.84375 -36.3125 16.5625 -38.125 18.65625 -39.375 C 20.75 -40.625 23.300781 -41.25 26.3125 -41.25 C 31.175781 -41.25 34.703125 -40.003906 36.890625 -37.515625 C 39.085938 -35.035156 40.1875 -31.21875 40.1875 -26.0625 L 40.1875 0 L 34.203125 0 L 34.203125 -25.90625 C 34.203125 -28.351562 33.890625 -30.316406 33.265625 -31.796875 C 32.640625 -33.273438 31.671875 -34.347656 30.359375 -35.015625 C 29.054688 -35.691406 27.34375 -36.03125 25.21875 -36.03125 C 21.570312 -36.03125 18.628906 -34.828125 16.390625 -32.421875 C 14.148438 -30.015625 13.03125 -26.128906 13.03125 -20.765625 L 13.03125 0 Z M 7.046875 0 "/></g></g></g><g fill="#ffaed5" fill-opacity="1"><g transform="translate(537.590673, 344.217306)"><g><path d="M 20.984375 0.765625 C 17.734375 0.765625 14.863281 -0.0078125 12.375 -1.5625 C 9.894531 -3.113281 7.953125 -5.453125 6.546875 -8.578125 C 5.140625 -11.710938 4.4375 -15.59375 4.4375 -20.21875 C 4.4375 -24.84375 5.171875 -28.726562 6.640625 -31.875 C 8.109375 -35.019531 10.132812 -37.367188 12.71875 -38.921875 C 15.300781 -40.472656 18.289062 -41.25 21.6875 -41.25 C 24.375 -41.25 26.796875 -40.738281 28.953125 -39.71875 C 31.109375 -38.707031 32.957031 -37.039062 34.5 -34.71875 L 35.265625 -34.859375 L 35.265625 -56.734375 L 41.25 -56.734375 L 41.25 0 L 35.265625 0 L 35.265625 -5.90625 L 34.5 -6.0625 C 33.175781 -4.050781 31.378906 -2.410156 29.109375 -1.140625 C 26.847656 0.128906 24.140625 0.765625 20.984375 0.765625 Z M 22.859375 -4.59375 C 26.628906 -4.59375 29.640625 -5.878906 31.890625 -8.453125 C 34.140625 -11.035156 35.265625 -14.957031 35.265625 -20.21875 C 35.265625 -25.5 34.140625 -29.429688 31.890625 -32.015625 C 29.640625 -34.597656 26.628906 -35.890625 22.859375 -35.890625 C 18.972656 -35.890625 15.976562 -34.628906 13.875 -32.109375 C 11.769531 -29.585938 10.71875 -25.625 10.71875 -20.21875 C 10.71875 -9.800781 14.765625 -4.59375 22.859375 -4.59375 Z M 22.859375 -4.59375 "/></g></g></g><path fill="#ffaed5" d="M 174.964844 467.570312 C 174.964844 468.238281 174.902344 468.898438 174.773438 469.550781 C 174.640625 470.207031 174.449219 470.839844 174.195312 471.457031 C 173.9375 472.070312 173.625 472.65625 173.257812 473.210938 C 172.886719 473.761719 172.464844 474.277344 171.996094 474.746094 C 171.523438 475.21875 171.011719 475.640625 170.457031 476.007812 C 169.902344 476.378906 169.316406 476.691406 168.703125 476.945312 C 168.085938 477.203125 167.453125 477.394531 166.800781 477.523438 C 166.144531 477.652344 165.484375 477.71875 164.820312 477.71875 C 164.152344 477.71875 163.492188 477.652344 162.839844 477.523438 C 162.1875 477.394531 161.550781 477.203125 160.9375 476.945312 C 160.320312 476.691406 159.738281 476.378906 159.183594 476.007812 C 158.628906 475.640625 158.117188 475.21875 157.644531 474.746094 C 157.171875 474.277344 156.753906 473.761719 156.382812 473.210938 C 156.011719 472.65625 155.699219 472.070312 155.445312 471.457031 C 155.191406 470.839844 154.996094 470.207031 154.867188 469.550781 C 154.738281 468.898438 154.671875 468.238281 154.671875 467.570312 C 154.671875 466.90625 154.738281 466.246094 154.867188 465.59375 C 154.996094 464.9375 155.191406 464.304688 155.445312 463.6875 C 155.699219 463.074219 156.011719 462.488281 156.382812 461.933594 C 156.753906 461.382812 157.171875 460.867188 157.644531 460.398438 C 158.117188 459.925781 158.628906 459.503906 159.183594 459.136719 C 159.738281 458.765625 160.320312 458.453125 160.9375 458.199219 C 161.550781 457.941406 162.1875 457.75 162.839844 457.621094 C 163.492188 457.492188 164.152344 457.425781 164.820312 457.425781 C 165.484375 457.425781 166.144531 457.492188 166.800781 457.621094 C 167.453125 457.75 168.085938 457.941406 168.703125 458.199219 C 169.316406 458.453125 169.902344 458.765625 170.457031 459.136719 C 171.011719 459.503906 171.523438 459.925781 171.996094 460.398438 C 172.464844 460.867188 172.886719 461.382812 173.257812 461.933594 C 173.625 462.488281 173.9375 463.074219 174.195312 463.6875 C 174.449219 464.304688 174.640625 464.9375 174.773438 465.59375 C 174.902344 466.246094 174.964844 466.90625 174.964844 467.570312 Z M 174.964844 467.570312 " fill-opacity="1" fill-rule="nonzero"/><g fill="#ffaed5" fill-opacity="1"><g transform="translate(211.784057, 486.738346)"><g><path d="M 23.71875 0.609375 C 19.957031 0.609375 16.609375 -0.25 13.671875 -1.96875 C 10.742188 -3.6875 8.445312 -6.203125 6.78125 -9.515625 C 5.113281 -12.835938 4.28125 -16.816406 4.28125 -21.453125 C 4.28125 -26.085938 5.113281 -30.0625 6.78125 -33.375 C 8.445312 -36.695312 10.742188 -39.21875 13.671875 -40.9375 C 16.609375 -42.664062 19.957031 -43.53125 23.71875 -43.53125 C 27.726562 -43.53125 31.0625 -42.769531 33.71875 -41.25 C 36.382812 -39.738281 38.300781 -37.457031 39.46875 -34.40625 L 36.25 -32.25 L 35.515625 -32.25 C 34.335938 -34.695312 32.8125 -36.429688 30.9375 -37.453125 C 29.0625 -38.484375 26.65625 -39 23.71875 -39 C 21.019531 -39 18.625 -38.394531 16.53125 -37.1875 C 14.4375 -35.988281 12.769531 -34.082031 11.53125 -31.46875 C 10.300781 -28.863281 9.6875 -25.523438 9.6875 -21.453125 C 9.6875 -17.378906 10.300781 -14.039062 11.53125 -11.4375 C 12.769531 -8.84375 14.4375 -6.941406 16.53125 -5.734375 C 18.625 -4.535156 21.019531 -3.9375 23.71875 -3.9375 C 26.820312 -3.9375 29.363281 -4.632812 31.34375 -6.03125 C 33.320312 -7.425781 34.789062 -9.691406 35.75 -12.828125 L 36.484375 -12.828125 L 39.859375 -11.15625 C 38.835938 -7.351562 36.953125 -4.441406 34.203125 -2.421875 C 31.453125 -0.398438 27.957031 0.609375 23.71875 0.609375 Z M 23.71875 0.609375 "/></g></g></g><g fill="#ffaed5" fill-opacity="1"><g transform="translate(253.86989, 486.738346)"><g><path d="M 18.75 0.609375 C 16.050781 0.609375 13.628906 0.242188 11.484375 -0.484375 C 9.347656 -1.210938 7.5625 -2.175781 6.125 -3.375 C 4.695312 -4.570312 3.632812 -5.882812 2.9375 -7.3125 L 5.6875 -10.65625 L 6.421875 -10.65625 C 9.085938 -6.175781 13.195312 -3.9375 18.75 -3.9375 C 21.976562 -3.9375 24.378906 -4.609375 25.953125 -5.953125 C 27.535156 -7.304688 28.328125 -9.1875 28.328125 -11.59375 C 28.328125 -13 28.066406 -14.191406 27.546875 -15.171875 C 27.023438 -16.148438 26.164062 -16.984375 24.96875 -17.671875 C 23.78125 -18.367188 22.160156 -18.972656 20.109375 -19.484375 L 15.09375 -20.71875 C 11.351562 -21.625 8.597656 -23.054688 6.828125 -25.015625 C 5.054688 -26.984375 4.171875 -29.472656 4.171875 -32.484375 C 4.171875 -34.617188 4.71875 -36.519531 5.8125 -38.1875 C 6.90625 -39.863281 8.507812 -41.171875 10.625 -42.109375 C 12.738281 -43.054688 15.265625 -43.53125 18.203125 -43.53125 C 21.429688 -43.53125 24.15625 -43.070312 26.375 -42.15625 C 28.59375 -41.25 30.367188 -39.882812 31.703125 -38.0625 L 29.234375 -34.75 L 28.5 -34.75 C 27.269531 -36.257812 25.8125 -37.363281 24.125 -38.0625 C 22.445312 -38.769531 20.472656 -39.125 18.203125 -39.125 C 15.222656 -39.125 12.972656 -38.546875 11.453125 -37.390625 C 9.941406 -36.234375 9.1875 -34.640625 9.1875 -32.609375 C 9.1875 -30.671875 9.742188 -29.128906 10.859375 -27.984375 C 11.972656 -26.835938 13.851562 -25.953125 16.5 -25.328125 L 21.625 -24.09375 C 25.789062 -23.113281 28.804688 -21.609375 30.671875 -19.578125 C 32.546875 -17.554688 33.484375 -14.972656 33.484375 -11.828125 C 33.484375 -9.398438 32.941406 -7.25 31.859375 -5.375 C 30.773438 -3.507812 29.125 -2.046875 26.90625 -0.984375 C 24.695312 0.078125 21.976562 0.609375 18.75 0.609375 Z M 18.75 0.609375 "/></g></g></g><g fill="#ffaed5" fill-opacity="1"><g transform="translate(290.643634, 486.738346)"><g><path d="M 18.75 0.609375 C 16.050781 0.609375 13.628906 0.242188 11.484375 -0.484375 C 9.347656 -1.210938 7.5625 -2.175781 6.125 -3.375 C 4.695312 -4.570312 3.632812 -5.882812 2.9375 -7.3125 L 5.6875 -10.65625 L 6.421875 -10.65625 C 9.085938 -6.175781 13.195312 -3.9375 18.75 -3.9375 C 21.976562 -3.9375 24.378906 -4.609375 25.953125 -5.953125 C 27.535156 -7.304688 28.328125 -9.1875 28.328125 -11.59375 C 28.328125 -13 28.066406 -14.191406 27.546875 -15.171875 C 27.023438 -16.148438 26.164062 -16.984375 24.96875 -17.671875 C 23.78125 -18.367188 22.160156 -18.972656 20.109375 -19.484375 L 15.09375 -20.71875 C 11.351562 -21.625 8.597656 -23.054688 6.828125 -25.015625 C 5.054688 -26.984375 4.171875 -29.472656 4.171875 -32.484375 C 4.171875 -34.617188 4.71875 -36.519531 5.8125 -38.1875 C 6.90625 -39.863281 8.507812 -41.171875 10.625 -42.109375 C 12.738281 -43.054688 15.265625 -43.53125 18.203125 -43.53125 C 21.429688 -43.53125 24.15625 -43.070312 26.375 -42.15625 C 28.59375 -41.25 30.367188 -39.882812 31.703125 -38.0625 L 29.234375 -34.75 L 28.5 -34.75 C 27.269531 -36.257812 25.8125 -37.363281 24.125 -38.0625 C 22.445312 -38.769531 20.472656 -39.125 18.203125 -39.125 C 15.222656 -39.125 12.972656 -38.546875 11.453125 -37.390625 C 9.941406 -36.234375 9.1875 -34.640625 9.1875 -32.609375 C 9.1875 -30.671875 9.742188 -29.128906 10.859375 -27.984375 C 11.972656 -26.835938 13.851562 -25.953125 16.5 -25.328125 L 21.625 -24.09375 C 25.789062 -23.113281 28.804688 -21.609375 30.671875 -19.578125 C 32.546875 -17.554688 33.484375 -14.972656 33.484375 -11.828125 C 33.484375 -9.398438 32.941406 -7.25 31.859375 -5.375 C 30.773438 -3.507812 29.125 -2.046875 26.90625 -0.984375 C 24.695312 0.078125 21.976562 0.609375 18.75 0.609375 Z M 18.75 0.609375 "/></g></g></g><path fill="#ffaed5" d="M 174.964844 551 C 174.964844 551.667969 174.902344 552.328125 174.773438 552.980469 C 174.640625 553.632812 174.449219 554.269531 174.195312 554.882812 C 173.9375 555.5 173.625 556.085938 173.257812 556.640625 C 172.886719 557.191406 172.464844 557.707031 171.996094 558.175781 C 171.523438 558.648438 171.011719 559.066406 170.457031 559.4375 C 169.902344 559.808594 169.316406 560.121094 168.703125 560.375 C 168.085938 560.632812 167.453125 560.824219 166.800781 560.953125 C 166.144531 561.082031 165.484375 561.148438 164.820312 561.148438 C 164.152344 561.148438 163.492188 561.082031 162.839844 560.953125 C 162.1875 560.824219 161.550781 560.632812 160.9375 560.375 C 160.320312 560.121094 159.738281 559.808594 159.183594 559.4375 C 158.628906 559.066406 158.117188 558.648438 157.644531 558.175781 C 157.171875 557.707031 156.753906 557.191406 156.382812 556.640625 C 156.011719 556.085938 155.699219 555.5 155.445312 554.882812 C 155.191406 554.269531 154.996094 553.632812 154.867188 552.980469 C 154.738281 552.328125 154.671875 551.667969 154.671875 551 C 154.671875 550.335938 154.738281 549.675781 154.867188 549.023438 C 154.996094 548.367188 155.191406 547.734375 155.445312 547.117188 C 155.699219 546.503906 156.011719 545.917969 156.382812 545.363281 C 156.753906 544.808594 157.171875 544.296875 157.644531 543.828125 C 158.117188 543.355469 158.628906 542.933594 159.183594 542.566406 C 159.738281 542.195312 160.320312 541.882812 160.9375 541.628906 C 161.550781 541.371094 162.1875 541.179688 162.839844 541.050781 C 163.492188 540.917969 164.152344 540.855469 164.820312 540.855469 C 165.484375 540.855469 166.144531 540.917969 166.800781 541.050781 C 167.453125 541.179688 168.085938 541.371094 168.703125 541.628906 C 169.316406 541.882812 169.902344 542.195312 170.457031 542.566406 C 171.011719 542.933594 171.523438 543.355469 171.996094 543.828125 C 172.464844 544.296875 172.886719 544.808594 173.257812 545.363281 C 173.625 545.917969 173.9375 546.503906 174.195312 547.117188 C 174.449219 547.734375 174.640625 548.367188 174.773438 549.023438 C 174.902344 549.675781 174.964844 550.335938 174.964844 551 Z M 174.964844 551 " fill-opacity="1" fill-rule="nonzero"/><g fill="#ffaed5" fill-opacity="1"><g transform="translate(211.784057, 570.1678)"><g><path d="M 33.84375 -25.5 L 33.84375 -42.90625 L 38.859375 -42.90625 L 38.859375 0 L 33.84375 0 L 33.84375 -21.21875 L 11.53125 -21.21875 L 11.53125 0 L 6.484375 0 L 6.484375 -42.90625 L 11.53125 -42.90625 L 11.53125 -25.5 Z M 33.84375 -25.5 "/></g></g></g><g fill="#ffaed5" fill-opacity="1"><g transform="translate(257.156929, 570.1678)"><g><path d="M 33.484375 -42.90625 L 33.484375 -38.625 L 20.046875 -38.625 L 20.046875 0 L 15.03125 0 L 15.03125 -38.625 L 1.578125 -38.625 L 1.578125 -42.90625 Z M 33.484375 -42.90625 "/></g></g></g><g fill="#ffaed5" fill-opacity="1"><g transform="translate(292.199108, 570.1678)"><g><path d="M 11.15625 0 L 6.484375 0 L 6.484375 -42.90625 L 13.96875 -42.90625 L 26.96875 -6.578125 L 27.59375 -6.578125 L 40.59375 -42.90625 L 47.8125 -42.90625 L 47.8125 0 L 43.03125 0 L 43.03125 -35.015625 L 42.296875 -35.125 L 29.609375 0 L 24.59375 0 L 11.890625 -35.125 L 11.15625 -35.015625 Z M 11.15625 0 "/></g></g></g><g fill="#ffaed5" fill-opacity="1"><g transform="translate(346.523291, 570.1678)"><g><path d="M 11.53125 -42.90625 L 11.53125 -4.171875 L 32.203125 -4.171875 L 32.203125 0 L 6.484375 0 L 6.484375 -42.90625 Z M 11.53125 -42.90625 "/></g></g></g><path fill="#ffaed5" d="M 174.964844 634.429688 C 174.964844 635.097656 174.902344 635.757812 174.773438 636.410156 C 174.640625 637.0625 174.449219 637.699219 174.195312 638.3125 C 173.9375 638.929688 173.625 639.515625 173.257812 640.066406 C 172.886719 640.621094 172.464844 641.136719 171.996094 641.605469 C 171.523438 642.078125 171.011719 642.496094 170.457031 642.867188 C 169.902344 643.238281 169.316406 643.550781 168.703125 643.804688 C 168.085938 644.058594 167.453125 644.253906 166.800781 644.382812 C 166.144531 644.511719 165.484375 644.578125 164.820312 644.578125 C 164.152344 644.578125 163.492188 644.511719 162.839844 644.382812 C 162.1875 644.253906 161.550781 644.058594 160.9375 643.804688 C 160.320312 643.550781 159.738281 643.238281 159.183594 642.867188 C 158.628906 642.496094 158.117188 642.078125 157.644531 641.605469 C 157.171875 641.136719 156.753906 640.621094 156.382812 640.066406 C 156.011719 639.515625 155.699219 638.929688 155.445312 638.3125 C 155.191406 637.699219 154.996094 637.0625 154.867188 636.410156 C 154.738281 635.757812 154.671875 635.097656 154.671875 634.429688 C 154.671875 633.765625 154.738281 633.105469 154.867188 632.453125 C 154.996094 631.796875 155.191406 631.164062 155.445312 630.546875 C 155.699219 629.933594 156.011719 629.347656 156.382812 628.792969 C 156.753906 628.238281 157.171875 627.726562 157.644531 627.257812 C 158.117188 626.785156 158.628906 626.363281 159.183594 625.996094 C 159.738281 625.625 160.320312 625.3125 160.9375 625.054688 C 161.550781 624.800781 162.1875 624.609375 162.839844 624.480469 C 163.492188 624.347656 164.152344 624.285156 164.820312 624.285156 C 165.484375 624.285156 166.144531 624.347656 166.800781 624.480469 C 167.453125 624.609375 168.085938 624.800781 168.703125 625.054688 C 169.316406 625.3125 169.902344 625.625 170.457031 625.996094 C 171.011719 626.363281 171.523438 626.785156 171.996094 627.257812 C 172.464844 627.726562 172.886719 628.238281 173.257812 628.792969 C 173.625 629.347656 173.9375 629.933594 174.195312 630.546875 C 174.449219 631.164062 174.640625 631.796875 174.773438 632.453125 C 174.902344 633.105469 174.964844 633.765625 174.964844 634.429688 Z M 174.964844 634.429688 " fill-opacity="1" fill-rule="nonzero"/><g fill="#ffaed5" fill-opacity="1"><g transform="translate(211.784057, 653.597255)"><g><path d="M 6.484375 0 L 6.484375 -42.90625 L 22.078125 -42.90625 C 24.953125 -42.90625 27.363281 -42.429688 29.3125 -41.484375 C 31.269531 -40.535156 32.738281 -39.195312 33.71875 -37.46875 C 34.695312 -35.738281 35.1875 -33.6875 35.1875 -31.3125 C 35.1875 -28.65625 34.519531 -26.457031 33.1875 -24.71875 C 31.863281 -22.988281 29.789062 -21.695312 26.96875 -20.84375 L 26.96875 -20.21875 C 28.363281 -19.675781 29.5 -18.816406 30.375 -17.640625 C 31.257812 -16.460938 32.070312 -14.710938 32.8125 -12.390625 L 36.78125 0 L 31.578125 0 L 27.296875 -13.125 C 26.785156 -14.664062 26.195312 -15.875 25.53125 -16.75 C 24.863281 -17.632812 24.019531 -18.269531 23 -18.65625 C 21.988281 -19.050781 20.703125 -19.25 19.140625 -19.25 L 11.53125 -19.25 L 11.53125 0 Z M 21.953125 -23.53125 C 24.628906 -23.53125 26.625 -24.148438 27.9375 -25.390625 C 29.25 -26.640625 29.90625 -28.535156 29.90625 -31.078125 C 29.90625 -33.617188 29.25 -35.507812 27.9375 -36.75 C 26.625 -38 24.628906 -38.625 21.953125 -38.625 L 11.53125 -38.625 L 11.53125 -23.53125 Z M 21.953125 -23.53125 "/></g></g></g><g fill="#ffaed5" fill-opacity="1"><g transform="translate(251.522007, 653.597255)"><g><path d="M 30.84375 -15.09375 L 8.59375 -15.09375 C 8.738281 -11.15625 9.6875 -8.265625 11.4375 -6.421875 C 13.1875 -4.585938 15.585938 -3.671875 18.640625 -3.671875 C 20.941406 -3.671875 22.796875 -4.082031 24.203125 -4.90625 C 25.617188 -5.726562 26.726562 -7.019531 27.53125 -8.78125 L 28.140625 -8.78125 L 31.265625 -6.921875 C 30.316406 -4.578125 28.8125 -2.734375 26.75 -1.390625 C 24.6875 -0.0546875 21.984375 0.609375 18.640625 0.609375 C 15.503906 0.609375 12.8125 -0.00390625 10.5625 -1.234375 C 8.3125 -2.460938 6.578125 -4.328125 5.359375 -6.828125 C 4.148438 -9.335938 3.546875 -12.453125 3.546875 -16.171875 C 3.546875 -19.847656 4.1875 -22.945312 5.46875 -25.46875 C 6.75 -28 8.5 -29.882812 10.71875 -31.125 C 12.945312 -32.363281 15.488281 -32.984375 18.34375 -32.984375 C 22.488281 -32.984375 25.722656 -31.8125 28.046875 -29.46875 C 30.378906 -27.132812 31.554688 -23.671875 31.578125 -19.078125 C 31.578125 -17.273438 31.539062 -16.0625 31.46875 -15.4375 Z M 26.859375 -19.078125 C 26.773438 -22.523438 26.007812 -25.03125 24.5625 -26.59375 C 23.113281 -28.15625 21.039062 -28.9375 18.34375 -28.9375 C 15.507812 -28.9375 13.285156 -28.148438 11.671875 -26.578125 C 10.054688 -25.003906 9.070312 -22.503906 8.71875 -19.078125 Z M 26.859375 -19.078125 "/></g></g></g><g fill="#ffaed5" fill-opacity="1"><g transform="translate(286.035912, 653.597255)"><g><path d="M 13.359375 0.609375 C 10.160156 0.609375 7.664062 -0.21875 5.875 -1.875 C 4.09375 -3.539062 3.203125 -5.921875 3.203125 -9.015625 C 3.203125 -10.929688 3.597656 -12.546875 4.390625 -13.859375 C 5.179688 -15.179688 6.40625 -16.257812 8.0625 -17.09375 C 9.726562 -17.925781 11.90625 -18.566406 14.59375 -19.015625 C 16.9375 -19.410156 18.71875 -19.851562 19.9375 -20.34375 C 21.164062 -20.832031 21.988281 -21.378906 22.40625 -21.984375 C 22.832031 -22.585938 23.046875 -23.347656 23.046875 -24.265625 C 23.046875 -25.734375 22.539062 -26.859375 21.53125 -27.640625 C 20.519531 -28.429688 18.898438 -28.828125 16.671875 -28.828125 C 14.578125 -28.828125 12.78125 -28.421875 11.28125 -27.609375 C 9.789062 -26.796875 8.414062 -25.585938 7.15625 -23.984375 L 6.578125 -23.984375 L 4.21875 -27.296875 C 5.59375 -29.035156 7.335938 -30.414062 9.453125 -31.4375 C 11.566406 -32.46875 13.972656 -32.984375 16.671875 -32.984375 C 20.484375 -32.984375 23.296875 -32.144531 25.109375 -30.46875 C 26.921875 -28.800781 27.828125 -26.488281 27.828125 -23.53125 L 27.828125 -6.375 C 27.828125 -4.570312 28.585938 -3.671875 30.109375 -3.671875 C 30.617188 -3.671875 31.109375 -3.757812 31.578125 -3.9375 L 31.984375 -3.8125 L 32.546875 -0.5 C 32.191406 -0.257812 31.726562 -0.078125 31.15625 0.046875 C 30.582031 0.171875 29.988281 0.234375 29.375 0.234375 C 27.59375 0.234375 26.25 -0.15625 25.34375 -0.9375 C 24.4375 -1.71875 23.851562 -2.875 23.59375 -4.40625 L 22.984375 -4.46875 C 22.066406 -2.757812 20.820312 -1.484375 19.25 -0.640625 C 17.6875 0.191406 15.722656 0.609375 13.359375 0.609375 Z M 14.40625 -3.203125 C 16.207031 -3.203125 17.769531 -3.613281 19.09375 -4.4375 C 20.414062 -5.269531 21.425781 -6.441406 22.125 -7.953125 C 22.832031 -9.460938 23.1875 -11.203125 23.1875 -13.171875 L 23.1875 -17.28125 L 22.625 -17.40625 C 21.90625 -16.894531 21.023438 -16.46875 19.984375 -16.125 C 18.953125 -15.78125 17.503906 -15.472656 15.640625 -15.203125 C 13.765625 -14.953125 12.273438 -14.5625 11.171875 -14.03125 C 10.066406 -13.5 9.273438 -12.828125 8.796875 -12.015625 C 8.328125 -11.203125 8.09375 -10.203125 8.09375 -9.015625 C 8.09375 -7.109375 8.648438 -5.660156 9.765625 -4.671875 C 10.890625 -3.691406 12.4375 -3.203125 14.40625 -3.203125 Z M 14.40625 -3.203125 "/></g></g></g><g fill="#ffaed5" fill-opacity="1"><g transform="translate(319.522618, 653.597255)"><g><path d="M 18.578125 0.609375 C 15.722656 0.609375 13.160156 -0.0351562 10.890625 -1.328125 C 8.617188 -2.628906 6.828125 -4.546875 5.515625 -7.078125 C 4.203125 -9.617188 3.546875 -12.648438 3.546875 -16.171875 C 3.546875 -19.710938 4.203125 -22.75 5.515625 -25.28125 C 6.828125 -27.820312 8.617188 -29.738281 10.890625 -31.03125 C 13.160156 -32.332031 15.722656 -32.984375 18.578125 -32.984375 C 22.003906 -32.984375 24.726562 -32.335938 26.75 -31.046875 C 28.78125 -29.753906 30.242188 -28.035156 31.140625 -25.890625 L 27.875 -23.53125 L 27.296875 -23.53125 C 26.410156 -25.3125 25.28125 -26.617188 23.90625 -27.453125 C 22.53125 -28.285156 20.753906 -28.703125 18.578125 -28.703125 C 16.578125 -28.703125 14.820312 -28.234375 13.3125 -27.296875 C 11.8125 -26.359375 10.644531 -24.945312 9.8125 -23.0625 C 8.976562 -21.1875 8.5625 -18.890625 8.5625 -16.171875 C 8.5625 -13.472656 8.984375 -11.1875 9.828125 -9.3125 C 10.671875 -7.445312 11.835938 -6.039062 13.328125 -5.09375 C 14.828125 -4.144531 16.578125 -3.671875 18.578125 -3.671875 C 20.828125 -3.671875 22.691406 -4.175781 24.171875 -5.1875 C 25.648438 -6.207031 26.804688 -7.816406 27.640625 -10.015625 L 28.265625 -10.015625 L 31.40625 -8.15625 C 30.5625 -5.4375 29.054688 -3.296875 26.890625 -1.734375 C 24.734375 -0.171875 21.960938 0.609375 18.578125 0.609375 Z M 18.578125 0.609375 "/></g></g></g><g fill="#ffaed5" fill-opacity="1"><g transform="translate(352.891929, 653.597255)"><g><path d="M 21.890625 -5.140625 L 23.421875 -1.703125 C 22.660156 -0.941406 21.65625 -0.367188 20.40625 0.015625 C 19.164062 0.410156 17.820312 0.609375 16.375 0.609375 C 10.195312 0.609375 7.109375 -2.519531 7.109375 -8.78125 L 7.109375 -28.46875 L 1.46875 -28.46875 L 1.46875 -32.40625 L 7.109375 -32.40625 L 7.109375 -39.234375 L 11.890625 -40.03125 L 11.890625 -32.40625 L 22.3125 -32.40625 L 22.3125 -28.46875 L 11.890625 -28.46875 L 11.890625 -9.25 C 11.890625 -5.53125 13.503906 -3.671875 16.734375 -3.671875 C 18.492188 -3.671875 20.007812 -4.160156 21.28125 -5.140625 Z M 21.890625 -5.140625 "/></g></g></g><path fill="#ffaed5" d="M 174.964844 717.859375 C 174.964844 718.527344 174.902344 719.1875 174.773438 719.839844 C 174.640625 720.492188 174.449219 721.128906 174.195312 721.742188 C 173.9375 722.359375 173.625 722.945312 173.257812 723.496094 C 172.886719 724.050781 172.464844 724.5625 171.996094 725.035156 C 171.523438 725.507812 171.011719 725.925781 170.457031 726.296875 C 169.902344 726.667969 169.316406 726.980469 168.703125 727.234375 C 168.085938 727.488281 167.453125 727.683594 166.800781 727.8125 C 166.144531 727.941406 165.484375 728.007812 164.820312 728.007812 C 164.152344 728.007812 163.492188 727.941406 162.839844 727.8125 C 162.1875 727.683594 161.550781 727.488281 160.9375 727.234375 C 160.320312 726.980469 159.738281 726.667969 159.183594 726.296875 C 158.628906 725.925781 158.117188 725.507812 157.644531 725.035156 C 157.171875 724.5625 156.753906 724.050781 156.382812 723.496094 C 156.011719 722.945312 155.699219 722.359375 155.445312 721.742188 C 155.191406 721.128906 154.996094 720.492188 154.867188 719.839844 C 154.738281 719.1875 154.671875 718.527344 154.671875 717.859375 C 154.671875 717.195312 154.738281 716.535156 154.867188 715.882812 C 154.996094 715.226562 155.191406 714.59375 155.445312 713.976562 C 155.699219 713.363281 156.011719 712.777344 156.382812 712.222656 C 156.753906 711.667969 157.171875 711.15625 157.644531 710.6875 C 158.117188 710.214844 158.628906 709.792969 159.183594 709.421875 C 159.738281 709.054688 160.320312 708.742188 160.9375 708.484375 C 161.550781 708.230469 162.1875 708.039062 162.839844 707.910156 C 163.492188 707.777344 164.152344 707.714844 164.820312 707.714844 C 165.484375 707.714844 166.144531 707.777344 166.800781 707.910156 C 167.453125 708.039062 168.085938 708.230469 168.703125 708.484375 C 169.316406 708.742188 169.902344 709.054688 170.457031 709.421875 C 171.011719 709.792969 171.523438 710.214844 171.996094 710.6875 C 172.464844 711.15625 172.886719 711.667969 173.257812 712.222656 C 173.625 712.777344 173.9375 713.363281 174.195312 713.976562 C 174.449219 714.59375 174.640625 715.226562 174.773438 715.882812 C 174.902344 716.535156 174.964844 717.195312 174.964844 717.859375 Z M 174.964844 717.859375 " fill-opacity="1" fill-rule="nonzero"/><g fill="#ffaed5" fill-opacity="1"><g transform="translate(211.784057, 737.026709)"><g><path d="M 6.484375 0 L 6.484375 -42.90625 L 22.75 -42.90625 C 25.382812 -42.90625 27.625 -42.484375 29.46875 -41.640625 C 31.3125 -40.804688 32.695312 -39.609375 33.625 -38.046875 C 34.550781 -36.492188 35.015625 -34.640625 35.015625 -32.484375 C 35.015625 -30.628906 34.507812 -28.945312 33.5 -27.4375 C 32.488281 -25.9375 31.046875 -24.765625 29.171875 -23.921875 L 29.171875 -23.296875 C 32.023438 -22.597656 34.191406 -21.316406 35.671875 -19.453125 C 37.148438 -17.597656 37.890625 -15.257812 37.890625 -12.4375 C 37.890625 -8.445312 36.71875 -5.375 34.375 -3.21875 C 32.039062 -1.070312 28.578125 0 23.984375 0 Z M 22.515625 -24.890625 C 24.878906 -24.890625 26.71875 -25.507812 28.03125 -26.75 C 29.34375 -27.988281 30 -29.695312 30 -31.875 C 30 -34.164062 29.363281 -35.882812 28.09375 -37.03125 C 26.832031 -38.175781 24.972656 -38.75 22.515625 -38.75 L 11.53125 -38.75 L 11.53125 -24.890625 Z M 23.59375 -4.171875 C 29.695312 -4.171875 32.75 -6.925781 32.75 -12.4375 C 32.75 -17.957031 29.695312 -20.71875 23.59375 -20.71875 L 11.53125 -20.71875 L 11.53125 -4.171875 Z M 23.59375 -4.171875 "/></g></g></g><g fill="#ffaed5" fill-opacity="1"><g transform="translate(253.077479, 737.026709)"><g><path d="M 18.578125 0.609375 C 15.523438 0.609375 12.867188 -0.0351562 10.609375 -1.328125 C 8.347656 -2.617188 6.601562 -4.519531 5.375 -7.03125 C 4.15625 -9.539062 3.546875 -12.585938 3.546875 -16.171875 C 3.546875 -19.753906 4.15625 -22.804688 5.375 -25.328125 C 6.601562 -27.847656 8.347656 -29.753906 10.609375 -31.046875 C 12.867188 -32.335938 15.523438 -32.984375 18.578125 -32.984375 C 21.628906 -32.984375 24.285156 -32.335938 26.546875 -31.046875 C 28.804688 -29.753906 30.546875 -27.847656 31.765625 -25.328125 C 32.992188 -22.804688 33.609375 -19.753906 33.609375 -16.171875 C 33.609375 -12.585938 32.992188 -9.539062 31.765625 -7.03125 C 30.546875 -4.519531 28.804688 -2.617188 26.546875 -1.328125 C 24.285156 -0.0351562 21.628906 0.609375 18.578125 0.609375 Z M 18.578125 -3.671875 C 21.804688 -3.671875 24.273438 -4.6875 25.984375 -6.71875 C 27.703125 -8.757812 28.5625 -11.910156 28.5625 -16.171875 C 28.5625 -20.453125 27.703125 -23.609375 25.984375 -25.640625 C 24.273438 -27.679688 21.804688 -28.703125 18.578125 -28.703125 C 15.347656 -28.703125 12.867188 -27.679688 11.140625 -25.640625 C 9.421875 -23.597656 8.5625 -20.441406 8.5625 -16.171875 C 8.5625 -11.910156 9.421875 -8.757812 11.140625 -6.71875 C 12.867188 -4.6875 15.347656 -3.671875 18.578125 -3.671875 Z M 18.578125 -3.671875 "/></g></g></g><g fill="#ffaed5" fill-opacity="1"><g transform="translate(290.232755, 737.026709)"><g><path d="M 18.578125 0.609375 C 15.523438 0.609375 12.867188 -0.0351562 10.609375 -1.328125 C 8.347656 -2.617188 6.601562 -4.519531 5.375 -7.03125 C 4.15625 -9.539062 3.546875 -12.585938 3.546875 -16.171875 C 3.546875 -19.753906 4.15625 -22.804688 5.375 -25.328125 C 6.601562 -27.847656 8.347656 -29.753906 10.609375 -31.046875 C 12.867188 -32.335938 15.523438 -32.984375 18.578125 -32.984375 C 21.628906 -32.984375 24.285156 -32.335938 26.546875 -31.046875 C 28.804688 -29.753906 30.546875 -27.847656 31.765625 -25.328125 C 32.992188 -22.804688 33.609375 -19.753906 33.609375 -16.171875 C 33.609375 -12.585938 32.992188 -9.539062 31.765625 -7.03125 C 30.546875 -4.519531 28.804688 -2.617188 26.546875 -1.328125 C 24.285156 -0.0351562 21.628906 0.609375 18.578125 0.609375 Z M 18.578125 -3.671875 C 21.804688 -3.671875 24.273438 -4.6875 25.984375 -6.71875 C 27.703125 -8.757812 28.5625 -11.910156 28.5625 -16.171875 C 28.5625 -20.453125 27.703125 -23.609375 25.984375 -25.640625 C 24.273438 -27.679688 21.804688 -28.703125 18.578125 -28.703125 C 15.347656 -28.703125 12.867188 -27.679688 11.140625 -25.640625 C 9.421875 -23.597656 8.5625 -20.441406 8.5625 -16.171875 C 8.5625 -11.910156 9.421875 -8.757812 11.140625 -6.71875 C 12.867188 -4.6875 15.347656 -3.671875 18.578125 -3.671875 Z M 18.578125 -3.671875 "/></g></g></g><g fill="#ffaed5" fill-opacity="1"><g transform="translate(327.38803, 737.026709)"><g><path d="M 21.890625 -5.140625 L 23.421875 -1.703125 C 22.660156 -0.941406 21.65625 -0.367188 20.40625 0.015625 C 19.164062 0.410156 17.820312 0.609375 16.375 0.609375 C 10.195312 0.609375 7.109375 -2.519531 7.109375 -8.78125 L 7.109375 -28.46875 L 1.46875 -28.46875 L 1.46875 -32.40625 L 7.109375 -32.40625 L 7.109375 -39.234375 L 11.890625 -40.03125 L 11.890625 -32.40625 L 22.3125 -32.40625 L 22.3125 -28.46875 L 11.890625 -28.46875 L 11.890625 -9.25 C 11.890625 -5.53125 13.503906 -3.671875 16.734375 -3.671875 C 18.492188 -3.671875 20.007812 -4.160156 21.28125 -5.140625 Z M 21.890625 -5.140625 "/></g></g></g><g fill="#ffaed5" fill-opacity="1"><g transform="translate(352.04082, 737.026709)"><g><path d="M 14.765625 0.609375 C 12.722656 0.609375 10.835938 0.34375 9.109375 -0.1875 C 7.378906 -0.726562 5.914062 -1.46875 4.71875 -2.40625 C 3.53125 -3.34375 2.691406 -4.398438 2.203125 -5.578125 L 5.015625 -8.515625 L 5.640625 -8.515625 C 6.691406 -6.910156 7.960938 -5.703125 9.453125 -4.890625 C 10.941406 -4.078125 12.710938 -3.671875 14.765625 -3.671875 C 17.148438 -3.671875 18.960938 -4.132812 20.203125 -5.0625 C 21.453125 -5.988281 22.078125 -7.285156 22.078125 -8.953125 C 22.078125 -10.222656 21.695312 -11.273438 20.9375 -12.109375 C 20.1875 -12.941406 18.96875 -13.5625 17.28125 -13.96875 L 11.828125 -15.328125 C 8.910156 -16.023438 6.78125 -17.132812 5.4375 -18.65625 C 4.101562 -20.1875 3.4375 -22.078125 3.4375 -24.328125 C 3.4375 -26.085938 3.882812 -27.617188 4.78125 -28.921875 C 5.6875 -30.222656 6.984375 -31.222656 8.671875 -31.921875 C 10.367188 -32.628906 12.378906 -32.984375 14.703125 -32.984375 C 17.679688 -32.984375 20.023438 -32.566406 21.734375 -31.734375 C 23.441406 -30.910156 24.773438 -29.753906 25.734375 -28.265625 L 23.046875 -25.625 L 22.453125 -25.625 C 21.410156 -26.8125 20.28125 -27.671875 19.0625 -28.203125 C 17.84375 -28.734375 16.390625 -29 14.703125 -29 C 12.566406 -29 10.929688 -28.613281 9.796875 -27.84375 C 8.660156 -27.082031 8.09375 -25.976562 8.09375 -24.53125 C 8.09375 -23.226562 8.492188 -22.171875 9.296875 -21.359375 C 10.097656 -20.554688 11.5 -19.914062 13.5 -19.4375 L 18.875 -18.140625 C 21.6875 -17.472656 23.71875 -16.363281 24.96875 -14.8125 C 26.226562 -13.269531 26.859375 -11.335938 26.859375 -9.015625 C 26.859375 -7.109375 26.40625 -5.429688 25.5 -3.984375 C 24.601562 -2.535156 23.242188 -1.40625 21.421875 -0.59375 C 19.609375 0.207031 17.390625 0.609375 14.765625 0.609375 Z M 14.765625 0.609375 "/></g></g></g><g fill="#ffaed5" fill-opacity="1"><g transform="translate(381.976349, 737.026709)"><g><path d="M 21.890625 -5.140625 L 23.421875 -1.703125 C 22.660156 -0.941406 21.65625 -0.367188 20.40625 0.015625 C 19.164062 0.410156 17.820312 0.609375 16.375 0.609375 C 10.195312 0.609375 7.109375 -2.519531 7.109375 -8.78125 L 7.109375 -28.46875 L 1.46875 -28.46875 L 1.46875 -32.40625 L 7.109375 -32.40625 L 7.109375 -39.234375 L 11.890625 -40.03125 L 11.890625 -32.40625 L 22.3125 -32.40625 L 22.3125 -28.46875 L 11.890625 -28.46875 L 11.890625 -9.25 C 11.890625 -5.53125 13.503906 -3.671875 16.734375 -3.671875 C 18.492188 -3.671875 20.007812 -4.160156 21.28125 -5.140625 Z M 21.890625 -5.140625 "/></g></g></g><g fill="#ffaed5" fill-opacity="1"><g transform="translate(406.629139, 737.026709)"><g><path d="M 5.640625 0 L 5.640625 -32.375 L 10.1875 -32.375 L 10.1875 -27.296875 L 10.796875 -27.15625 C 12.304688 -30.832031 15.144531 -32.671875 19.3125 -32.671875 C 21.519531 -32.671875 23.171875 -32.269531 24.265625 -31.46875 L 23.046875 -27.40625 L 22.453125 -27.296875 C 21.242188 -27.898438 19.914062 -28.203125 18.46875 -28.203125 C 15.882812 -28.203125 13.894531 -27.234375 12.5 -25.296875 C 11.113281 -23.359375 10.421875 -20.21875 10.421875 -15.875 L 10.421875 0 Z M 5.640625 0 "/></g></g></g><g fill="#ffaed5" fill-opacity="1"><g transform="translate(431.634111, 737.026709)"><g><path d="M 13.359375 0.609375 C 10.160156 0.609375 7.664062 -0.21875 5.875 -1.875 C 4.09375 -3.539062 3.203125 -5.921875 3.203125 -9.015625 C 3.203125 -10.929688 3.597656 -12.546875 4.390625 -13.859375 C 5.179688 -15.179688 6.40625 -16.257812 8.0625 -17.09375 C 9.726562 -17.925781 11.90625 -18.566406 14.59375 -19.015625 C 16.9375 -19.410156 18.71875 -19.851562 19.9375 -20.34375 C 21.164062 -20.832031 21.988281 -21.378906 22.40625 -21.984375 C 22.832031 -22.585938 23.046875 -23.347656 23.046875 -24.265625 C 23.046875 -25.734375 22.539062 -26.859375 21.53125 -27.640625 C 20.519531 -28.429688 18.898438 -28.828125 16.671875 -28.828125 C 14.578125 -28.828125 12.78125 -28.421875 11.28125 -27.609375 C 9.789062 -26.796875 8.414062 -25.585938 7.15625 -23.984375 L 6.578125 -23.984375 L 4.21875 -27.296875 C 5.59375 -29.035156 7.335938 -30.414062 9.453125 -31.4375 C 11.566406 -32.46875 13.972656 -32.984375 16.671875 -32.984375 C 20.484375 -32.984375 23.296875 -32.144531 25.109375 -30.46875 C 26.921875 -28.800781 27.828125 -26.488281 27.828125 -23.53125 L 27.828125 -6.375 C 27.828125 -4.570312 28.585938 -3.671875 30.109375 -3.671875 C 30.617188 -3.671875 31.109375 -3.757812 31.578125 -3.9375 L 31.984375 -3.8125 L 32.546875 -0.5 C 32.191406 -0.257812 31.726562 -0.078125 31.15625 0.046875 C 30.582031 0.171875 29.988281 0.234375 29.375 0.234375 C 27.59375 0.234375 26.25 -0.15625 25.34375 -0.9375 C 24.4375 -1.71875 23.851562 -2.875 23.59375 -4.40625 L 22.984375 -4.46875 C 22.066406 -2.757812 20.820312 -1.484375 19.25 -0.640625 C 17.6875 0.191406 15.722656 0.609375 13.359375 0.609375 Z M 14.40625 -3.203125 C 16.207031 -3.203125 17.769531 -3.613281 19.09375 -4.4375 C 20.414062 -5.269531 21.425781 -6.441406 22.125 -7.953125 C 22.832031 -9.460938 23.1875 -11.203125 23.1875 -13.171875 L 23.1875 -17.28125 L 22.625 -17.40625 C 21.90625 -16.894531 21.023438 -16.46875 19.984375 -16.125 C 18.953125 -15.78125 17.503906 -15.472656 15.640625 -15.203125 C 13.765625 -14.953125 12.273438 -14.5625 11.171875 -14.03125 C 10.066406 -13.5 9.273438 -12.828125 8.796875 -12.015625 C 8.328125 -11.203125 8.09375 -10.203125 8.09375 -9.015625 C 8.09375 -7.109375 8.648438 -5.660156 9.765625 -4.671875 C 10.890625 -3.691406 12.4375 -3.203125 14.40625 -3.203125 Z M 14.40625 -3.203125 "/></g></g></g><g fill="#ffaed5" fill-opacity="1"><g transform="translate(465.120817, 737.026709)"><g><path d="M 5.640625 13.125 L 5.640625 -32.375 L 10.421875 -32.375 L 10.421875 -27.53125 L 11.03125 -27.40625 C 13.4375 -31.125 16.96875 -32.984375 21.625 -32.984375 C 24.332031 -32.984375 26.691406 -32.367188 28.703125 -31.140625 C 30.722656 -29.910156 32.289062 -28.035156 33.40625 -25.515625 C 34.519531 -23.003906 35.078125 -19.890625 35.078125 -16.171875 C 35.078125 -12.472656 34.488281 -9.367188 33.3125 -6.859375 C 32.132812 -4.359375 30.507812 -2.488281 28.4375 -1.25 C 26.363281 -0.0078125 23.976562 0.609375 21.28125 0.609375 C 19.082031 0.609375 17.132812 0.226562 15.4375 -0.53125 C 13.738281 -1.289062 12.269531 -2.539062 11.03125 -4.28125 L 10.421875 -4.171875 L 10.421875 13.125 Z M 20.21875 -3.671875 C 26.78125 -3.671875 30.0625 -7.835938 30.0625 -16.171875 C 30.0625 -24.523438 26.78125 -28.703125 20.21875 -28.703125 C 18.300781 -28.703125 16.609375 -28.257812 15.140625 -27.375 C 13.671875 -26.5 12.515625 -25.125 11.671875 -23.25 C 10.835938 -21.382812 10.421875 -19.023438 10.421875 -16.171875 C 10.421875 -13.335938 10.835938 -10.984375 11.671875 -9.109375 C 12.515625 -7.242188 13.671875 -5.867188 15.140625 -4.984375 C 16.609375 -4.109375 18.300781 -3.671875 20.21875 -3.671875 Z M 20.21875 -3.671875 "/></g></g></g><g fill="#ffaed5" fill-opacity="1"><g transform="translate(503.716695, 737.026709)"><g/></g></g></svg>