<svg xmlns="http://www.w3.org/2000/svg" xmlns:xlink="http://www.w3.org/1999/xlink" width="500" zoomAndPan="magnify" viewBox="0 0 375 374.999991" height="500" preserveAspectRatio="xMidYMid meet" version="1.0"><path fill="#ffffff" d="M 53.113281 324.285156 C 37.953125 309.125 37.953125 284.59375 53.109375 269.433594 L 151.929688 170.613281 C 154.195312 168.347656 157.867188 168.347656 160.136719 170.613281 L 206.777344 217.257812 C 209.042969 219.523438 209.042969 223.199219 206.777344 225.464844 L 107.960938 324.285156 C 92.804688 339.4375 68.269531 339.441406 53.113281 324.285156 Z M 156.03125 182.925781 L 61.316406 277.640625 C 50.699219 288.261719 50.695312 305.453125 61.316406 316.074219 C 71.941406 326.695312 89.128906 326.699219 99.753906 316.074219 L 194.46875 221.363281 Z M 156.03125 182.925781 " fill-opacity="1" fill-rule="nonzero"/><path fill="#ffffff" d="M 179.140625 244.894531 L 132.5 198.25 C 130.234375 195.984375 130.234375 192.3125 132.5 190.042969 C 134.765625 187.777344 138.441406 187.777344 140.707031 190.042969 L 187.351562 236.6875 C 189.617188 238.953125 189.617188 242.628906 187.351562 244.894531 C 185.082031 247.160156 181.410156 247.160156 179.140625 244.894531 Z M 179.140625 244.894531 " fill-opacity="1" fill-rule="nonzero"/><path fill="#ffffff" d="M 158.625 265.410156 L 111.980469 218.769531 C 109.714844 216.503906 109.714844 212.828125 111.980469 210.5625 C 114.25 208.296875 117.921875 208.296875 120.191406 210.5625 L 166.832031 257.203125 C 169.097656 259.46875 169.097656 263.144531 166.832031 265.410156 C 164.5625 267.679688 160.890625 267.679688 158.625 265.410156 Z M 158.625 265.410156 " fill-opacity="1" fill-rule="nonzero"/><path fill="#ffffff" d="M 188.207031 215.101562 L 162.292969 189.1875 C 160.027344 186.921875 160.027344 183.246094 162.292969 180.980469 L 259.507812 83.765625 L 264.257812 69.515625 C 264.644531 68.355469 265.394531 67.34375 266.390625 66.628906 L 302.667969 40.71875 C 304.976562 39.070312 308.140625 39.328125 310.144531 41.335938 L 336.058594 67.25 C 338.0625 69.253906 338.324219 72.417969 336.675781 74.726562 L 310.765625 111.003906 C 310.050781 112 309.039062 112.746094 307.878906 113.136719 L 293.628906 117.882812 L 196.414062 215.101562 C 194.152344 217.363281 190.476562 217.371094 188.207031 215.101562 Z M 174.605469 185.082031 L 192.308594 202.789062 L 286.390625 108.707031 C 287.027344 108.070312 287.804688 107.589844 288.660156 107.308594 L 302.417969 102.722656 L 324.375 71.980469 L 305.414062 53.019531 L 274.671875 74.976562 L 270.085938 88.734375 C 269.800781 89.589844 269.320312 90.367188 268.683594 91.003906 Z M 174.605469 185.082031 " fill-opacity="1" fill-rule="nonzero"/><path fill="#ffffff" d="M 252.476562 321 C 238.605469 307.128906 234.203125 286.160156 241.078125 267.972656 L 188.207031 215.101562 C 185.9375 212.835938 185.9375 209.160156 188.207031 206.894531 C 190.472656 204.628906 194.144531 204.628906 196.414062 206.894531 L 251.335938 261.816406 C 253.460938 263.972656 254.042969 267.238281 252.808594 269.96875 C 246.324219 284.378906 249.488281 301.59375 260.683594 312.792969 C 270.085938 322.195312 283.570312 325.914062 296.191406 323.09375 L 278.488281 305.390625 C 276.222656 303.125 276.222656 299.449219 278.488281 297.183594 L 299.300781 276.371094 C 301.566406 274.105469 305.242188 274.105469 307.507812 276.371094 L 325.210938 294.070312 C 328.027344 281.453125 324.308594 267.96875 314.910156 258.566406 C 303.714844 247.367188 286.496094 244.207031 272.074219 250.695312 C 269.351562 251.925781 266.089844 251.34375 263.960938 249.242188 L 209.011719 194.296875 C 206.746094 192.027344 206.746094 188.355469 209.011719 186.085938 C 211.277344 183.820312 214.953125 183.820312 217.21875 186.085938 L 270.09375 238.960938 C 288.285156 232.082031 309.246094 236.488281 323.117188 250.359375 C 338.050781 265.292969 341.972656 288.136719 332.875 307.207031 C 331.15625 310.808594 326.375 311.648438 323.535156 308.808594 L 303.40625 288.679688 L 290.796875 301.289062 L 310.925781 321.414062 C 313.753906 324.242188 312.941406 329.03125 309.324219 330.757812 C 290.175781 339.898438 267.351562 335.875 252.476562 321 Z M 252.476562 321 " fill-opacity="1" fill-rule="nonzero"/><path fill="#ffffff" d="M 162.292969 189.1875 L 109.417969 136.316406 C 91.222656 143.1875 70.261719 138.785156 56.394531 124.917969 C 41.457031 109.980469 37.535156 87.132812 46.636719 68.070312 C 48.359375 64.460938 53.144531 63.632812 55.980469 66.464844 L 76.109375 86.597656 L 88.714844 73.988281 L 68.585938 53.859375 C 65.757812 51.035156 66.570312 46.246094 70.1875 44.519531 C 89.257812 35.421875 112.101562 39.34375 127.035156 54.277344 C 140.90625 68.148438 145.3125 89.117188 138.433594 107.300781 L 191.308594 160.175781 C 193.574219 162.441406 193.574219 166.113281 191.308594 168.382812 C 189.039062 170.648438 185.367188 170.648438 183.097656 168.382812 L 128.175781 113.460938 C 126.050781 111.304688 125.46875 108.039062 126.703125 105.308594 C 133.1875 90.898438 130.027344 73.683594 118.828125 62.484375 C 109.425781 53.085938 95.945312 49.367188 83.324219 52.1875 L 101.023438 69.886719 C 103.289062 72.152344 103.289062 75.828125 101.023438 78.09375 L 80.210938 98.90625 C 79.121094 99.996094 77.648438 100.605469 76.109375 100.605469 C 74.570312 100.605469 73.09375 99.996094 72.003906 98.90625 L 54.300781 81.203125 C 51.480469 93.820312 55.195312 107.304688 64.601562 116.710938 C 75.796875 127.90625 93.011719 131.070312 107.4375 124.582031 C 110.15625 123.351562 113.421875 123.933594 115.546875 126.03125 L 170.5 180.980469 C 172.765625 183.246094 172.765625 186.921875 170.5 189.1875 C 168.230469 191.457031 164.558594 191.453125 162.292969 189.1875 Z M 162.292969 189.1875 " fill-opacity="1" fill-rule="nonzero"/></svg>