<svg xmlns="http://www.w3.org/2000/svg" xmlns:xlink="http://www.w3.org/1999/xlink" width="1080" zoomAndPan="magnify" viewBox="0 0 810 809.999993" height="1080" preserveAspectRatio="xMidYMid meet" version="1.0"><defs><g/><clipPath id="ba96c47249"><path d="M 312.640625 53.339844 L 498.203125 53.339844 L 498.203125 238.90625 L 312.640625 238.90625 Z M 312.640625 53.339844 " clip-rule="nonzero"/></clipPath></defs><g clip-path="url(#ba96c47249)"><path fill="#ffaed5" d="M 405.421875 53.339844 C 354.222656 53.339844 312.640625 94.925781 312.640625 146.125 C 312.640625 197.320312 354.222656 238.90625 405.421875 238.90625 C 456.617188 238.90625 498.203125 197.320312 498.203125 146.125 C 498.203125 94.925781 456.617188 53.339844 405.421875 53.339844 Z M 405.421875 61.410156 C 452.253906 61.410156 490.136719 99.292969 490.136719 146.125 C 490.136719 192.957031 452.253906 230.835938 405.421875 230.835938 C 358.589844 230.835938 320.707031 192.957031 320.707031 146.125 C 320.707031 99.292969 358.589844 61.410156 405.421875 61.410156 Z M 399.859375 87.628906 C 368.199219 95.164062 331.421875 133.644531 335 162.765625 C 352.222656 132.382812 363.882812 128.253906 367.050781 128.253906 C 370.234375 128.253906 371.953125 129.972656 371.953125 133.644531 L 371.953125 178.914062 C 371.953125 184.542969 366.515625 183.863281 362.90625 183.3125 C 376.269531 203.246094 407.4375 204.617188 407.4375 204.617188 L 421.398438 189.441406 L 434.855469 200.945312 C 455.359375 187.675781 468.894531 165.191406 468.894531 161.785156 C 458.746094 172.976562 450.03125 175.007812 448.078125 175.007812 C 446.125 175.007812 442.941406 174.769531 442.941406 172.078125 L 442.941406 118.375 C 442.941406 113.710938 455.765625 98.410156 459.816406 93.253906 C 433.140625 100.253906 422.863281 113.582031 422.863281 113.582031 C 422.863281 113.582031 419.273438 110.890625 411.363281 110.890625 C 414.324219 113.410156 418.46875 117.980469 418.46875 123.367188 L 418.46875 172.550781 C 418.46875 172.550781 409.644531 178.914062 404.507812 178.914062 C 399.371094 178.914062 395.699219 176.726562 395.699219 172.800781 L 395.699219 114.054688 C 395.699219 114.054688 388.355469 119.210938 388.355469 104.019531 C 388.355469 96.4375 399.859375 87.628906 399.859375 87.628906 Z M 399.859375 87.628906 " fill-opacity="1" fill-rule="nonzero"/></g><g fill="#ffaed5" fill-opacity="1"><g transform="translate(307.591696, 331.428057)"><g><path d="M 27.21875 0.71875 C 22.914062 0.71875 19.085938 -0.207031 15.734375 -2.0625 C 12.390625 -3.925781 9.753906 -6.765625 7.828125 -10.578125 C 5.910156 -14.390625 4.953125 -19.132812 4.953125 -24.8125 C 4.953125 -30.488281 5.910156 -35.234375 7.828125 -39.046875 C 9.753906 -42.859375 12.390625 -45.691406 15.734375 -47.546875 C 19.085938 -49.398438 22.914062 -50.328125 27.21875 -50.328125 C 31.519531 -50.328125 35.34375 -49.398438 38.6875 -47.546875 C 42.03125 -45.691406 44.664062 -42.859375 46.59375 -39.046875 C 48.519531 -35.234375 49.484375 -30.488281 49.484375 -24.8125 C 49.484375 -19.132812 48.519531 -14.390625 46.59375 -10.578125 C 44.664062 -6.765625 42.03125 -3.925781 38.6875 -2.0625 C 35.34375 -0.207031 31.519531 0.71875 27.21875 0.71875 Z M 27.21875 -4.6875 C 32.375 -4.6875 36.332031 -6.296875 39.09375 -9.515625 C 41.851562 -12.742188 43.234375 -17.84375 43.234375 -24.8125 C 43.234375 -31.78125 41.851562 -36.875 39.09375 -40.09375 C 36.332031 -43.320312 32.375 -44.9375 27.21875 -44.9375 C 16.539062 -44.9375 11.203125 -38.226562 11.203125 -24.8125 C 11.203125 -11.394531 16.539062 -4.6875 27.21875 -4.6875 Z M 27.21875 -4.6875 "/></g></g></g><g fill="#ffaed5" fill-opacity="1"><g transform="translate(362.015621, 331.428057)"><g><path d="M 25.3125 -5.9375 L 27.078125 -1.96875 C 26.191406 -1.082031 25.03125 -0.414062 23.59375 0.03125 C 22.164062 0.488281 20.613281 0.71875 18.9375 0.71875 C 11.789062 0.71875 8.21875 -2.898438 8.21875 -10.140625 L 8.21875 -32.921875 L 1.703125 -32.921875 L 1.703125 -37.46875 L 8.21875 -37.46875 L 8.21875 -45.375 L 13.75 -46.28125 L 13.75 -37.46875 L 25.796875 -37.46875 L 25.796875 -32.921875 L 13.75 -32.921875 L 13.75 -10.6875 C 13.75 -6.382812 15.613281 -4.234375 19.34375 -4.234375 C 21.375 -4.234375 23.128906 -4.800781 24.609375 -5.9375 Z M 25.3125 -5.9375 "/></g></g></g><g fill="#ffaed5" fill-opacity="1"><g transform="translate(390.516928, 331.428057)"><g><path d="M 6.515625 0 L 6.515625 -52.46875 L 12.046875 -52.46875 L 12.046875 -32.109375 L 12.765625 -31.96875 C 15.429688 -36.082031 19.285156 -38.140625 24.328125 -38.140625 C 28.828125 -38.140625 32.085938 -36.988281 34.109375 -34.6875 C 36.140625 -32.394531 37.15625 -28.863281 37.15625 -24.09375 L 37.15625 0 L 31.625 0 L 31.625 -23.953125 C 31.625 -26.222656 31.332031 -28.039062 30.75 -29.40625 C 30.175781 -30.769531 29.285156 -31.765625 28.078125 -32.390625 C 26.867188 -33.015625 25.28125 -33.328125 23.3125 -33.328125 C 19.914062 -33.328125 17.1875 -32.226562 15.125 -30.03125 C 13.070312 -27.832031 12.046875 -24.222656 12.046875 -19.203125 L 12.046875 0 Z M 6.515625 0 "/></g></g></g><g fill="#ffaed5" fill-opacity="1"><g transform="translate(433.608189, 331.428057)"><g><path d="M 35.671875 -17.4375 L 9.9375 -17.4375 C 10.101562 -12.894531 11.195312 -9.554688 13.21875 -7.421875 C 15.238281 -5.296875 18.015625 -4.234375 21.546875 -4.234375 C 24.210938 -4.234375 26.359375 -4.707031 27.984375 -5.65625 C 29.617188 -6.613281 30.898438 -8.109375 31.828125 -10.140625 L 32.546875 -10.140625 L 36.140625 -8.015625 C 35.054688 -5.296875 33.320312 -3.160156 30.9375 -1.609375 C 28.550781 -0.0546875 25.421875 0.71875 21.546875 0.71875 C 17.929688 0.71875 14.820312 0.00390625 12.21875 -1.421875 C 9.613281 -2.847656 7.609375 -5.007812 6.203125 -7.90625 C 4.804688 -10.800781 4.109375 -14.398438 4.109375 -18.703125 C 4.109375 -22.953125 4.847656 -26.535156 6.328125 -29.453125 C 7.804688 -32.367188 9.828125 -34.546875 12.390625 -35.984375 C 14.960938 -37.421875 17.898438 -38.140625 21.203125 -38.140625 C 26.003906 -38.140625 29.75 -36.785156 32.4375 -34.078125 C 35.132812 -31.378906 36.492188 -27.375 36.515625 -22.0625 C 36.515625 -19.976562 36.46875 -18.570312 36.375 -17.84375 Z M 31.046875 -22.0625 C 30.960938 -26.039062 30.082031 -28.929688 28.40625 -30.734375 C 26.726562 -32.546875 24.328125 -33.453125 21.203125 -33.453125 C 17.929688 -33.453125 15.359375 -32.539062 13.484375 -30.71875 C 11.617188 -28.90625 10.484375 -26.019531 10.078125 -22.0625 Z M 31.046875 -22.0625 "/></g></g></g><g fill="#ffaed5" fill-opacity="1"><g transform="translate(473.510018, 331.428057)"><g><path d="M 6.515625 0 L 6.515625 -37.4375 L 11.78125 -37.4375 L 11.78125 -31.5625 L 12.484375 -31.390625 C 14.222656 -35.640625 17.503906 -37.765625 22.328125 -37.765625 C 24.890625 -37.765625 26.800781 -37.300781 28.0625 -36.375 L 26.640625 -31.703125 L 25.953125 -31.5625 C 24.554688 -32.257812 23.019531 -32.609375 21.34375 -32.609375 C 18.351562 -32.609375 16.054688 -31.488281 14.453125 -29.25 C 12.847656 -27.007812 12.046875 -23.378906 12.046875 -18.359375 L 12.046875 0 Z M 6.515625 0 "/></g></g></g><path fill="#ffaed5" d="M 164.707031 445.492188 C 164.707031 446.105469 164.648438 446.71875 164.527344 447.320312 C 164.40625 447.925781 164.226562 448.511719 163.992188 449.082031 C 163.757812 449.648438 163.46875 450.191406 163.125 450.703125 C 162.785156 451.214844 162.394531 451.6875 161.957031 452.125 C 161.523438 452.5625 161.050781 452.949219 160.535156 453.292969 C 160.023438 453.632812 159.484375 453.921875 158.914062 454.160156 C 158.34375 454.394531 157.757812 454.574219 157.15625 454.691406 C 156.550781 454.8125 155.941406 454.875 155.324219 454.875 C 154.707031 454.875 154.097656 454.8125 153.492188 454.691406 C 152.890625 454.574219 152.304688 454.394531 151.734375 454.160156 C 151.164062 453.921875 150.625 453.632812 150.113281 453.292969 C 149.597656 452.949219 149.125 452.5625 148.691406 452.125 C 148.253906 451.6875 147.867188 451.214844 147.523438 450.703125 C 147.179688 450.191406 146.890625 449.648438 146.65625 449.082031 C 146.421875 448.511719 146.242188 447.925781 146.121094 447.320312 C 146.003906 446.71875 145.941406 446.105469 145.941406 445.492188 C 145.941406 444.875 146.003906 444.265625 146.121094 443.660156 C 146.242188 443.054688 146.421875 442.46875 146.65625 441.898438 C 146.890625 441.332031 147.179688 440.789062 147.523438 440.277344 C 147.867188 439.765625 148.253906 439.292969 148.691406 438.855469 C 149.125 438.421875 149.597656 438.03125 150.113281 437.6875 C 150.625 437.347656 151.164062 437.058594 151.734375 436.824219 C 152.304688 436.585938 152.890625 436.410156 153.492188 436.289062 C 154.097656 436.167969 154.707031 436.109375 155.324219 436.109375 C 155.941406 436.109375 156.550781 436.167969 157.15625 436.289062 C 157.757812 436.410156 158.34375 436.585938 158.914062 436.824219 C 159.484375 437.058594 160.023438 437.347656 160.535156 437.6875 C 161.050781 438.03125 161.523438 438.421875 161.957031 438.855469 C 162.394531 439.292969 162.785156 439.765625 163.125 440.277344 C 163.46875 440.789062 163.757812 441.332031 163.992188 441.898438 C 164.226562 442.46875 164.40625 443.054688 164.527344 443.660156 C 164.648438 444.265625 164.707031 444.875 164.707031 445.492188 Z M 164.707031 445.492188 " fill-opacity="1" fill-rule="nonzero"/><g fill="#ffaed5" fill-opacity="1"><g transform="translate(198.750844, 463.213046)"><g><path d="M 20.875 0.5625 C 17.539062 0.5625 14.601562 -0.191406 12.0625 -1.703125 C 9.519531 -3.222656 7.535156 -5.507812 6.109375 -8.5625 C 4.679688 -11.625 3.96875 -15.382812 3.96875 -19.84375 C 3.96875 -24.289062 4.726562 -28.039062 6.25 -31.09375 C 7.78125 -34.15625 9.898438 -36.445312 12.609375 -37.96875 C 15.328125 -39.488281 18.460938 -40.25 22.015625 -40.25 C 25.804688 -40.25 28.921875 -39.5625 31.359375 -38.1875 C 33.804688 -36.820312 35.535156 -34.785156 36.546875 -32.078125 L 33.515625 -30.28125 L 32.84375 -30.28125 C 31.8125 -32.34375 30.414062 -33.820312 28.65625 -34.71875 C 26.90625 -35.613281 24.691406 -36.0625 22.015625 -36.0625 C 13.304688 -36.0625 8.953125 -30.65625 8.953125 -19.84375 C 8.953125 -14.207031 10.046875 -10.097656 12.234375 -7.515625 C 14.421875 -4.929688 17.488281 -3.640625 21.4375 -3.640625 C 25.050781 -3.640625 27.757812 -4.460938 29.5625 -6.109375 C 31.363281 -7.753906 32.265625 -10.347656 32.265625 -13.890625 L 32.265625 -17.390625 L 20.984375 -17.390625 L 20.984375 -21.140625 L 36.796875 -21.140625 L 36.796875 0 L 32.484375 0 L 32.484375 -5.3125 L 31.90625 -5.453125 C 30.863281 -3.410156 29.40625 -1.894531 27.53125 -0.90625 C 25.65625 0.0703125 23.4375 0.5625 20.875 0.5625 Z M 20.875 0.5625 "/></g></g></g><g fill="#ffaed5" fill-opacity="1"><g transform="translate(240.000208, 463.213046)"><g><path d="M 7.4375 -35.71875 C 6.5 -35.71875 5.734375 -36.007812 5.140625 -36.59375 C 4.554688 -37.1875 4.265625 -37.929688 4.265625 -38.828125 C 4.265625 -39.734375 4.554688 -40.476562 5.140625 -41.0625 C 5.734375 -41.65625 6.5 -41.953125 7.4375 -41.953125 C 8.375 -41.953125 9.132812 -41.65625 9.71875 -41.0625 C 10.3125 -40.476562 10.609375 -39.734375 10.609375 -38.828125 C 10.609375 -37.929688 10.3125 -37.1875 9.71875 -36.59375 C 9.132812 -36.007812 8.375 -35.71875 7.4375 -35.71875 Z M 5.203125 0 L 5.203125 -29.9375 L 9.640625 -29.9375 L 9.640625 0 Z M 5.203125 0 "/></g></g></g><g fill="#ffaed5" fill-opacity="1"><g transform="translate(254.844551, 463.213046)"><g><path d="M 20.25 -4.75 L 21.65625 -1.578125 C 20.945312 -0.867188 20.019531 -0.335938 18.875 0.015625 C 17.726562 0.378906 16.484375 0.5625 15.140625 0.5625 C 9.421875 0.5625 6.5625 -2.328125 6.5625 -8.109375 L 6.5625 -26.328125 L 1.359375 -26.328125 L 1.359375 -29.953125 L 6.5625 -29.953125 L 6.5625 -36.28125 L 10.984375 -37.015625 L 10.984375 -29.953125 L 20.625 -29.953125 L 20.625 -26.328125 L 10.984375 -26.328125 L 10.984375 -8.546875 C 10.984375 -5.109375 12.476562 -3.390625 15.46875 -3.390625 C 17.09375 -3.390625 18.492188 -3.84375 19.671875 -4.75 Z M 20.25 -4.75 "/></g></g></g><g fill="#ffaed5" fill-opacity="1"><g transform="translate(277.640252, 463.213046)"><g><path d="M 31.296875 -23.578125 L 31.296875 -39.671875 L 35.9375 -39.671875 L 35.9375 0 L 31.296875 0 L 31.296875 -19.625 L 10.671875 -19.625 L 10.671875 0 L 6 0 L 6 -39.671875 L 10.671875 -39.671875 L 10.671875 -23.578125 Z M 31.296875 -23.578125 "/></g></g></g><g fill="#ffaed5" fill-opacity="1"><g transform="translate(319.595196, 463.213046)"><g><path d="M 14.796875 0.5625 C 11.410156 0.5625 8.890625 -0.328125 7.234375 -2.109375 C 5.578125 -3.898438 4.75 -6.523438 4.75 -9.984375 L 4.75 -29.9375 L 9.171875 -29.9375 L 9.171875 -10.09375 C 9.171875 -5.550781 11.304688 -3.28125 15.578125 -3.28125 C 18.285156 -3.28125 20.425781 -4.164062 22 -5.9375 C 23.582031 -7.71875 24.375 -10.597656 24.375 -14.578125 L 24.375 -29.9375 L 28.796875 -29.9375 L 28.796875 0 L 24.609375 0 L 24.609375 -4.6875 L 24.046875 -4.828125 C 23.015625 -3.003906 21.78125 -1.648438 20.34375 -0.765625 C 18.90625 0.117188 17.054688 0.5625 14.796875 0.5625 Z M 14.796875 0.5625 "/></g></g></g><g fill="#ffaed5" fill-opacity="1"><g transform="translate(353.598783, 463.213046)"><g><path d="M 19.890625 0.5625 C 17.660156 0.5625 15.726562 0.132812 14.09375 -0.71875 C 12.457031 -1.582031 11.160156 -2.71875 10.203125 -4.125 L 9.640625 -4.015625 L 9.640625 0 L 5.203125 0 L 5.203125 -41.953125 L 9.640625 -41.953125 L 9.640625 -25.453125 L 10.203125 -25.34375 C 12.484375 -28.78125 15.796875 -30.5 20.140625 -30.5 C 22.597656 -30.5 24.75 -29.925781 26.59375 -28.78125 C 28.4375 -27.644531 29.867188 -25.914062 30.890625 -23.59375 C 31.910156 -21.269531 32.421875 -18.390625 32.421875 -14.953125 C 32.421875 -11.546875 31.882812 -8.679688 30.8125 -6.359375 C 29.738281 -4.035156 28.257812 -2.300781 26.375 -1.15625 C 24.5 -0.0078125 22.335938 0.5625 19.890625 0.5625 Z M 18.828125 -3.390625 C 24.804688 -3.390625 27.796875 -7.242188 27.796875 -14.953125 C 27.796875 -18.953125 27.015625 -21.882812 25.453125 -23.75 C 23.898438 -25.613281 21.691406 -26.546875 18.828125 -26.546875 C 16.023438 -26.546875 13.789062 -25.585938 12.125 -23.671875 C 10.46875 -21.765625 9.640625 -18.859375 9.640625 -14.953125 C 9.640625 -11.066406 10.46875 -8.164062 12.125 -6.25 C 13.789062 -4.34375 16.023438 -3.390625 18.828125 -3.390625 Z M 18.828125 -3.390625 "/></g></g></g><g fill="#ffaed5" fill-opacity="1"><g transform="translate(389.299638, 463.213046)"><g/></g></g><path fill="#ffaed5" d="M 164.707031 522.636719 C 164.707031 523.25 164.648438 523.863281 164.527344 524.464844 C 164.40625 525.070312 164.226562 525.65625 163.992188 526.226562 C 163.757812 526.796875 163.46875 527.335938 163.125 527.847656 C 162.785156 528.359375 162.394531 528.835938 161.957031 529.269531 C 161.523438 529.707031 161.050781 530.09375 160.535156 530.4375 C 160.023438 530.777344 159.484375 531.066406 158.914062 531.304688 C 158.34375 531.539062 157.757812 531.71875 157.15625 531.835938 C 156.550781 531.957031 155.941406 532.019531 155.324219 532.019531 C 154.707031 532.019531 154.097656 531.957031 153.492188 531.835938 C 152.890625 531.71875 152.304688 531.539062 151.734375 531.304688 C 151.164062 531.066406 150.625 530.777344 150.113281 530.4375 C 149.597656 530.09375 149.125 529.707031 148.691406 529.269531 C 148.253906 528.835938 147.867188 528.359375 147.523438 527.847656 C 147.179688 527.335938 146.890625 526.796875 146.65625 526.226562 C 146.421875 525.65625 146.242188 525.070312 146.121094 524.464844 C 146.003906 523.863281 145.941406 523.25 145.941406 522.636719 C 145.941406 522.019531 146.003906 521.410156 146.121094 520.804688 C 146.242188 520.199219 146.421875 519.613281 146.65625 519.042969 C 146.890625 518.476562 147.179688 517.933594 147.523438 517.421875 C 147.867188 516.910156 148.253906 516.4375 148.691406 516 C 149.125 515.566406 149.597656 515.175781 150.113281 514.835938 C 150.625 514.492188 151.164062 514.203125 151.734375 513.96875 C 152.304688 513.730469 152.890625 513.554688 153.492188 513.433594 C 154.097656 513.3125 154.707031 513.253906 155.324219 513.253906 C 155.941406 513.253906 156.550781 513.3125 157.15625 513.433594 C 157.757812 513.554688 158.34375 513.730469 158.914062 513.96875 C 159.484375 514.203125 160.023438 514.492188 160.535156 514.835938 C 161.050781 515.175781 161.523438 515.566406 161.957031 516 C 162.394531 516.4375 162.785156 516.910156 163.125 517.421875 C 163.46875 517.933594 163.757812 518.476562 163.992188 519.042969 C 164.226562 519.613281 164.40625 520.199219 164.527344 520.804688 C 164.648438 521.410156 164.707031 522.019531 164.707031 522.636719 Z M 164.707031 522.636719 " fill-opacity="1" fill-rule="nonzero"/><g fill="#ffaed5" fill-opacity="1"><g transform="translate(198.750844, 540.357779)"><g><path d="M 21.609375 0 L 15.46875 0 L 1.703125 -39.671875 L 6.671875 -39.671875 L 18.3125 -5.828125 L 19 -5.828125 L 30.5 -39.671875 L 35.390625 -39.671875 Z M 21.609375 0 "/></g></g></g><g fill="#ffaed5" fill-opacity="1"><g transform="translate(235.820994, 540.357779)"><g><path d="M 17.34375 0.5625 C 14.84375 0.5625 12.601562 0.222656 10.625 -0.453125 C 8.644531 -1.128906 6.992188 -2.019531 5.671875 -3.125 C 4.347656 -4.226562 3.363281 -5.4375 2.71875 -6.75 L 5.265625 -9.84375 L 5.9375 -9.84375 C 8.40625 -5.707031 12.207031 -3.640625 17.34375 -3.640625 C 20.320312 -3.640625 22.539062 -4.257812 24 -5.5 C 25.457031 -6.75 26.1875 -8.488281 26.1875 -10.71875 C 26.1875 -12.019531 25.945312 -13.125 25.46875 -14.03125 C 24.988281 -14.9375 24.195312 -15.707031 23.09375 -16.34375 C 21.988281 -16.988281 20.488281 -17.546875 18.59375 -18.015625 L 13.953125 -19.15625 C 10.492188 -19.988281 7.945312 -21.3125 6.3125 -23.125 C 4.675781 -24.945312 3.859375 -27.253906 3.859375 -30.046875 C 3.859375 -32.015625 4.363281 -33.769531 5.375 -35.3125 C 6.382812 -36.863281 7.863281 -38.070312 9.8125 -38.9375 C 11.769531 -39.8125 14.109375 -40.25 16.828125 -40.25 C 19.804688 -40.25 22.320312 -39.828125 24.375 -38.984375 C 26.4375 -38.140625 28.082031 -36.878906 29.3125 -35.203125 L 27.03125 -32.125 L 26.34375 -32.125 C 25.207031 -33.519531 23.859375 -34.539062 22.296875 -35.1875 C 20.742188 -35.84375 18.921875 -36.171875 16.828125 -36.171875 C 14.078125 -36.171875 12 -35.632812 10.59375 -34.5625 C 9.195312 -33.5 8.5 -32.03125 8.5 -30.15625 C 8.5 -28.363281 9.015625 -26.9375 10.046875 -25.875 C 11.078125 -24.8125 12.8125 -23.992188 15.25 -23.421875 L 20 -22.28125 C 23.851562 -21.375 26.644531 -19.984375 28.375 -18.109375 C 30.101562 -16.242188 30.96875 -13.851562 30.96875 -10.9375 C 30.96875 -8.695312 30.460938 -6.710938 29.453125 -4.984375 C 28.453125 -3.253906 26.925781 -1.894531 24.875 -0.90625 C 22.832031 0.0703125 20.320312 0.5625 17.34375 0.5625 Z M 17.34375 0.5625 "/></g></g></g><g fill="#ffaed5" fill-opacity="1"><g transform="translate(269.824581, 540.357779)"><g><path d="M 17.171875 0.5625 C 14.535156 0.5625 12.164062 -0.0351562 10.0625 -1.234375 C 7.96875 -2.441406 6.3125 -4.210938 5.09375 -6.546875 C 3.882812 -8.890625 3.28125 -11.691406 3.28125 -14.953125 C 3.28125 -18.222656 3.882812 -21.03125 5.09375 -23.375 C 6.3125 -25.71875 7.96875 -27.488281 10.0625 -28.6875 C 12.164062 -29.894531 14.535156 -30.5 17.171875 -30.5 C 20.335938 -30.5 22.859375 -29.898438 24.734375 -28.703125 C 26.609375 -27.515625 27.960938 -25.925781 28.796875 -23.9375 L 25.78125 -21.765625 L 25.234375 -21.765625 C 24.421875 -23.410156 23.375 -24.617188 22.09375 -25.390625 C 20.820312 -26.160156 19.179688 -26.546875 17.171875 -26.546875 C 15.328125 -26.546875 13.707031 -26.109375 12.3125 -25.234375 C 10.925781 -24.367188 9.847656 -23.066406 9.078125 -21.328125 C 8.304688 -19.585938 7.921875 -17.460938 7.921875 -14.953125 C 7.921875 -12.453125 8.3125 -10.335938 9.09375 -8.609375 C 9.875 -6.890625 10.953125 -5.585938 12.328125 -4.703125 C 13.710938 -3.828125 15.328125 -3.390625 17.171875 -3.390625 C 19.253906 -3.390625 20.976562 -3.859375 22.34375 -4.796875 C 23.707031 -5.742188 24.78125 -7.226562 25.5625 -9.25 L 26.140625 -9.25 L 29.03125 -7.546875 C 28.257812 -5.023438 26.875 -3.039062 24.875 -1.59375 C 22.875 -0.15625 20.304688 0.5625 17.171875 0.5625 Z M 17.171875 0.5625 "/></g></g></g><g fill="#ffaed5" fill-opacity="1"><g transform="translate(300.68019, 540.357779)"><g><path d="M 17.171875 0.5625 C 14.347656 0.5625 11.890625 -0.03125 9.796875 -1.21875 C 7.710938 -2.414062 6.101562 -4.175781 4.96875 -6.5 C 3.84375 -8.820312 3.28125 -11.640625 3.28125 -14.953125 C 3.28125 -18.265625 3.84375 -21.085938 4.96875 -23.421875 C 6.101562 -25.753906 7.710938 -27.515625 9.796875 -28.703125 C 11.890625 -29.898438 14.347656 -30.5 17.171875 -30.5 C 19.992188 -30.5 22.453125 -29.898438 24.546875 -28.703125 C 26.640625 -27.515625 28.25 -25.753906 29.375 -23.421875 C 30.507812 -21.085938 31.078125 -18.265625 31.078125 -14.953125 C 31.078125 -11.640625 30.507812 -8.820312 29.375 -6.5 C 28.25 -4.175781 26.640625 -2.414062 24.546875 -1.21875 C 22.453125 -0.03125 19.992188 0.5625 17.171875 0.5625 Z M 17.171875 -3.390625 C 20.160156 -3.390625 22.445312 -4.328125 24.03125 -6.203125 C 25.613281 -8.085938 26.40625 -11.003906 26.40625 -14.953125 C 26.40625 -18.910156 25.613281 -21.832031 24.03125 -23.71875 C 22.445312 -25.601562 20.160156 -26.546875 17.171875 -26.546875 C 14.191406 -26.546875 11.90625 -25.597656 10.3125 -23.703125 C 8.71875 -21.816406 7.921875 -18.898438 7.921875 -14.953125 C 7.921875 -11.003906 8.71875 -8.085938 10.3125 -6.203125 C 11.90625 -4.328125 14.191406 -3.390625 17.171875 -3.390625 Z M 17.171875 -3.390625 "/></g></g></g><g fill="#ffaed5" fill-opacity="1"><g transform="translate(335.036567, 540.357779)"><g><path d="M 15.515625 0.5625 C 13.109375 0.5625 10.988281 -0.0078125 9.15625 -1.15625 C 7.320312 -2.300781 5.882812 -4.03125 4.84375 -6.34375 C 3.800781 -8.664062 3.28125 -11.535156 3.28125 -14.953125 C 3.28125 -18.367188 3.820312 -21.238281 4.90625 -23.5625 C 6 -25.894531 7.5 -27.632812 9.40625 -28.78125 C 11.3125 -29.925781 13.519531 -30.5 16.03125 -30.5 C 18.03125 -30.5 19.820312 -30.125 21.40625 -29.375 C 23 -28.625 24.367188 -27.390625 25.515625 -25.671875 L 26.078125 -25.78125 L 26.078125 -41.953125 L 30.5 -41.953125 L 30.5 0 L 26.078125 0 L 26.078125 -4.375 L 25.515625 -4.484375 C 24.535156 -2.992188 23.207031 -1.78125 21.53125 -0.84375 C 19.863281 0.09375 17.859375 0.5625 15.515625 0.5625 Z M 16.90625 -3.390625 C 19.695312 -3.390625 21.921875 -4.34375 23.578125 -6.25 C 25.242188 -8.164062 26.078125 -11.066406 26.078125 -14.953125 C 26.078125 -18.859375 25.242188 -21.765625 23.578125 -23.671875 C 21.921875 -25.585938 19.695312 -26.546875 16.90625 -26.546875 C 14.03125 -26.546875 11.8125 -25.613281 10.25 -23.75 C 8.695312 -21.882812 7.921875 -18.953125 7.921875 -14.953125 C 7.921875 -7.242188 10.914062 -3.390625 16.90625 -3.390625 Z M 16.90625 -3.390625 "/></g></g></g><g fill="#ffaed5" fill-opacity="1"><g transform="translate(370.77697, 540.357779)"><g><path d="M 28.515625 -13.953125 L 7.953125 -13.953125 C 8.078125 -10.316406 8.945312 -7.644531 10.5625 -5.9375 C 12.1875 -4.238281 14.410156 -3.390625 17.234375 -3.390625 C 19.367188 -3.390625 21.085938 -3.769531 22.390625 -4.53125 C 23.691406 -5.289062 24.710938 -6.484375 25.453125 -8.109375 L 26.03125 -8.109375 L 28.90625 -6.40625 C 28.03125 -4.226562 26.640625 -2.519531 24.734375 -1.28125 C 22.828125 -0.0507812 20.328125 0.5625 17.234375 0.5625 C 14.335938 0.5625 11.847656 -0.00390625 9.765625 -1.140625 C 7.691406 -2.273438 6.09375 -4 4.96875 -6.3125 C 3.84375 -8.632812 3.28125 -11.515625 3.28125 -14.953125 C 3.28125 -18.359375 3.875 -21.226562 5.0625 -23.5625 C 6.25 -25.894531 7.867188 -27.632812 9.921875 -28.78125 C 11.972656 -29.925781 14.320312 -30.5 16.96875 -30.5 C 20.800781 -30.5 23.789062 -29.414062 25.9375 -27.25 C 28.09375 -25.09375 29.179688 -21.890625 29.203125 -17.640625 C 29.203125 -15.972656 29.164062 -14.851562 29.09375 -14.28125 Z M 24.828125 -17.640625 C 24.753906 -20.828125 24.046875 -23.144531 22.703125 -24.59375 C 21.367188 -26.039062 19.457031 -26.765625 16.96875 -26.765625 C 14.34375 -26.765625 12.28125 -26.035156 10.78125 -24.578125 C 9.289062 -23.117188 8.382812 -20.804688 8.0625 -17.640625 Z M 24.828125 -17.640625 "/></g></g></g><g fill="#ffaed5" fill-opacity="1"><g transform="translate(402.689201, 540.357779)"><g/></g></g><path fill="#ffaed5" d="M 164.707031 599.78125 C 164.707031 600.394531 164.648438 601.007812 164.527344 601.609375 C 164.40625 602.214844 164.226562 602.800781 163.992188 603.371094 C 163.757812 603.941406 163.46875 604.480469 163.125 604.992188 C 162.785156 605.503906 162.394531 605.980469 161.957031 606.414062 C 161.523438 606.851562 161.050781 607.238281 160.535156 607.582031 C 160.023438 607.921875 159.484375 608.210938 158.914062 608.449219 C 158.34375 608.683594 157.757812 608.863281 157.15625 608.980469 C 156.550781 609.101562 155.941406 609.164062 155.324219 609.164062 C 154.707031 609.164062 154.097656 609.101562 153.492188 608.980469 C 152.890625 608.863281 152.304688 608.683594 151.734375 608.449219 C 151.164062 608.210938 150.625 607.921875 150.113281 607.582031 C 149.597656 607.238281 149.125 606.851562 148.691406 606.414062 C 148.253906 605.980469 147.867188 605.503906 147.523438 604.992188 C 147.179688 604.480469 146.890625 603.941406 146.65625 603.371094 C 146.421875 602.800781 146.242188 602.214844 146.121094 601.609375 C 146.003906 601.007812 145.941406 600.394531 145.941406 599.78125 C 145.941406 599.164062 146.003906 598.554688 146.121094 597.949219 C 146.242188 597.34375 146.421875 596.757812 146.65625 596.191406 C 146.890625 595.621094 147.179688 595.078125 147.523438 594.566406 C 147.867188 594.054688 148.253906 593.582031 148.691406 593.144531 C 149.125 592.710938 149.597656 592.320312 150.113281 591.980469 C 150.625 591.636719 151.164062 591.347656 151.734375 591.113281 C 152.304688 590.875 152.890625 590.699219 153.492188 590.578125 C 154.097656 590.457031 154.707031 590.398438 155.324219 590.398438 C 155.941406 590.398438 156.550781 590.457031 157.15625 590.578125 C 157.757812 590.699219 158.34375 590.875 158.914062 591.113281 C 159.484375 591.347656 160.023438 591.636719 160.535156 591.980469 C 161.050781 592.320312 161.523438 592.710938 161.957031 593.144531 C 162.394531 593.582031 162.785156 594.054688 163.125 594.566406 C 163.46875 595.078125 163.757812 595.621094 163.992188 596.191406 C 164.226562 596.757812 164.40625 597.34375 164.527344 597.949219 C 164.648438 598.554688 164.707031 599.164062 164.707031 599.78125 Z M 164.707031 599.78125 " fill-opacity="1" fill-rule="nonzero"/><g fill="#ffaed5" fill-opacity="1"><g transform="translate(198.750844, 617.502512)"><g><path d="M 20.46875 0.5625 C 15.59375 0.5625 11.90625 -0.671875 9.40625 -3.140625 C 6.914062 -5.609375 5.671875 -9.265625 5.671875 -14.109375 L 5.671875 -39.671875 L 10.3125 -39.671875 L 10.3125 -14.171875 C 10.3125 -10.691406 11.144531 -8.082031 12.8125 -6.34375 C 14.488281 -4.613281 17.039062 -3.75 20.46875 -3.75 C 27.226562 -3.75 30.609375 -7.222656 30.609375 -14.171875 L 30.609375 -39.671875 L 35.25 -39.671875 L 35.25 -14.109375 C 35.25 -9.265625 34 -5.609375 31.5 -3.140625 C 29.007812 -0.671875 25.332031 0.5625 20.46875 0.5625 Z M 20.46875 0.5625 "/></g></g></g><g fill="#ffaed5" fill-opacity="1"><g transform="translate(239.647417, 617.502512)"><g><path d="M 5.203125 0 L 5.203125 -29.9375 L 9.421875 -29.9375 L 9.421875 -25.234375 L 9.984375 -25.109375 C 10.984375 -26.859375 12.253906 -28.191406 13.796875 -29.109375 C 15.347656 -30.035156 17.234375 -30.5 19.453125 -30.5 C 23.054688 -30.5 25.664062 -29.582031 27.28125 -27.75 C 28.90625 -25.914062 29.71875 -23.085938 29.71875 -19.265625 L 29.71875 0 L 25.296875 0 L 25.296875 -19.15625 C 25.296875 -20.96875 25.0625 -22.421875 24.59375 -23.515625 C 24.132812 -24.609375 23.421875 -25.40625 22.453125 -25.90625 C 21.484375 -26.40625 20.210938 -26.65625 18.640625 -26.65625 C 15.941406 -26.65625 13.765625 -25.757812 12.109375 -23.96875 C 10.460938 -22.1875 9.640625 -19.316406 9.640625 -15.359375 L 9.640625 0 Z M 5.203125 0 "/></g></g></g><g fill="#ffaed5" fill-opacity="1"><g transform="translate(274.112345, 617.502512)"><g><path d="M 7.4375 -35.71875 C 6.5 -35.71875 5.734375 -36.007812 5.140625 -36.59375 C 4.554688 -37.1875 4.265625 -37.929688 4.265625 -38.828125 C 4.265625 -39.734375 4.554688 -40.476562 5.140625 -41.0625 C 5.734375 -41.65625 6.5 -41.953125 7.4375 -41.953125 C 8.375 -41.953125 9.132812 -41.65625 9.71875 -41.0625 C 10.3125 -40.476562 10.609375 -39.734375 10.609375 -38.828125 C 10.609375 -37.929688 10.3125 -37.1875 9.71875 -36.59375 C 9.132812 -36.007812 8.375 -35.71875 7.4375 -35.71875 Z M 5.203125 0 L 5.203125 -29.9375 L 9.640625 -29.9375 L 9.640625 0 Z M 5.203125 0 "/></g></g></g><g fill="#ffaed5" fill-opacity="1"><g transform="translate(288.956688, 617.502512)"><g><path d="M 20.25 -4.75 L 21.65625 -1.578125 C 20.945312 -0.867188 20.019531 -0.335938 18.875 0.015625 C 17.726562 0.378906 16.484375 0.5625 15.140625 0.5625 C 9.421875 0.5625 6.5625 -2.328125 6.5625 -8.109375 L 6.5625 -26.328125 L 1.359375 -26.328125 L 1.359375 -29.953125 L 6.5625 -29.953125 L 6.5625 -36.28125 L 10.984375 -37.015625 L 10.984375 -29.953125 L 20.625 -29.953125 L 20.625 -26.328125 L 10.984375 -26.328125 L 10.984375 -8.546875 C 10.984375 -5.109375 12.476562 -3.390625 15.46875 -3.390625 C 17.09375 -3.390625 18.492188 -3.84375 19.671875 -4.75 Z M 20.25 -4.75 "/></g></g></g><g fill="#ffaed5" fill-opacity="1"><g transform="translate(311.752389, 617.502512)"><g><path d="M 6 12.703125 C 4.988281 12.703125 4.039062 12.613281 3.15625 12.4375 C 2.28125 12.269531 1.523438 12.03125 0.890625 11.71875 L 1.703125 8.21875 L 2.203125 8.0625 C 2.628906 8.28125 3.164062 8.460938 3.8125 8.609375 C 4.46875 8.765625 5.140625 8.84375 5.828125 8.84375 C 7.046875 8.84375 8.050781 8.679688 8.84375 8.359375 C 9.644531 8.035156 10.328125 7.5 10.890625 6.75 C 11.460938 6 11.992188 4.960938 12.484375 3.640625 L 13.546875 0.703125 L 1.515625 -29.9375 L 6.296875 -29.9375 L 15.71875 -5.515625 L 16.234375 -5.515625 L 25.34375 -29.9375 L 29.875 -29.9375 L 16.5 4.6875 C 15.738281 6.613281 14.882812 8.160156 13.9375 9.328125 C 13 10.492188 11.890625 11.347656 10.609375 11.890625 C 9.328125 12.429688 7.789062 12.703125 6 12.703125 Z M 6 12.703125 "/></g></g></g><path fill="#ffaed5" d="M 164.707031 676.925781 C 164.707031 677.539062 164.648438 678.152344 164.527344 678.753906 C 164.40625 679.359375 164.226562 679.945312 163.992188 680.515625 C 163.757812 681.085938 163.46875 681.625 163.125 682.136719 C 162.785156 682.648438 162.394531 683.125 161.957031 683.558594 C 161.523438 683.996094 161.050781 684.382812 160.535156 684.726562 C 160.023438 685.066406 159.484375 685.355469 158.914062 685.59375 C 158.34375 685.828125 157.757812 686.007812 157.15625 686.125 C 156.550781 686.246094 155.941406 686.308594 155.324219 686.308594 C 154.707031 686.308594 154.097656 686.246094 153.492188 686.125 C 152.890625 686.007812 152.304688 685.828125 151.734375 685.59375 C 151.164062 685.355469 150.625 685.066406 150.113281 684.726562 C 149.597656 684.382812 149.125 683.996094 148.691406 683.558594 C 148.253906 683.125 147.867188 682.648438 147.523438 682.136719 C 147.179688 681.625 146.890625 681.085938 146.65625 680.515625 C 146.421875 679.945312 146.242188 679.359375 146.121094 678.753906 C 146.003906 678.152344 145.941406 677.539062 145.941406 676.925781 C 145.941406 676.308594 146.003906 675.699219 146.121094 675.09375 C 146.242188 674.488281 146.421875 673.902344 146.65625 673.335938 C 146.890625 672.765625 147.179688 672.222656 147.523438 671.710938 C 147.867188 671.199219 148.253906 670.726562 148.691406 670.289062 C 149.125 669.855469 149.597656 669.464844 150.113281 669.125 C 150.625 668.78125 151.164062 668.492188 151.734375 668.257812 C 152.304688 668.019531 152.890625 667.84375 153.492188 667.722656 C 154.097656 667.601562 154.707031 667.542969 155.324219 667.542969 C 155.941406 667.542969 156.550781 667.601562 157.15625 667.722656 C 157.757812 667.84375 158.34375 668.019531 158.914062 668.257812 C 159.484375 668.492188 160.023438 668.78125 160.535156 669.125 C 161.050781 669.464844 161.523438 669.855469 161.957031 670.289062 C 162.394531 670.726562 162.785156 671.199219 163.125 671.710938 C 163.46875 672.222656 163.757812 672.765625 163.992188 673.335938 C 164.226562 673.902344 164.40625 674.488281 164.527344 675.09375 C 164.648438 675.699219 164.707031 676.308594 164.707031 676.925781 Z M 164.707031 676.925781 " fill-opacity="1" fill-rule="nonzero"/><g fill="#ffaed5" fill-opacity="1"><g transform="translate(198.750844, 694.647246)"><g><path d="M 20.46875 0.5625 C 15.59375 0.5625 11.90625 -0.671875 9.40625 -3.140625 C 6.914062 -5.609375 5.671875 -9.265625 5.671875 -14.109375 L 5.671875 -39.671875 L 10.3125 -39.671875 L 10.3125 -14.171875 C 10.3125 -10.691406 11.144531 -8.082031 12.8125 -6.34375 C 14.488281 -4.613281 17.039062 -3.75 20.46875 -3.75 C 27.226562 -3.75 30.609375 -7.222656 30.609375 -14.171875 L 30.609375 -39.671875 L 35.25 -39.671875 L 35.25 -14.109375 C 35.25 -9.265625 34 -5.609375 31.5 -3.140625 C 29.007812 -0.671875 25.332031 0.5625 20.46875 0.5625 Z M 20.46875 0.5625 "/></g></g></g><g fill="#ffaed5" fill-opacity="1"><g transform="translate(239.647417, 694.647246)"><g><path d="M 5.203125 0 L 5.203125 -29.9375 L 9.421875 -29.9375 L 9.421875 -25.234375 L 9.984375 -25.109375 C 10.984375 -26.859375 12.253906 -28.191406 13.796875 -29.109375 C 15.347656 -30.035156 17.234375 -30.5 19.453125 -30.5 C 23.054688 -30.5 25.664062 -29.582031 27.28125 -27.75 C 28.90625 -25.914062 29.71875 -23.085938 29.71875 -19.265625 L 29.71875 0 L 25.296875 0 L 25.296875 -19.15625 C 25.296875 -20.96875 25.0625 -22.421875 24.59375 -23.515625 C 24.132812 -24.609375 23.421875 -25.40625 22.453125 -25.90625 C 21.484375 -26.40625 20.210938 -26.65625 18.640625 -26.65625 C 15.941406 -26.65625 13.765625 -25.757812 12.109375 -23.96875 C 10.460938 -22.1875 9.640625 -19.316406 9.640625 -15.359375 L 9.640625 0 Z M 5.203125 0 "/></g></g></g><g fill="#ffaed5" fill-opacity="1"><g transform="translate(274.112345, 694.647246)"><g><path d="M 5.203125 0 L 5.203125 -29.9375 L 9.421875 -29.9375 L 9.421875 -25.234375 L 9.984375 -25.109375 C 11.378906 -28.503906 14.003906 -30.203125 17.859375 -30.203125 C 19.898438 -30.203125 21.425781 -29.832031 22.4375 -29.09375 L 21.296875 -25.34375 L 20.765625 -25.234375 C 19.640625 -25.796875 18.40625 -26.078125 17.0625 -26.078125 C 14.675781 -26.078125 12.84375 -25.179688 11.5625 -23.390625 C 10.28125 -21.597656 9.640625 -18.695312 9.640625 -14.6875 L 9.640625 0 Z M 5.203125 0 "/></g></g></g><g fill="#ffaed5" fill-opacity="1"><g transform="translate(297.233699, 694.647246)"><g><path d="M 28.515625 -13.953125 L 7.953125 -13.953125 C 8.078125 -10.316406 8.945312 -7.644531 10.5625 -5.9375 C 12.1875 -4.238281 14.410156 -3.390625 17.234375 -3.390625 C 19.367188 -3.390625 21.085938 -3.769531 22.390625 -4.53125 C 23.691406 -5.289062 24.710938 -6.484375 25.453125 -8.109375 L 26.03125 -8.109375 L 28.90625 -6.40625 C 28.03125 -4.226562 26.640625 -2.519531 24.734375 -1.28125 C 22.828125 -0.0507812 20.328125 0.5625 17.234375 0.5625 C 14.335938 0.5625 11.847656 -0.00390625 9.765625 -1.140625 C 7.691406 -2.273438 6.09375 -4 4.96875 -6.3125 C 3.84375 -8.632812 3.28125 -11.515625 3.28125 -14.953125 C 3.28125 -18.359375 3.875 -21.226562 5.0625 -23.5625 C 6.25 -25.894531 7.867188 -27.632812 9.921875 -28.78125 C 11.972656 -29.925781 14.320312 -30.5 16.96875 -30.5 C 20.800781 -30.5 23.789062 -29.414062 25.9375 -27.25 C 28.09375 -25.09375 29.179688 -21.890625 29.203125 -17.640625 C 29.203125 -15.972656 29.164062 -14.851562 29.09375 -14.28125 Z M 24.828125 -17.640625 C 24.753906 -20.828125 24.046875 -23.144531 22.703125 -24.59375 C 21.367188 -26.039062 19.457031 -26.765625 16.96875 -26.765625 C 14.34375 -26.765625 12.28125 -26.035156 10.78125 -24.578125 C 9.289062 -23.117188 8.382812 -20.804688 8.0625 -17.640625 Z M 24.828125 -17.640625 "/></g></g></g><g fill="#ffaed5" fill-opacity="1"><g transform="translate(329.14768, 694.647246)"><g><path d="M 12.34375 0.5625 C 9.394531 0.5625 7.09375 -0.203125 5.4375 -1.734375 C 3.78125 -3.273438 2.953125 -5.472656 2.953125 -8.328125 C 2.953125 -10.097656 3.316406 -11.59375 4.046875 -12.8125 C 4.785156 -14.039062 5.921875 -15.039062 7.453125 -15.8125 C 8.992188 -16.582031 11.003906 -17.171875 13.484375 -17.578125 C 15.660156 -17.941406 17.3125 -18.347656 18.4375 -18.796875 C 19.570312 -19.253906 20.332031 -19.765625 20.71875 -20.328125 C 21.101562 -20.890625 21.296875 -21.59375 21.296875 -22.4375 C 21.296875 -23.800781 20.832031 -24.84375 19.90625 -25.5625 C 18.976562 -26.289062 17.484375 -26.65625 15.421875 -26.65625 C 13.484375 -26.65625 11.820312 -26.273438 10.4375 -25.515625 C 9.050781 -24.765625 7.78125 -23.648438 6.625 -22.171875 L 6.078125 -22.171875 L 3.90625 -25.234375 C 5.175781 -26.847656 6.785156 -28.128906 8.734375 -29.078125 C 10.691406 -30.023438 12.921875 -30.5 15.421875 -30.5 C 18.941406 -30.5 21.539062 -29.722656 23.21875 -28.171875 C 24.894531 -26.628906 25.734375 -24.492188 25.734375 -21.765625 L 25.734375 -5.890625 C 25.734375 -4.222656 26.4375 -3.390625 27.84375 -3.390625 C 28.3125 -3.390625 28.765625 -3.472656 29.203125 -3.640625 L 29.578125 -3.53125 L 30.09375 -0.46875 C 29.769531 -0.25 29.335938 -0.0820312 28.796875 0.03125 C 28.265625 0.15625 27.722656 0.21875 27.171875 0.21875 C 25.523438 0.21875 24.28125 -0.140625 23.4375 -0.859375 C 22.59375 -1.585938 22.050781 -2.660156 21.8125 -4.078125 L 21.25 -4.125 C 20.394531 -2.550781 19.242188 -1.375 17.796875 -0.59375 C 16.347656 0.175781 14.53125 0.5625 12.34375 0.5625 Z M 13.328125 -2.953125 C 14.992188 -2.953125 16.4375 -3.335938 17.65625 -4.109375 C 18.875 -4.878906 19.804688 -5.957031 20.453125 -7.34375 C 21.109375 -8.738281 21.4375 -10.351562 21.4375 -12.1875 L 21.4375 -15.984375 L 20.921875 -16.09375 C 20.253906 -15.625 19.441406 -15.226562 18.484375 -14.90625 C 17.523438 -14.59375 16.1875 -14.3125 14.46875 -14.0625 C 12.726562 -13.820312 11.347656 -13.457031 10.328125 -12.96875 C 9.304688 -12.476562 8.578125 -11.859375 8.140625 -11.109375 C 7.703125 -10.359375 7.484375 -9.429688 7.484375 -8.328125 C 7.484375 -6.578125 8 -5.242188 9.03125 -4.328125 C 10.0625 -3.410156 11.492188 -2.953125 13.328125 -2.953125 Z M 13.328125 -2.953125 "/></g></g></g><g fill="#ffaed5" fill-opacity="1"><g transform="translate(360.11184, 694.647246)"><g><path d="M 11.90625 0.5625 C 9.789062 0.5625 8.128906 -0.0351562 6.921875 -1.234375 C 5.710938 -2.441406 5.109375 -4.238281 5.109375 -6.625 L 5.109375 -41.953125 L 9.53125 -41.953125 L 9.53125 -6.921875 C 9.53125 -5.671875 9.769531 -4.769531 10.25 -4.21875 C 10.726562 -3.664062 11.472656 -3.390625 12.484375 -3.390625 C 13.097656 -3.390625 13.722656 -3.488281 14.359375 -3.6875 L 14.734375 -3.578125 L 15.25 -0.109375 C 14.925781 0.109375 14.457031 0.273438 13.84375 0.390625 C 13.238281 0.503906 12.59375 0.5625 11.90625 0.5625 Z M 11.90625 0.5625 "/></g></g></g><path fill="#ffaed5" d="M 164.707031 754.070312 C 164.707031 754.6875 164.648438 755.296875 164.527344 755.898438 C 164.40625 756.503906 164.226562 757.089844 163.992188 757.660156 C 163.757812 758.230469 163.46875 758.769531 163.125 759.28125 C 162.785156 759.792969 162.394531 760.269531 161.957031 760.703125 C 161.523438 761.140625 161.050781 761.527344 160.535156 761.871094 C 160.023438 762.214844 159.484375 762.503906 158.914062 762.738281 C 158.34375 762.972656 157.757812 763.152344 157.15625 763.273438 C 156.550781 763.390625 155.941406 763.453125 155.324219 763.453125 C 154.707031 763.453125 154.097656 763.390625 153.492188 763.273438 C 152.890625 763.152344 152.304688 762.972656 151.734375 762.738281 C 151.164062 762.503906 150.625 762.214844 150.113281 761.871094 C 149.597656 761.527344 149.125 761.140625 148.691406 760.703125 C 148.253906 760.269531 147.867188 759.792969 147.523438 759.28125 C 147.179688 758.769531 146.890625 758.230469 146.65625 757.660156 C 146.421875 757.089844 146.242188 756.503906 146.121094 755.898438 C 146.003906 755.296875 145.941406 754.6875 145.941406 754.070312 C 145.941406 753.453125 146.003906 752.84375 146.121094 752.238281 C 146.242188 751.636719 146.421875 751.046875 146.65625 750.480469 C 146.890625 749.910156 147.179688 749.367188 147.523438 748.855469 C 147.867188 748.34375 148.253906 747.871094 148.691406 747.433594 C 149.125 747 149.597656 746.609375 150.113281 746.269531 C 150.625 745.925781 151.164062 745.636719 151.734375 745.402344 C 152.304688 745.164062 152.890625 744.988281 153.492188 744.867188 C 154.097656 744.746094 154.707031 744.6875 155.324219 744.6875 C 155.941406 744.6875 156.550781 744.746094 157.15625 744.867188 C 157.757812 744.988281 158.34375 745.164062 158.914062 745.402344 C 159.484375 745.636719 160.023438 745.925781 160.535156 746.269531 C 161.050781 746.609375 161.523438 747 161.957031 747.433594 C 162.394531 747.871094 162.785156 748.34375 163.125 748.855469 C 163.46875 749.367188 163.757812 749.910156 163.992188 750.480469 C 164.226562 751.046875 164.40625 751.636719 164.527344 752.238281 C 164.648438 752.84375 164.707031 753.453125 164.707031 754.070312 Z M 164.707031 754.070312 " fill-opacity="1" fill-rule="nonzero"/><g fill="#ffaed5" fill-opacity="1"><g transform="translate(198.750844, 771.791979)"><g><path d="M 10.671875 -39.671875 L 10.671875 -3.859375 L 29.765625 -3.859375 L 29.765625 0 L 6 0 L 6 -39.671875 Z M 10.671875 -39.671875 "/></g></g></g><g fill="#ffaed5" fill-opacity="1"><g transform="translate(230.203483, 771.791979)"><g><path d="M 28.515625 -13.953125 L 7.953125 -13.953125 C 8.078125 -10.316406 8.945312 -7.644531 10.5625 -5.9375 C 12.1875 -4.238281 14.410156 -3.390625 17.234375 -3.390625 C 19.367188 -3.390625 21.085938 -3.769531 22.390625 -4.53125 C 23.691406 -5.289062 24.710938 -6.484375 25.453125 -8.109375 L 26.03125 -8.109375 L 28.90625 -6.40625 C 28.03125 -4.226562 26.640625 -2.519531 24.734375 -1.28125 C 22.828125 -0.0507812 20.328125 0.5625 17.234375 0.5625 C 14.335938 0.5625 11.847656 -0.00390625 9.765625 -1.140625 C 7.691406 -2.273438 6.09375 -4 4.96875 -6.3125 C 3.84375 -8.632812 3.28125 -11.515625 3.28125 -14.953125 C 3.28125 -18.359375 3.875 -21.226562 5.0625 -23.5625 C 6.25 -25.894531 7.867188 -27.632812 9.921875 -28.78125 C 11.972656 -29.925781 14.320312 -30.5 16.96875 -30.5 C 20.800781 -30.5 23.789062 -29.414062 25.9375 -27.25 C 28.09375 -25.09375 29.179688 -21.890625 29.203125 -17.640625 C 29.203125 -15.972656 29.164062 -14.851562 29.09375 -14.28125 Z M 24.828125 -17.640625 C 24.753906 -20.828125 24.046875 -23.144531 22.703125 -24.59375 C 21.367188 -26.039062 19.457031 -26.765625 16.96875 -26.765625 C 14.34375 -26.765625 12.28125 -26.035156 10.78125 -24.578125 C 9.289062 -23.117188 8.382812 -20.804688 8.0625 -17.640625 Z M 24.828125 -17.640625 "/></g></g></g><g fill="#ffaed5" fill-opacity="1"><g transform="translate(262.117464, 771.791979)"><g><path d="M 18.9375 0 L 12.859375 0 L 1.46875 -29.9375 L 6.234375 -29.9375 L 15.65625 -5.046875 L 16.28125 -5.046875 L 25.625 -29.9375 L 30.28125 -29.9375 Z M 18.9375 0 "/></g></g></g><g fill="#ffaed5" fill-opacity="1"><g transform="translate(293.841481, 771.791979)"><g><path d="M 28.515625 -13.953125 L 7.953125 -13.953125 C 8.078125 -10.316406 8.945312 -7.644531 10.5625 -5.9375 C 12.1875 -4.238281 14.410156 -3.390625 17.234375 -3.390625 C 19.367188 -3.390625 21.085938 -3.769531 22.390625 -4.53125 C 23.691406 -5.289062 24.710938 -6.484375 25.453125 -8.109375 L 26.03125 -8.109375 L 28.90625 -6.40625 C 28.03125 -4.226562 26.640625 -2.519531 24.734375 -1.28125 C 22.828125 -0.0507812 20.328125 0.5625 17.234375 0.5625 C 14.335938 0.5625 11.847656 -0.00390625 9.765625 -1.140625 C 7.691406 -2.273438 6.09375 -4 4.96875 -6.3125 C 3.84375 -8.632812 3.28125 -11.515625 3.28125 -14.953125 C 3.28125 -18.359375 3.875 -21.226562 5.0625 -23.5625 C 6.25 -25.894531 7.867188 -27.632812 9.921875 -28.78125 C 11.972656 -29.925781 14.320312 -30.5 16.96875 -30.5 C 20.800781 -30.5 23.789062 -29.414062 25.9375 -27.25 C 28.09375 -25.09375 29.179688 -21.890625 29.203125 -17.640625 C 29.203125 -15.972656 29.164062 -14.851562 29.09375 -14.28125 Z M 24.828125 -17.640625 C 24.753906 -20.828125 24.046875 -23.144531 22.703125 -24.59375 C 21.367188 -26.039062 19.457031 -26.765625 16.96875 -26.765625 C 14.34375 -26.765625 12.28125 -26.035156 10.78125 -24.578125 C 9.289062 -23.117188 8.382812 -20.804688 8.0625 -17.640625 Z M 24.828125 -17.640625 "/></g></g></g><g fill="#ffaed5" fill-opacity="1"><g transform="translate(325.755462, 771.791979)"><g><path d="M 11.90625 0.5625 C 9.789062 0.5625 8.128906 -0.0351562 6.921875 -1.234375 C 5.710938 -2.441406 5.109375 -4.238281 5.109375 -6.625 L 5.109375 -41.953125 L 9.53125 -41.953125 L 9.53125 -6.921875 C 9.53125 -5.671875 9.769531 -4.769531 10.25 -4.21875 C 10.726562 -3.664062 11.472656 -3.390625 12.484375 -3.390625 C 13.097656 -3.390625 13.722656 -3.488281 14.359375 -3.6875 L 14.734375 -3.578125 L 15.25 -0.109375 C 14.925781 0.109375 14.457031 0.273438 13.84375 0.390625 C 13.238281 0.503906 12.59375 0.5625 11.90625 0.5625 Z M 11.90625 0.5625 "/></g></g></g><g fill="#ffaed5" fill-opacity="1"><g transform="translate(342.038105, 771.791979)"><g/></g></g><g fill="#ffaed5" fill-opacity="1"><g transform="translate(355.66125, 771.791979)"><g><path d="M 18.828125 -39.671875 C 22.847656 -39.671875 26.300781 -38.953125 29.1875 -37.515625 C 32.070312 -36.078125 34.296875 -33.882812 35.859375 -30.9375 C 37.421875 -27.988281 38.203125 -24.289062 38.203125 -19.84375 C 38.203125 -15.382812 37.421875 -11.679688 35.859375 -8.734375 C 34.296875 -5.785156 32.070312 -3.59375 29.1875 -2.15625 C 26.300781 -0.71875 22.847656 0 18.828125 0 L 6 0 L 6 -39.671875 Z M 18.375 -3.96875 C 21.6875 -3.96875 24.425781 -4.484375 26.59375 -5.515625 C 28.757812 -6.546875 30.40625 -8.226562 31.53125 -10.5625 C 32.65625 -12.894531 33.21875 -15.988281 33.21875 -19.84375 C 33.21875 -23.707031 32.65625 -26.800781 31.53125 -29.125 C 30.40625 -31.457031 28.757812 -33.140625 26.59375 -34.171875 C 24.425781 -35.203125 21.6875 -35.71875 18.375 -35.71875 L 10.671875 -35.71875 L 10.671875 -3.96875 Z M 18.375 -3.96875 "/></g></g></g><g fill="#ffaed5" fill-opacity="1"><g transform="translate(397.833296, 771.791979)"><g><path d="M 28.515625 -13.953125 L 7.953125 -13.953125 C 8.078125 -10.316406 8.945312 -7.644531 10.5625 -5.9375 C 12.1875 -4.238281 14.410156 -3.390625 17.234375 -3.390625 C 19.367188 -3.390625 21.085938 -3.769531 22.390625 -4.53125 C 23.691406 -5.289062 24.710938 -6.484375 25.453125 -8.109375 L 26.03125 -8.109375 L 28.90625 -6.40625 C 28.03125 -4.226562 26.640625 -2.519531 24.734375 -1.28125 C 22.828125 -0.0507812 20.328125 0.5625 17.234375 0.5625 C 14.335938 0.5625 11.847656 -0.00390625 9.765625 -1.140625 C 7.691406 -2.273438 6.09375 -4 4.96875 -6.3125 C 3.84375 -8.632812 3.28125 -11.515625 3.28125 -14.953125 C 3.28125 -18.359375 3.875 -21.226562 5.0625 -23.5625 C 6.25 -25.894531 7.867188 -27.632812 9.921875 -28.78125 C 11.972656 -29.925781 14.320312 -30.5 16.96875 -30.5 C 20.800781 -30.5 23.789062 -29.414062 25.9375 -27.25 C 28.09375 -25.09375 29.179688 -21.890625 29.203125 -17.640625 C 29.203125 -15.972656 29.164062 -14.851562 29.09375 -14.28125 Z M 24.828125 -17.640625 C 24.753906 -20.828125 24.046875 -23.144531 22.703125 -24.59375 C 21.367188 -26.039062 19.457031 -26.765625 16.96875 -26.765625 C 14.34375 -26.765625 12.28125 -26.035156 10.78125 -24.578125 C 9.289062 -23.117188 8.382812 -20.804688 8.0625 -17.640625 Z M 24.828125 -17.640625 "/></g></g></g><g fill="#ffaed5" fill-opacity="1"><g transform="translate(429.747277, 771.791979)"><g><path d="M 13.65625 0.5625 C 11.769531 0.5625 10.023438 0.316406 8.421875 -0.171875 C 6.828125 -0.671875 5.476562 -1.351562 4.375 -2.21875 C 3.269531 -3.09375 2.488281 -4.070312 2.03125 -5.15625 L 4.640625 -7.875 L 5.203125 -7.875 C 6.179688 -6.382812 7.359375 -5.265625 8.734375 -4.515625 C 10.109375 -3.765625 11.75 -3.390625 13.65625 -3.390625 C 15.863281 -3.390625 17.539062 -3.816406 18.6875 -4.671875 C 19.832031 -5.535156 20.40625 -6.738281 20.40625 -8.28125 C 20.40625 -9.457031 20.054688 -10.425781 19.359375 -11.1875 C 18.660156 -11.957031 17.535156 -12.535156 15.984375 -12.921875 L 10.9375 -14.171875 C 8.238281 -14.816406 6.269531 -15.84375 5.03125 -17.25 C 3.789062 -18.664062 3.171875 -20.414062 3.171875 -22.5 C 3.171875 -24.125 3.585938 -25.535156 4.421875 -26.734375 C 5.253906 -27.941406 6.453125 -28.867188 8.015625 -29.515625 C 9.578125 -30.171875 11.4375 -30.5 13.59375 -30.5 C 16.34375 -30.5 18.507812 -30.113281 20.09375 -29.34375 C 21.675781 -28.582031 22.910156 -27.515625 23.796875 -26.140625 L 21.296875 -23.6875 L 20.765625 -23.6875 C 19.804688 -24.789062 18.757812 -25.585938 17.625 -26.078125 C 16.5 -26.566406 15.15625 -26.8125 13.59375 -26.8125 C 11.625 -26.8125 10.113281 -26.457031 9.0625 -25.75 C 8.007812 -25.050781 7.484375 -24.03125 7.484375 -22.6875 C 7.484375 -21.476562 7.851562 -20.5 8.59375 -19.75 C 9.34375 -19.007812 10.640625 -18.414062 12.484375 -17.96875 L 17.453125 -16.765625 C 20.054688 -16.148438 21.9375 -15.128906 23.09375 -13.703125 C 24.25 -12.273438 24.828125 -10.484375 24.828125 -8.328125 C 24.828125 -6.578125 24.410156 -5.03125 23.578125 -3.6875 C 22.742188 -2.351562 21.484375 -1.3125 19.796875 -0.5625 C 18.117188 0.1875 16.070312 0.5625 13.65625 0.5625 Z M 13.65625 0.5625 "/></g></g></g><g fill="#ffaed5" fill-opacity="1"><g transform="translate(457.427771, 771.791979)"><g><path d="M 7.4375 -35.71875 C 6.5 -35.71875 5.734375 -36.007812 5.140625 -36.59375 C 4.554688 -37.1875 4.265625 -37.929688 4.265625 -38.828125 C 4.265625 -39.734375 4.554688 -40.476562 5.140625 -41.0625 C 5.734375 -41.65625 6.5 -41.953125 7.4375 -41.953125 C 8.375 -41.953125 9.132812 -41.65625 9.71875 -41.0625 C 10.3125 -40.476562 10.609375 -39.734375 10.609375 -38.828125 C 10.609375 -37.929688 10.3125 -37.1875 9.71875 -36.59375 C 9.132812 -36.007812 8.375 -35.71875 7.4375 -35.71875 Z M 5.203125 0 L 5.203125 -29.9375 L 9.640625 -29.9375 L 9.640625 0 Z M 5.203125 0 "/></g></g></g><g fill="#ffaed5" fill-opacity="1"><g transform="translate(472.272114, 771.791979)"><g><path d="M 15.421875 12.703125 C 10.691406 12.703125 7.238281 11.914062 5.0625 10.34375 C 2.894531 8.769531 1.8125 6.679688 1.8125 4.078125 C 1.8125 2.390625 2.316406 1.046875 3.328125 0.046875 C 4.347656 -0.941406 5.828125 -1.65625 7.765625 -2.09375 L 7.765625 -2.65625 C 6.835938 -3.1875 6.144531 -3.800781 5.6875 -4.5 C 5.226562 -5.207031 5 -6.050781 5 -7.03125 C 5 -8.1875 5.363281 -9.125 6.09375 -9.84375 C 6.820312 -10.570312 7.910156 -11.125 9.359375 -11.5 L 9.359375 -12.078125 C 6.109375 -13.796875 4.484375 -16.59375 4.484375 -20.46875 C 4.484375 -22.414062 4.925781 -24.148438 5.8125 -25.671875 C 6.695312 -27.191406 7.960938 -28.375 9.609375 -29.21875 C 11.253906 -30.070312 13.171875 -30.5 15.359375 -30.5 C 17.867188 -30.5 19.96875 -29.945312 21.65625 -28.84375 C 22.289062 -29.550781 22.765625 -30.304688 23.078125 -31.109375 C 23.398438 -31.921875 23.601562 -32.832031 23.6875 -33.84375 L 24.265625 -34.1875 L 27.890625 -33.328125 C 27.710938 -31.804688 27.253906 -30.519531 26.515625 -29.46875 C 25.785156 -28.414062 24.753906 -27.546875 23.421875 -26.859375 L 23.421875 -26.296875 C 24.378906 -25.535156 25.085938 -24.644531 25.546875 -23.625 C 26.015625 -22.601562 26.25 -21.414062 26.25 -20.0625 C 26.25 -18.175781 25.796875 -16.484375 24.890625 -14.984375 C 23.984375 -13.484375 22.707031 -12.300781 21.0625 -11.4375 C 19.414062 -10.582031 17.515625 -10.15625 15.359375 -10.15625 C 15.109375 -10.15625 14.65625 -10.171875 14 -10.203125 C 13.28125 -10.242188 12.75 -10.265625 12.40625 -10.265625 C 11.457031 -10.265625 10.703125 -10.019531 10.140625 -9.53125 C 9.585938 -9.039062 9.3125 -8.414062 9.3125 -7.65625 C 9.3125 -6.707031 9.613281 -6.007812 10.21875 -5.5625 C 10.820312 -5.125 11.820312 -4.878906 13.21875 -4.828125 L 20.296875 -4.59375 C 23.359375 -4.476562 25.625 -3.765625 27.09375 -2.453125 C 28.570312 -1.140625 29.3125 0.71875 29.3125 3.125 C 29.3125 4.914062 28.832031 6.53125 27.875 7.96875 C 26.914062 9.40625 25.394531 10.550781 23.3125 11.40625 C 21.226562 12.269531 18.597656 12.703125 15.421875 12.703125 Z M 15.359375 -13.953125 C 17.472656 -13.953125 19.109375 -14.503906 20.265625 -15.609375 C 21.429688 -16.710938 22.015625 -18.257812 22.015625 -20.25 C 22.015625 -22.3125 21.4375 -23.898438 20.28125 -25.015625 C 19.132812 -26.140625 17.492188 -26.703125 15.359375 -26.703125 C 13.222656 -26.703125 11.59375 -26.144531 10.46875 -25.03125 C 9.351562 -23.914062 8.796875 -22.320312 8.796875 -20.25 C 8.796875 -18.238281 9.351562 -16.6875 10.46875 -15.59375 C 11.59375 -14.5 13.222656 -13.953125 15.359375 -13.953125 Z M 15.421875 8.90625 C 17.617188 8.90625 19.421875 8.660156 20.828125 8.171875 C 22.234375 7.679688 23.242188 7.03125 23.859375 6.21875 C 24.472656 5.414062 24.78125 4.519531 24.78125 3.53125 C 24.78125 2.644531 24.609375 1.925781 24.265625 1.375 C 23.929688 0.832031 23.394531 0.425781 22.65625 0.15625 C 21.914062 -0.113281 20.90625 -0.285156 19.625 -0.359375 L 12.921875 -0.671875 L 11.96875 -0.671875 C 8.21875 -0.617188 6.34375 0.832031 6.34375 3.6875 C 6.34375 7.164062 9.367188 8.90625 15.421875 8.90625 Z M 15.421875 8.90625 "/></g></g></g><g fill="#ffaed5" fill-opacity="1"><g transform="translate(502.937759, 771.791979)"><g><path d="M 5.203125 0 L 5.203125 -29.9375 L 9.421875 -29.9375 L 9.421875 -25.234375 L 9.984375 -25.109375 C 10.984375 -26.859375 12.253906 -28.191406 13.796875 -29.109375 C 15.347656 -30.035156 17.234375 -30.5 19.453125 -30.5 C 23.054688 -30.5 25.664062 -29.582031 27.28125 -27.75 C 28.90625 -25.914062 29.71875 -23.085938 29.71875 -19.265625 L 29.71875 0 L 25.296875 0 L 25.296875 -19.15625 C 25.296875 -20.96875 25.0625 -22.421875 24.59375 -23.515625 C 24.132812 -24.609375 23.421875 -25.40625 22.453125 -25.90625 C 21.484375 -26.40625 20.210938 -26.65625 18.640625 -26.65625 C 15.941406 -26.65625 13.765625 -25.757812 12.109375 -23.96875 C 10.460938 -22.1875 9.640625 -19.316406 9.640625 -15.359375 L 9.640625 0 Z M 5.203125 0 "/></g></g></g></svg>